<svg width="117" height="126" fill="none" xmlns="http://www.w3.org/2000/svg"><g filter="url(#a)"><circle cx="59.5" cy="10.5" r="2.5" fill="#FF875B"/></g><g filter="url(#b)"><circle cx="10.5" cy="72.5" r="2.5" fill="#FF875B"/></g><g filter="url(#c)"><circle cx="86.5" cy="114.5" r="2.5" fill="#60BEFF"/></g><g filter="url(#d)"><circle cx="29.875" cy="111.365" r="3" fill="#ACD96A"/></g><g filter="url(#e)"><circle cx="102.5" cy="17.5" r="2.5" fill="#60FCE3"/></g><g clip-path="url(#f)"><path d="m12.703 85.084-.64.64a1.822 1.822 0 0 0-.055 2.58l.055.055 5.141 5.197c.128.127.256.237.421.31v-6.312l-4.922-2.47Z" fill="#3D89F5"/><path d="m24.303 85.084.64.64a1.84 1.84 0 0 1 .056 2.58l-.055.055-5.16 5.178a1.4 1.4 0 0 1-.42.311v-6.294l4.94-2.47Z" fill="#1656B9"/><path d="m23.059 83.767-3.22-3.22c-.714-.714-1.866-.732-2.58-.037-.018.018-.037.018-.037.037l-3.238 3.22 4.52 2.25 4.555-2.25Z" fill="#85B5F8"/></g><g filter="url(#g)"><circle cx="106.5" cy="83.5" r="2.5" fill="#AFB0F6"/></g><path d="m16.25 50.7 11-3.575v24.75c-7.857-3.3-11-9.625-11-13.2V50.7Z" fill="#0500FF"/><path d="m38.25 50.7-11-3.575v24.75c7.858-3.3 11-9.625 11-13.2V50.7Z" fill="url(#h)"/><path d="m38.25 50.7-11-3.575v24.75c7.858-3.3 11-9.625 11-13.2V50.7Z" fill="url(#i)"/><g clip-path="url(#j)" fill-rule="evenodd" clip-rule="evenodd"><path d="M58.128 74.521c-8.57-2.137-13.787-10.819-11.649-19.39 2.137-8.572 10.82-13.79 19.39-11.652 8.572 2.137 13.79 10.82 11.652 19.391-2.138 8.572-10.82 13.788-19.393 11.651Z" fill="#F7931A"/><path d="M66.272 56.937c-.51 2.029-3.658.998-4.68.745l.901-3.586c1.021.253 4.31.725 3.779 2.84Zm-.559 5.786c-.56 2.23-4.341 1.025-5.568.722l.993-3.953c1.227.303 5.16.905 4.575 3.231Zm4.133-5.754c.328-2.178-1.343-3.35-3.627-4.13l.741-2.95-1.808-.449-.722 2.873a74.072 74.072 0 0 0-1.45-.338l.727-2.892-1.808-.448-.742 2.95a61.19 61.19 0 0 1-1.155-.27l.002-.008-2.494-.619-.482 1.918s1.342.306 1.314.325c.733.181.934.678.843 1.044l-2.03 8.083c-.09.22-.317.553-.829.427.018.026-1.316-.326-1.316-.326l-.897 2.055 2.354.583c.437.109.867.222 1.29.33l-.749 2.985 1.807.447.741-2.952c.495.133.974.255 1.442.371l-.738 2.939 1.809.448.748-2.979c3.085.58 5.405.346 6.381-2.424.787-2.23-.039-3.517-1.662-4.356 1.182-.27 2.073-1.043 2.31-2.637Z" fill="#fff"/></g><g clip-path="url(#k)"><path d="M96.5 73c7.456 0 13.5-6.044 13.5-13.5S103.956 46 96.5 46 83 52.044 83 59.5 89.044 73 96.5 73Z" fill="#F8BF1A"/><path d="M89.005 67.08v-3.577h2.087v-8.176h-2.087v-3.45h8.73c.596 0 1.192.17 1.746.383 1.107.426 2.087 1.065 2.853 2.002a6.74 6.74 0 0 1 1.406 2.81c.426 1.79.426 3.62-.085 5.41-.682 2.341-2.13 3.917-4.6 4.47-.426.086-.894.128-1.32.171h-8.39c-.127-.043-.213-.043-.34-.043Zm6.345-3.577c.469 0 .937.043 1.406 0 .596-.042 1.15-.255 1.533-.766.34-.426.638-.895.809-1.406.34-1.15.213-2.3-.043-3.45-.128-.68-.468-1.32-.894-1.83-.256-.299-.596-.64-.98-.682-.596-.128-1.235-.042-1.83-.042v8.176Z" fill="#fff"/></g><g clip-path="url(#l)"><path d="M45.5 102c7.456 0 13.5-6.044 13.5-13.5S52.956 75 45.5 75 32 81.044 32 88.5 38.044 102 45.5 102Z" fill="#FF875B"/><path d="M47.81 79.5h-4.636a.282.282 0 0 0-.28.288c-.092 4.488-2.369 8.754-6.28 11.774a.314.314 0 0 0-.066.408l2.713 3.866c.093.13.27.158.4.065 2.453-1.877 4.423-4.135 5.836-6.644 1.421 2.509 3.391 4.767 5.835 6.644.13.093.307.065.4-.065l2.713-3.866a.296.296 0 0 0-.065-.408c-3.921-3.02-6.189-7.276-6.281-11.774-.01-.158-.14-.288-.288-.288Z" fill="#fff"/></g><g clip-path="url(#m)"><circle cx="80" cy="88.434" r="13" fill="#000"/><path d="M82.35 85.726h-4.695a.36.36 0 0 0-.361.361v4.695c0 .199.161.36.36.36h4.695a.36.36 0 0 0 .361-.36v-4.695a.36.36 0 0 0-.36-.36Zm-5.42-5.416h-4.694a.36.36 0 0 0-.361.36v4.695c0 .2.162.361.361.361h4.694c.2 0 .362-.162.362-.361V80.67c0-.2-.162-.362-.362-.362Zm10.833 0H83.07a.36.36 0 0 0-.361.36v4.695c0 .2.162.361.361.361h4.694c.2 0 .362-.162.362-.361V80.67c0-.2-.162-.362-.362-.362ZM76.93 91.143h-4.694a.36.36 0 0 0-.361.36v4.695c0 .2.162.361.361.361h4.694c.2 0 .362-.162.362-.36v-4.695c0-.2-.162-.361-.362-.361Zm10.833 0H83.07a.36.36 0 0 0-.361.36v4.695c0 .2.162.361.361.361h4.694c.2 0 .362-.162.362-.36v-4.695c0-.2-.162-.361-.362-.361Z" fill="#fff"/></g><g clip-path="url(#n)"><path d="M77 42c7.18 0 13-5.82 13-13s-5.82-13-13-13-13 5.82-13 13 5.82 13 13 13Z" fill="#5741D9"/><path d="M68.434 31.207c0-.32.007-.638-.001-.958-.015-.618.03-1.23.136-1.842.181-1.02.51-1.983 1.046-2.875.9-1.496 2.17-2.595 3.77-3.334a8.1 8.1 0 0 1 2.232-.675c.405-.06.812-.11 1.223-.106 1.751.013 3.383.436 4.854 1.382 1.443.927 2.526 2.154 3.177 3.728.306.742.494 1.515.593 2.308.11.874.115 1.752.099 2.632-.01.474-.008.949-.015 1.423a2.462 2.462 0 0 1-.067.615c-.218.785-1.136 1.145-1.808.709-.302-.194-.45-.479-.504-.818a4.189 4.189 0 0 1-.056-.69V29.84c0-.374-.12-.706-.38-.982-.458-.48-1.158-.498-1.67-.054-.289.25-.42.567-.447.932a4.98 4.98 0 0 0-.015.411c-.001 1.053.002 2.104-.006 3.158-.005.597-.47 1.052-1.09 1.095a1.15 1.15 0 0 1-1.223-.937 2.804 2.804 0 0 1-.037-.482v-3.176a1.3 1.3 0 0 0-.38-.934c-.511-.528-1.284-.51-1.782.031-.244.265-.35.573-.35.926 0 1.045-.002 2.094 0 3.139 0 .27-.035.535-.147.783a1.13 1.13 0 0 1-1.093.666c-.457-.015-.843-.296-1.018-.744a1.51 1.51 0 0 1-.099-.554c.002-1.012.002-2.026-.002-3.04 0-.223-.009-.449-.078-.667-.157-.498-.496-.816-1.02-.9-.533-.085-.928.161-1.225.58a1.118 1.118 0 0 0-.189.667c0 .962.003 1.922.003 2.884 0 .282.005.565-.06.845-.108.463-.563.969-1.252.92-.473-.035-.928-.418-1.06-.909a2.06 2.06 0 0 1-.061-.533c.005-.59.005-1.174.002-1.758.003 0 0 0 0 0Z" fill="#fff"/></g><g clip-path="url(#o)"><path d="M45 42c7.18 0 13-5.82 13-13s-5.82-13-13-13-13 5.82-13 13 5.82 13 13 13Z" fill="#FF5F5F"/><path fill-rule="evenodd" clip-rule="evenodd" d="M38.734 31.926a5.74 5.74 0 0 0 5.741 5.74V20.334l-5.74 2.088v9.505Zm12.532-7.13a5.74 5.74 0 0 1-5.741 5.74V20.333l5.74 2.088v2.374Z" fill="#fff"/></g><path fill-rule="evenodd" clip-rule="evenodd" d="M97.62 38.785c.487.52 3.161 3.016 7.36.12 3.034-2.388 2.958-7.562 2.667-9.126-.101.229-3.628 8.024-10.027 9.006Zm10.027-9.007c-.038-.015-3.942-.553-7.804 1.959-2.397 1.558-2.714 3.84-2.604 5.36 5.612-.633 10.282-7.14 10.408-7.319Z" fill="#97C554"/><g filter="url(#p)"><circle cx="17.625" cy="37.492" r="2.5" fill="#F8BF1A"/></g><path d="M50 120.998c0 2.619 1.392 3.222 2.84 3.222 3.062 0 5.365-2.695 6.738-4.824-.168.471-.26.942-.26 1.395 0 1.243.705 2.129 2.097 2.129 1.912 0 3.954-1.696 5.012-3.524a2.727 2.727 0 0 0-.111.734c0 .868.482 1.414 1.466 1.414 3.1 0 6.218-5.559 6.218-10.421 0-3.788-1.894-7.123-6.646-7.123C59.003 104 50 114.327 50 120.998Zm14.478-10.29c0-.942.52-1.601 1.28-1.601.743 0 1.263.659 1.263 1.601 0 .943-.52 1.621-1.262 1.621-.762 0-1.28-.678-1.28-1.621h-.001Zm3.972 0c0-.942.52-1.601 1.28-1.601.743 0 1.263.659 1.263 1.601 0 .943-.52 1.621-1.262 1.621-.762 0-1.28-.678-1.28-1.621Z" fill="#AB9FF2"/><defs><clipPath id="f"><path fill="#fff" transform="translate(11.5 80)" d="M0 0h14v14H0z"/></clipPath><clipPath id="j"><path fill="#fff" transform="translate(46 43)" d="M0 0h32v32H0z"/></clipPath><clipPath id="k"><path fill="#fff" transform="translate(83 46)" d="M0 0h27v27H0z"/></clipPath><clipPath id="l"><path fill="#fff" transform="translate(32 75)" d="M0 0h27v27H0z"/></clipPath><clipPath id="m"><path fill="#fff" transform="translate(67 75.434)" d="M0 0h26v26H0z"/></clipPath><clipPath id="n"><path fill="#fff" transform="translate(64 16)" d="M0 0h26v26H0z"/></clipPath><clipPath id="o"><path fill="#fff" transform="translate(32 16)" d="M0 0h26v26H0z"/></clipPath><filter id="a" x="49" y="0" width="21" height="21" filterUnits="userSpaceOnUse" color-interpolation-filters="sRGB"><feFlood flood-opacity="0" result="BackgroundImageFix"/><feColorMatrix in="SourceAlpha" values="0 0 0 0 0 0 0 0 0 0 0 0 0 0 0 0 0 0 127 0" result="hardAlpha"/><feOffset/><feGaussianBlur stdDeviation="4"/><feComposite in2="hardAlpha" operator="out"/><feColorMatrix values="0 0 0 0 1 0 0 0 0 0.529412 0 0 0 0 0.356863 0 0 0 0.8 0"/><feBlend in2="BackgroundImageFix" result="effect1_dropShadow_2039_30299"/><feBlend in="SourceGraphic" in2="effect1_dropShadow_2039_30299" result="shape"/></filter><filter id="b" x="0" y="62" width="21" height="21" filterUnits="userSpaceOnUse" color-interpolation-filters="sRGB"><feFlood flood-opacity="0" result="BackgroundImageFix"/><feColorMatrix in="SourceAlpha" values="0 0 0 0 0 0 0 0 0 0 0 0 0 0 0 0 0 0 127 0" result="hardAlpha"/><feOffset/><feGaussianBlur stdDeviation="4"/><feComposite in2="hardAlpha" operator="out"/><feColorMatrix values="0 0 0 0 1 0 0 0 0 0.529412 0 0 0 0 0.356863 0 0 0 0.8 0"/><feBlend in2="BackgroundImageFix" result="effect1_dropShadow_2039_30299"/><feBlend in="SourceGraphic" in2="effect1_dropShadow_2039_30299" result="shape"/></filter><filter id="c" x="76" y="104" width="21" height="21" filterUnits="userSpaceOnUse" color-interpolation-filters="sRGB"><feFlood flood-opacity="0" result="BackgroundImageFix"/><feColorMatrix in="SourceAlpha" values="0 0 0 0 0 0 0 0 0 0 0 0 0 0 0 0 0 0 127 0" result="hardAlpha"/><feOffset/><feGaussianBlur stdDeviation="4"/><feComposite in2="hardAlpha" operator="out"/><feColorMatrix values="0 0 0 0 0.376471 0 0 0 0 0.745098 0 0 0 0 1 0 0 0 0.8 0"/><feBlend in2="BackgroundImageFix" result="effect1_dropShadow_2039_30299"/><feBlend in="SourceGraphic" in2="effect1_dropShadow_2039_30299" result="shape"/></filter><filter id="d" x="18.875" y="100.365" width="22" height="22" filterUnits="userSpaceOnUse" color-interpolation-filters="sRGB"><feFlood flood-opacity="0" result="BackgroundImageFix"/><feColorMatrix in="SourceAlpha" values="0 0 0 0 0 0 0 0 0 0 0 0 0 0 0 0 0 0 127 0" result="hardAlpha"/><feOffset/><feGaussianBlur stdDeviation="4"/><feComposite in2="hardAlpha" operator="out"/><feColorMatrix values="0 0 0 0 0.67451 0 0 0 0 0.85098 0 0 0 0 0.415686 0 0 0 0.8 0"/><feBlend in2="BackgroundImageFix" result="effect1_dropShadow_2039_30299"/><feBlend in="SourceGraphic" in2="effect1_dropShadow_2039_30299" result="shape"/></filter><filter id="e" x="92" y="7" width="21" height="21" filterUnits="userSpaceOnUse" color-interpolation-filters="sRGB"><feFlood flood-opacity="0" result="BackgroundImageFix"/><feColorMatrix in="SourceAlpha" values="0 0 0 0 0 0 0 0 0 0 0 0 0 0 0 0 0 0 127 0" result="hardAlpha"/><feOffset/><feGaussianBlur stdDeviation="4"/><feComposite in2="hardAlpha" operator="out"/><feColorMatrix values="0 0 0 0 0.376471 0 0 0 0 0.988235 0 0 0 0 0.890196 0 0 0 0.8 0"/><feBlend in2="BackgroundImageFix" result="effect1_dropShadow_2039_30299"/><feBlend in="SourceGraphic" in2="effect1_dropShadow_2039_30299" result="shape"/></filter><filter id="g" x="96" y="73" width="21" height="21" filterUnits="userSpaceOnUse" color-interpolation-filters="sRGB"><feFlood flood-opacity="0" result="BackgroundImageFix"/><feColorMatrix in="SourceAlpha" values="0 0 0 0 0 0 0 0 0 0 0 0 0 0 0 0 0 0 127 0" result="hardAlpha"/><feOffset/><feGaussianBlur stdDeviation="4"/><feComposite in2="hardAlpha" operator="out"/><feColorMatrix values="0 0 0 0 0.686275 0 0 0 0 0.690196 0 0 0 0 0.964706 0 0 0 0.8 0"/><feBlend in2="BackgroundImageFix" result="effect1_dropShadow_2039_30299"/><feBlend in="SourceGraphic" in2="effect1_dropShadow_2039_30299" result="shape"/></filter><filter id="p" x="7.125" y="26.992" width="21" height="21" filterUnits="userSpaceOnUse" color-interpolation-filters="sRGB"><feFlood flood-opacity="0" result="BackgroundImageFix"/><feColorMatrix in="SourceAlpha" values="0 0 0 0 0 0 0 0 0 0 0 0 0 0 0 0 0 0 127 0" result="hardAlpha"/><feOffset/><feGaussianBlur stdDeviation="4"/><feComposite in2="hardAlpha" operator="out"/><feColorMatrix values="0 0 0 0 0.972549 0 0 0 0 0.74902 0 0 0 0 0.101961 0 0 0 0.8 0"/><feBlend in2="BackgroundImageFix" result="effect1_dropShadow_2039_30299"/><feBlend in="SourceGraphic" in2="effect1_dropShadow_2039_30299" result="shape"/></filter><linearGradient id="h" x1="26.786" y1="74.986" x2="35.79" y2="42.42" gradientUnits="userSpaceOnUse"><stop offset=".26" stop-color="#48FF91"/><stop offset=".66" stop-color="#0094FF"/><stop offset=".8" stop-color="#0038FF"/><stop offset=".89" stop-color="#0500FF"/></linearGradient><linearGradient id="i" x1="35.123" y1="45.695" x2="26.814" y2="71.84" gradientUnits="userSpaceOnUse"><stop offset=".02" stop-color="#00F"/><stop offset=".08" stop-color="#0094FF"/><stop offset=".16" stop-color="#48FF91"/><stop offset=".42" stop-color="#0094FF"/><stop offset=".68" stop-color="#0038FF"/><stop offset=".9" stop-color="#0500FF"/></linearGradient></defs></svg>