<svg xmlns="http://www.w3.org/2000/svg" xmlns:xlink="http://www.w3.org/1999/xlink" viewBox="0 0 4680 3120"><defs><style>.cls-1{fill:none;}.cls-2,.cls-6{fill:#fff;}.cls-2{opacity:0;}.cls-3{fill:#edf1fd;}.cls-4{fill:#6bd8b9;}.cls-5{opacity:0.7;}.cls-7{fill:#683da6;}.cls-8{fill:#ad64f3;}.cls-9{fill:#efe3ff;}.cls-10{fill:#dbc0f9;}.cls-11{opacity:0.5;}.cls-12{fill:#fca15e;}.cls-13{fill:#ff8548;}.cls-14{fill:#ffe984;}.cls-15{opacity:0.3;}.cls-16{fill:#f5ae9a;}.cls-17{fill:#854b25;}.cls-18{fill:#c17b53;}.cls-19{fill:#512913;}.cls-20{fill:#1f2970;}.cls-21{clip-path:url(#clip-path);}.cls-22{fill:#0e1747;}.cls-23{fill:#4555aa;}.cls-24{fill:#5569bf;}.cls-25{fill:#f1f1f1;}.cls-26{fill:#f5705d;}.cls-27{clip-path:url(#clip-path-2);}.cls-28{fill:#e54c3c;}.cls-29{fill:#1e0c33;}.cls-30{clip-path:url(#clip-path-3);}.cls-31{fill:#3f3056;}.cls-32{clip-path:url(#clip-path-4);}.cls-33{fill:#dd8c79;}.cls-34{fill:#ffc9bd;}.cls-35{fill:#f27864;}.cls-36{fill:#da8775;}.cls-37{fill:#6b260e;}.cls-38{fill:#f46f5c;}.cls-39{fill:#fed150;}.cls-40{fill:#f3a43d;}.cls-41{opacity:0.4;}.cls-42{clip-path:url(#clip-path-5);}.cls-43{fill:#58b69b;}.cls-44{opacity:0.6;}.cls-45{fill:#3c997c;}.cls-46{fill:#3d4d9b;}.cls-47{clip-path:url(#clip-path-6);}.cls-48{fill:#aa5f39;}.cls-49{fill:#d69472;}.cls-50{fill:#e8a989;}.cls-51{clip-path:url(#clip-path-7);}.cls-52{clip-path:url(#clip-path-8);}.cls-53{fill:#382b49;}.cls-54{clip-path:url(#clip-path-9);}.cls-55{clip-path:url(#clip-path-10);}</style><clipPath id="clip-path"><path class="cls-1" d="M1346.37,1445.74,1217.53,2477.62l184.79-18.91L1520.82,1743l28.84,719.14,161.45-4.81-38.34-1032.6S1359.29,1342.26,1346.37,1445.74Z"/></clipPath><clipPath id="clip-path-2"><path class="cls-1" d="M1604.3,1027.34l64.83,22a133.11,133.11,0,0,1,62.13,44.1l129.13,165.27,130.27-74,71.36,74.17-95,100.92c-21.12,54.09-113,71.73-160.86,38.84l-106.13-73-20.41,127s72.53,62-8.63,62H1326.82a14.71,14.71,0,0,1-14.41-17.66l91.51-446.54,77.95-23.38Z"/></clipPath><clipPath id="clip-path-3"><path class="cls-1" d="M1683.47,816.1c-3.19-22.13-18.47-43.66-40.31-48.45-8.24-1.81-16.8-1.19-25.23-.83-14.16.6-28.6.43-42.12-3.79-9.09-2.83-17.55-7.41-26.65-10.16-17.36-5.24-36.59-2.84-52.65,5.5a40.87,40.87,0,0,0-3.25-5.93c-14.91-22.64-44.19-31.88-71.3-31.38-24.64.46-50.1,8.31-67.1,26.15s-23.3,46.82-10.75,68c5.35,9,13.48,16,20.5,23.83s13.25,17.27,13.32,27.77c.11,14.26-11.16,26.19-23.48,33.37s-26.32,11.29-38.11,19.32-21.44,21.9-18.36,35.83c2.78,12.55,15.1,21,27.6,24s25.57,1.79,38.41,2.27c4.11.16,8.67.71,11.33,3.84,1.76,2.09,2.31,4.95,2.43,7.69.46,10.64-5.26,21.12-14,27.12a266.54,266.54,0,0,0,28.37-16.41c8.21-5.46,16.39-11.69,20.88-20.46s4.26-20.69-3-27.33c-6.08-5.54-16.65-7.76-17.84-15.9a12.17,12.17,0,0,1,2-8c4.2-6.73,12.17-10.13,19.94-11.73s15.82-1.8,23.4-4.13a53.43,53.43,0,0,0,17-9.17,142.74,142.74,0,0,0,7.91,21.93c2.44,5.33,5.35,10.7,10.09,14.14,7.66,5.56,18,4.78,27.45,3.76l31.69-3.43c6.85-.74,13.83-1.52,20.08-4.41s11.75-8.32,12.85-15.12c.85-5.19-.35-11.8,4.09-14.62,1.68-1.07,3.77-1.22,5.75-1.34,26.5-1.6,54.39-3.76,76.42-18.57C1674.31,873.72,1687.5,844,1683.47,816.1Z"/></clipPath><clipPath id="clip-path-4"><path class="cls-1" d="M1504.85,1022.86c4-14.47,11.92-35,12.14-41.52.15-4.36.15-12.52.09-19.88-10,1.65-21.7-2.26-30.52-11.25-13.1-13.34-14.92-32.8-4.07-43.45,6.72-6.59,16.72-8.26,26.48-5.4l-1.49-11s59,2.53,88.1-69.49c31.21-3.78,56.17,23.53,56.17,23.53l2.3,71.5c.64,19.89-7,39.36-21.79,52.7A60.35,60.35,0,0,1,1607,982.54a66.17,66.17,0,0,1-22.14,1.87l6.69,31.25,16.69,15.25,8.57,47.38-90.64,16.4-41.87-68.11Z"/></clipPath><clipPath id="clip-path-5"><path class="cls-1" d="M1403.92,1050.42c-37.42,11.39-69.08,35-118,90.82s-153.73,159.21-100.16,245.22c62.75,100.73,297-34,385.67-103l-46.05-86.92-149.08,43.75h0a221,221,0,0,0,30-181.28Z"/></clipPath><clipPath id="clip-path-6"><path class="cls-1" d="M3364.32,1995.16c2.22-108.16-36.79-490.51-41.13-490.39l-223.08,2L2916,1449.69c-27.55,196.9-50.74,384.15-60.45,541.54l33,538.17,185.67,51.12-13.63-583.93,24.92-201.41h20.8c18.85,94.85,38.05,183.92,49.12,214.33,10.09,27.73,61,510,61,510l185.19,86.5S3362.74,2072,3364.32,1995.16Z"/></clipPath><clipPath id="clip-path-7"><path class="cls-1" d="M2912,1388.36l-.28,6.4c.08,1.27-27.46,149.51-2.36,157.87,37.65,12.55,173.39-28.4,235.39,7s189.73-10.45,193.16-10.45-17-51.58.12-57,8.33-41.55,3.76-60.95-20.64-12.06-26.35-42.86-3.42-150.61,1.14-186,11.41-135.77-9.12-180.27c-13.76-29.82-33.68-38.22-45.32-40.52h0a37.74,37.74,0,0,0-9.18-.83c2-.18,15.13-1.89,7.74-14.55-8-13.7-16-22.82-16-27.39,0-4.08,14.56-26.33,10.36-44.22a24.1,24.1,0,0,0-2.37-6.21c-10.27-18.5-30.8-32.86-70.74-11.15S3111,900,3111,900s-107-26.24-118.31,10.27c-5.41,17.52.64,23.62-.28,26.72-.66,2.21-4.83,2.9-19.19,5.13-7.53,1.17-30.49,22.44-44.59,24.88C2849.85,980.66,2912,1388.36,2912,1388.36Z"/></clipPath><clipPath id="clip-path-8"><path class="cls-1" d="M2983.37,785.25c-18.11-17.8-31.73-41.48-32.51-66.87a76,76,0,0,1,79.66-78.27,183.3,183.3,0,0,0-22.19,18.4c17.74-7.23,35.61-14.5,54.41-18.2s38.79-3.63,56.55,3.55c14.53,5.88,27.05,16.26,42,21a60.85,60.85,0,0,0,47.84-5,62.42,62.42,0,0,1-12.07,20.59c4.66,1.68,5.68,9.11,1.64,12a23.76,23.76,0,0,0,9.41-6.83c11.07,23.34,13.5,50.15,10.09,75.76-1.08,8.11-2.74,16.21-6,23.71-6.59,15.14-19.34,26.89-33.41,35.54a133.66,133.66,0,0,1-101.19,15.56c-16.05-4-31.19-11-46-18.48-7.77-3.92-16.2-8.83-18.62-17.2Z"/></clipPath><clipPath id="clip-path-9"><path class="cls-1" d="M2978.66,754.27s-2.88,73.76,6.56,95.16,29.55,53.09,48.74,52.94a224.12,224.12,0,0,0,24.53-1.25.53.53,0,0,1,.17,0,8.5,8.5,0,0,0,.86-.12c.92-.1,1.52-.2,1.83-.26l.22,0-5.71,27.51L3025.51,941s24.38,38.43,46,39.59,83.31-63,83.31-63L3146.51,875l-.86-6c12.15,2.34,25.59-1.95,34.83-12.41,13.54-15.28,12.95-37.92-1.32-50.54s-36.81-10.51-50.34,4.77a39.52,39.52,0,0,0-6.73,10.65c-8.42-19.22-13.74-79.54-28.86-79.87-17.77-.37-26.08,19.61-51.11,17.44-23-2-.37-17.26,3.56-19.79C3039.94,742.67,2991.28,770.92,2978.66,754.27Z"/></clipPath><clipPath id="clip-path-10"><path class="cls-1" d="M3094.26,1432s-16.15-12.56-45-20.59-39.06,19.26-79.42,7.52-19.83,18.79-15.68,21.78,39.4,8.69,39.4,8.69-66.82,53.44-48.45,65.1,39.28,22,42.51,30.62,30.1,10.68,34.21,24.64,75.51-29.85,89.26-41.62S3094.26,1432,3094.26,1432Z"/></clipPath></defs><title>10</title><g id="_10" data-name="10"><rect id="_10-2" data-name="10" class="cls-2" width="4680" height="3120"/><path class="cls-3" d="M3699,908c-110-313.31-425.58-505.69-754.47-460L2625.9,492.38a697.81,697.81,0,0,1-276-16.95l-344-91.81A697.66,697.66,0,0,0,1340.6,556.46L1201.81,690.83C949.24,935.37,918,1329.6,1129,1610.82c115.61,154.12,243.69,324.82,361.17,481.4,222.79,296.92,639,367.4,947.18,160.42l461.35-309.89a697.79,697.79,0,0,1,188.75-89.17l153.47-46C3622.25,1693.3,3830.84,1283.64,3699,908Z"/><ellipse class="cls-3" cx="1430.32" cy="2597.13" rx="517.41" ry="108.11"/><ellipse class="cls-3" cx="3291.84" cy="2627.09" rx="517.41" ry="108.11"/><path class="cls-4" d="M3538.86,1846.22c92.84-12.41,197.76-32.24,247.45-111.64,29.91-47.78,32.48-108.69,19.42-163.53s-40.3-105.08-67.24-154.6a492.55,492.55,0,0,0-253.88-23.17c-26.76,4.66-54.34,12.18-74.3,30.62-31.08,28.72-35.71,77.17-25.39,118.21s32.89,77.76,49.54,116.67,27.36,83.48,12.82,123.22c9.3-58.38-29.44-112.31-64.9-159.6s-71.57-104.32-56.46-161.47c-44.55,11.69-89.56,25.41-127.19,52s-67.24,68.22-68.47,114.26c-1.35,50.09,30.32,95.4,67.3,129.21s80.5,60.31,114.89,96.76,59.37,87.52,47.05,136.09l-224.76-264.33c-63.71,54.83-71,154.75-39.9,232.83,30.23,75.87,92.36,131.77,131.1,201.88,43.17,78.13,128.24,45,199.79,38.33,47.39-4.43,94.84,5,142.34,8s98.32-1.54,136.61-29.8c56.13-41.42,68.29-118.93,76-188.27-14.61,38.32-59.34,57-100.33,58.09s-81.21-10.8-122.12-13.72-86.6,5.65-111.75,38c4.89-37,44.32-60.13,81.37-64.68s74.63,3.59,111.84.73c58.66-4.51,114.38-38.07,145.79-87.82s37.77-114.47,16.63-169.37C3740.29,1825.37,3635.38,1864.08,3538.86,1846.22Z"/><g class="cls-5"><path class="cls-6" d="M3740,1411.54a3,3,0,0,0-3.94,1.56c-59.66,137.48-121.35,279.64-196.83,414-84.42,150.28-174.37,269.37-275,364.06a3,3,0,0,0,4.11,4.37c101.08-95.12,191.4-214.67,276.12-365.49,75.63-134.65,137.38-277,197.1-414.57A3,3,0,0,0,3740,1411.54Z"/></g><g class="cls-5"><path class="cls-6" d="M3816.17,1814.12a3,3,0,0,0-4.16.84,269.65,269.65,0,0,1-145.71,107.93c-25.7,7.69-52.86,11.54-79.13,15.26-12.11,1.72-24.63,3.49-36.89,5.62-64.82,11.27-93.88,30.46-110.09,43.91a3,3,0,0,0,1.91,5.31,3,3,0,0,0,1.92-.69c15.69-13,43.88-31.59,107.28-42.62,12.17-2.11,24.65-3.88,36.71-5.59,26.49-3.75,53.88-7.63,80-15.46a275.4,275.4,0,0,0,149-110.35A3,3,0,0,0,3816.17,1814.12Z"/></g><g class="cls-5"><path class="cls-6" d="M3779.07,1994.15a3,3,0,0,0-4,1.56c-27.79,63.88-75.44,110.9-130.74,129-42.49,13.9-88.55,10.91-133.1,8-22.75-1.48-46.27-3-69.25-2.32a359.25,359.25,0,0,0-141.87,34.13,3,3,0,0,0,1.29,5.71,3,3,0,0,0,1.28-.29,353.08,353.08,0,0,1,139.48-33.55c22.69-.68,46.07.84,68.68,2.31,45.12,2.93,91.77,6,135.36-8.3,56.92-18.63,105.9-66.85,134.37-132.31A3,3,0,0,0,3779.07,1994.15Z"/></g><g class="cls-5"><path class="cls-6" d="M3408.16,1824.32c-10.48-19.23-27.27-33.85-43.5-48l-3.08-2.69c-37.89-33.11-80-73.93-104.67-125.6-12.11-25.31-19.06-52.69-20.1-79.18-1.12-28.46,4.76-55.36,17-77.79a3,3,0,1,0-5.27-2.87c-12.76,23.38-18.89,51.36-17.73,80.9,1.07,27.29,8.23,55.48,20.68,81.53,25.19,52.65,67.79,94,106.14,127.52l3.09,2.7c15.83,13.8,32.2,28.06,42.17,46.34,12.86,23.58,14.16,52.2,15.31,77.44,1.87,41,4.2,92.08-18.22,132.56a3,3,0,0,0,1.17,4.08,2.94,2.94,0,0,0,1.45.38,3,3,0,0,0,2.63-1.55c23.24-42,20.87-94,19-135.74C3423,1878.46,3421.68,1849.11,3408.16,1824.32Z"/></g><g class="cls-5"><path class="cls-6" d="M3234.43,2031.47c-7.3-7.77-14.85-15.81-22-23.78a642.14,642.14,0,0,1-124.19-207.19,3,3,0,0,0-5.64,2A648.32,648.32,0,0,0,3208,2011.7c7.19,8,14.76,16.08,22.09,23.87,32.3,34.39,65.7,69.94,78.85,114.76a3,3,0,0,0,2.88,2.16,3.12,3.12,0,0,0,.85-.12,3,3,0,0,0,2-3.73C3301.11,2102.45,3267.21,2066.36,3234.43,2031.47Z"/></g><g class="cls-5"><path class="cls-6" d="M3563.94,1608.91c-6.26-15.71-12.73-32-17.65-48.37a295.77,295.77,0,0,1,1.94-174.57,3,3,0,1,0-5.71-1.85,301.83,301.83,0,0,0-2,178.15c5,16.65,11.52,33,17.82,48.86,6,15.14,12.26,30.8,17.1,46.57,11.73,38.23,12.44,71.12,2.11,97.75a3,3,0,0,0,5.59,2.17c10.84-27.92,10.18-62.13-2-101.68C3576.29,1639.94,3570,1624.16,3563.94,1608.91Z"/></g><g class="cls-5"><path class="cls-6" d="M3798.55,1543.07a3,3,0,0,0-3.9,1.68c-25.05,62.73-78.26,112.94-142.34,134.32-1.77.6-3.57,1.18-5.38,1.77-16.17,5.25-34.5,11.2-43.73,26.51a3,3,0,1,0,5.13,3.1c8.08-13.39,24.54-18.74,40.45-23.9l5.43-1.78c65.73-21.94,120.31-73.45,146-137.8A3,3,0,0,0,3798.55,1543.07Z"/></g><path class="cls-4" d="M3432.56,1099.06c-33.68-1.65-71.54-2.73-96.16,20.31,14.14-19.56,38.62-28.74,62.33-33.3s48.27-5.63,71-13.86,44.11-25.9,47.75-49.76c2.34-15.32-2.91-30.76-9.26-44.9A281,281,0,0,0,3416.12,865c-32,3.09-64.45,6.27-94.54,17.62s-58,32-71.08,61.41c-21.65,48.85,2.5,104.77,26.29,152.61-39.27-39.91-54.49-101.85-38.18-155.42A108.17,108.17,0,0,0,3169,1100.11c10.53,18.5,26.39,33.66,36.07,52.62s11.35,45-4.57,59.12c7.27-22.23-3.28-46.57-17.72-65s-32.93-33.59-45.5-53.32-18-46.83-4.6-66c-30.32,25.77-63.06,56.28-64.71,96-1.12,27.13,13,52.59,29.56,74.08s36.2,40.91,49.24,64.73c19.69,36,31.22,86.73,81.94,82.17,45.51-4.09,91.78,7.42,137.29-2.53,46.84-10.24,91.72-45.61,97.28-93.24l-196.72-21.78c19-21.33,51.14-25.84,79.35-21.23s54.64,16.7,82.43,23.38,59.32,7.17,82.56-9.47c21.37-15.29,31.6-42.6,32.13-68.86s-7.37-51.92-16.08-76.71C3504.72,1099.56,3466.24,1100.71,3432.56,1099.06Z"/><g class="cls-5"><path class="cls-6" d="M3418.64,861.59a3,3,0,0,0-4.14.91c-46,72.22-93.52,146.89-133,225.7-44.28,88.34-72,169.34-84.65,247.63a3,3,0,0,0,2.49,3.44,3.88,3.88,0,0,0,.48,0,3,3,0,0,0,3-2.52c12.58-77.68,40.08-158.11,84.08-245.9,39.37-78.54,86.82-153.08,132.72-225.16A3,3,0,0,0,3418.64,861.59Z"/><path class="cls-6" d="M3219.07,1102.59c-6.61-13.56-13.45-27.59-18-42.1A153.36,153.36,0,0,1,3205.5,958a3,3,0,0,0-5.55-2.28,159.48,159.48,0,0,0-4.6,106.54c4.68,15,11.62,29.18,18.33,42.94,3,6.23,6.19,12.68,9.06,19.09,11.52,25.62,15.84,45.26,14,63.66a3,3,0,0,0,2.69,3.28l.3,0a3,3,0,0,0,3-2.71c1.19-12.11,1-32.2-14.52-66.71C3225.3,1115.36,3222.13,1108.87,3219.07,1102.59Z"/><path class="cls-6" d="M3174.51,1232.46c-7.05-11.13-15.31-21.78-23.29-32.08-15.52-20-31.58-40.74-38.51-65-9-31.56-2.07-68.72,19.05-101.95a3,3,0,0,0-5.07-3.22c-22,34.68-29.23,73.61-19.75,106.82,7.25,25.4,23.67,46.57,39.54,67,7.9,10.2,16.06,20.73,23,31.62a200.19,200.19,0,0,1,28.52,76.15,3,3,0,0,0,3,2.54l.46,0a3,3,0,0,0,2.51-3.42A206.3,206.3,0,0,0,3174.51,1232.46Z"/><path class="cls-6" d="M3538.59,1116a3,3,0,0,0-4,1.29c-12.94,25-40.69,43-74.22,48-32.08,4.79-64.65-2-92.27-9.32l-2.26-.6c-12-3.18-24.36-6.47-37-5.26-16.33,1.56-30.76,10.39-43.5,18.17-20.49,12.53-46,28.13-58.56,52.84a3,3,0,0,0,1.31,4,3,3,0,0,0,1.36.33,3,3,0,0,0,2.67-1.64c11.81-23.21,36.51-38.31,56.35-50.45,12.18-7.45,26-15.89,40.94-17.32,11.6-1.1,23.45,2,34.92,5.09l2.27.6c28.21,7.45,61.53,14.4,94.69,9.45,35.43-5.29,64.84-24.42,78.66-51.18A3,3,0,0,0,3538.59,1116Z"/><path class="cls-6" d="M3442,1293.71a365,365,0,0,1-137.11,7.47c-6-.83-12.23-1.83-18.23-2.79-27.11-4.37-55.15-8.89-81.6-.45a3,3,0,1,0,1.82,5.72c25.09-8,52.41-3.6,78.83.65,6,1,12.27,2,18.37,2.82a365.33,365.33,0,0,0,49.69,3.37,370.17,370.17,0,0,0,89.68-11,3,3,0,1,0-1.45-5.82Z"/><path class="cls-6" d="M3494.51,943.84a3,3,0,0,0-4.22.52,167.37,167.37,0,0,1-81.25,56.25c-9.27,2.89-19,5-28.39,7.08-9.17,2-18.65,4.09-27.84,6.89-22.85,7-39.46,17.77-49.36,32.05a3,3,0,0,0,4.93,3.42c9.12-13.14,24.66-23.15,46.19-29.73,8.95-2.74,18.31-4.79,27.37-6.77,9.52-2.08,19.37-4.24,28.89-7.22A173.41,173.41,0,0,0,3495,948.05,3,3,0,0,0,3494.51,943.84Z"/><path class="cls-6" d="M3337.82,876a3,3,0,0,0-4.17.8A139,139,0,0,0,3315,990.86q.43,1.56.9,3.15c2.58,8.94,5.24,18.19,1.69,25.85a3,3,0,0,0,1.46,4,3.14,3.14,0,0,0,1.26.27,3,3,0,0,0,2.73-1.73c4.49-9.7,1.37-20.51-1.38-30-.3-1-.59-2.08-.88-3.1a132.91,132.91,0,0,1,17.84-109.11A3,3,0,0,0,3337.82,876Z"/></g><path class="cls-4" d="M1513.67,1626.07q-80.19,142.35-160.37,284.71c-20.11-42.7-6.17-94.4,19.08-134.27s60.73-72.17,88.86-110.07,49.27-85.46,39-131.53c-9.4-42.34-44.26-75.55-83.81-93.35s-83.63-22.4-126.91-25.22c24.22,50.13,1.07,109.32-23.23,159.41S1215.9,1682.65,1235,1735c-20.57-34.14-18.67-77.27-10.25-116.22s22.68-77,24.86-116.75-10.79-83.75-44.68-104.73c-21.75-13.47-48.6-15.48-74.18-15a463.82,463.82,0,0,0-230.56,67c-16,50.61-32.19,102-34.43,155s11.06,108.9,47.29,147.71c60.19,64.48,160.75,64,248.81,58.81-86,33.83-190,16.86-260.78-42.58-9.69,54.56,7.8,113.26,45.76,153.61s95.5,61.39,150.54,55c34.92-4,68.2-18.3,103.27-20.74s75.68,11.87,86.84,45.2c-29.07-25.43-72.86-25.16-110.15-15.13s-72.33,28.29-110.43,34.6-82.8-2.9-103.19-35.71c19.53,62.73,44.68,132.21,104,160.43,40.48,19.26,88.27,14.32,131.65,3s85.56-28.49,130.16-32.9c67.36-6.64,152,8.7,177.84-71.28,23.24-71.77,70.65-134.6,85-210.16C1607.1,1756.4,1582.41,1665.34,1513.67,1626.07Z"/><g class="cls-5"><path class="cls-6" d="M1477.67,2080.27c-110-69.48-214.53-163.43-319.52-287.22-93.89-110.69-176.42-231-256.24-347.44A3,3,0,1,0,897,1449c79.9,116.52,162.52,237,256.61,347.93,105.4,124.26,210.36,218.6,320.89,288.41a3,3,0,0,0,1.6.47,3,3,0,0,0,1.61-5.54Z"/><path class="cls-6" d="M1278.51,1923.68c-17.42-9.53-47.76-22.1-109.75-20.86-11.71.23-23.61.83-35.11,1.42-25,1.27-50.75,2.58-75.88.08-57.37-5.71-113.49-32.54-154-73.59a3,3,0,1,0-4.27,4.21,259.6,259.6,0,0,0,157.65,75.35c25.58,2.55,51.6,1.22,76.77-.06,11.46-.58,23.31-1.19,34.93-1.41,29-.57,71.62.9,106.75,20.13a3,3,0,0,0,2.88-5.27Z"/><path class="cls-6" d="M1439.66,2062.05a338.45,338.45,0,0,0-137.37-6.11c-21.37,3.49-42.85,9.13-63.62,14.58-40.65,10.66-82.68,21.69-124.42,16.46-54.33-6.8-106.77-41.7-143.89-95.74a3,3,0,0,0-5,3.4c38.09,55.45,92.07,91.28,148.09,98.29a184.42,184.42,0,0,0,23,1.39c35.11,0,69.9-9.12,103.74-18,20.64-5.41,42-11,63.07-14.45a332.44,332.44,0,0,1,134.91,6,3,3,0,0,0,1.49-5.81Z"/><path class="cls-6" d="M1366.13,1427.56a3,3,0,0,0-4.62,3.82c15.32,18.52,25.57,42.31,29.64,68.79,3.78,24.65,2.27,51.18-4.38,76.74-13.57,52.17-45.13,97.43-74.21,134.83l-2.37,3c-12.48,16-25.38,32.54-31.63,52.22-8.06,25.39-4,52.79-.47,77,5.74,39,12.87,87.51,41.92,122.18a3,3,0,0,0,2.31,1.07,3,3,0,0,0,2.29-4.93c-28-33.37-35-81-40.58-119.19-3.47-23.53-7.39-50.2.25-74.27,5.93-18.66,18.49-34.77,30.64-50.35l2.38-3c29.45-37.88,61.43-83.77,75.28-137,6.85-26.34,8.41-53.72,4.5-79.16C1392.84,1471.7,1382.14,1446.91,1366.13,1427.56Z"/><path class="cls-6" d="M1573.48,1685.12a3,3,0,0,0-3.43,2.5,604.77,604.77,0,0,1-77.62,213.77c-5.18,8.64-10.72,17.43-16.07,25.92-24.06,38.16-48.93,77.62-53.19,122.8a3,3,0,0,0,2.71,3.27l.28,0a3,3,0,0,0,3-2.72c4.13-43.76,28.61-82.6,52.29-120.17,5.38-8.52,10.93-17.33,16.15-26a610.83,610.83,0,0,0,78.4-215.91A3,3,0,0,0,1573.48,1685.12Z"/><path class="cls-6" d="M1101.79,1596.94c3-15.78,6.07-32.09,7.71-48.39a284.45,284.45,0,0,0-33.81-164.45,3,3,0,0,0-5.25,2.91A278.41,278.41,0,0,1,1103.53,1548c-1.61,16-4.67,32.22-7.64,47.87-2.88,15.2-5.85,30.91-7.52,46.6-4.13,38.78,1.4,70.56,16.45,94.46a3,3,0,1,0,5.07-3.2c-14.3-22.73-19.54-53.22-15.56-90.63C1096,1627.6,1098.93,1612,1101.79,1596.94Z"/><path class="cls-6" d="M1032.26,1677.07l-5.29-.67c-63-8.27-121.18-45.12-155.57-98.57a3,3,0,0,0-5,3.25c35.33,54.92,95.09,92.78,159.84,101.27l5.34.67c15.61,1.92,31.75,3.91,41.57,14.79a3,3,0,0,0,2.23,1,3,3,0,0,0,2-.77,3,3,0,0,0,.22-4.24C1066.23,1681.24,1048.18,1679,1032.26,1677.07Z"/></g><rect class="cls-7" x="1752.81" y="423.04" width="1184.92" height="2181.72" rx="220.75"/><rect class="cls-8" x="1760.77" y="439.37" width="1169" height="2142" rx="220.75"/><path class="cls-9" d="M2819.66,546.59A154.3,154.3,0,0,0,2803,535.2a163.13,163.13,0,0,0-59.65-21,168.94,168.94,0,0,0-24.51-1.79h-92.4l-28.79,61.3H2131.39l-24.75-41.34-11.93-20h-123c-85.57,0-155.55,63.92-155.55,142.07V2295.21c0,44.34,22.56,84.11,57.7,110.18a156.66,156.66,0,0,0,13.91,9.23,165,165,0,0,0,83.94,22.61h747.07c85.54,0,155.55-63.89,155.55-142V654.49C2874.36,611.43,2853.1,572.66,2819.66,546.59Z"/><path class="cls-10" d="M2626.42,512.42l-28.78,61.31H2131.38l-36.67-61.31h-123c-85.55,0-155.54,63.92-155.54,142.07V2280a164.85,164.85,0,0,0,24.52,1.81h747.08c85.55,0,155.54-63.94,155.54-142V514.2a169,169,0,0,0-24.52-1.78Z"/><path class="cls-6" d="M2628.93,2367.83l-741.12,46.8a165,165,0,0,0,83.92,22.61h747.08c85.55,0,155.54-63.91,155.54-142V1959.39l-38.11,222.16A224.74,224.74,0,0,1,2628.93,2367.83Z"/><path class="cls-6" d="M1753.16,1570.43c-.24,3-.37,5.31-.37,6.84Z"/><path class="cls-6" d="M1971.73,512.42c-85.55,0-155.54,63.92-155.54,142.07v470.58c21.32-141.91,43.82-288.62,60-393.65a224.7,224.7,0,0,1,169.44-184.3l61.06-14.72-11.94-20Z"/><g class="cls-11"><path class="cls-6" d="M2452.15,482.8h-246.6a18.49,18.49,0,0,0-18.43,18.44h0a18.49,18.49,0,0,0,18.43,18.44h246.6a18.49,18.49,0,0,0,18.43-18.44h0A18.49,18.49,0,0,0,2452.15,482.8Z"/></g><g class="cls-11"><path class="cls-6" d="M2529.93,479.35h0a22.47,22.47,0,0,0-22.47,22.47h0a22.47,22.47,0,0,0,22.47,22.47h0a22.47,22.47,0,0,0,22.46-22.47h0A22.47,22.47,0,0,0,2529.93,479.35Z"/></g><g class="cls-11"><rect class="cls-6" x="2177.44" y="2485.5" width="365.28" height="42.69" rx="19.05"/></g><rect class="cls-12" x="2576.13" y="1796.78" width="85.03" height="450.87"/><rect class="cls-12" x="2435.81" y="1867.48" width="85.03" height="380.17"/><rect class="cls-12" x="2295.29" y="1680.95" width="85.03" height="566.71"/><rect class="cls-12" x="2154.97" y="1792.94" width="85.03" height="454.71"/><rect class="cls-12" x="2014.65" y="1812.28" width="85.03" height="435.37"/><polygon class="cls-13" points="2203.05 1746.82 2188.2 1746.82 2188.2 1780.42 2154.97 1780.42 2154.97 1928.4 2188.2 1928.4 2188.2 1964.3 2203.05 1964.3 2203.05 1928.4 2240 1928.4 2240 1780.42 2203.05 1780.42 2203.05 1746.82"/><polygon class="cls-14" points="2203.05 1999.11 2188.2 1999.11 2188.2 2032.71 2154.97 2032.71 2154.97 2180.69 2188.2 2180.69 2188.2 2216.59 2203.05 2216.59 2203.05 2180.69 2240 2180.69 2240 2032.71 2203.05 2032.71 2203.05 1999.11"/><polygon class="cls-14" points="2062.73 1520.87 2047.88 1520.87 2047.88 1603.79 2014.65 1603.79 2014.65 1968.98 2047.88 1968.98 2047.88 2057.57 2062.73 2057.57 2062.73 1968.98 2099.68 1968.98 2099.68 1603.79 2062.73 1603.79 2062.73 1520.87"/><polygon class="cls-14" points="2343.37 1508.29 2328.53 1508.29 2328.53 1591.2 2295.29 1591.2 2295.29 1956.39 2328.53 1956.39 2328.53 2044.98 2343.37 2044.98 2343.37 1956.39 2380.32 1956.39 2380.32 1591.2 2343.37 1591.2 2343.37 1508.29"/><polygon class="cls-14" points="2624.21 1729.62 2609.37 1729.62 2609.37 1798.26 2576.13 1798.26 2576.13 2100.55 2609.37 2100.55 2609.37 2173.88 2624.21 2173.88 2624.21 2100.55 2661.16 2100.55 2661.16 1798.26 2624.21 1798.26 2624.21 1729.62"/><polygon class="cls-13" points="2483.89 1449.69 2469.05 1449.69 2469.05 1555.78 2435.81 1555.78 2435.81 2023.02 2469.05 2023.02 2469.05 2136.37 2483.89 2136.37 2483.89 2023.02 2520.84 2023.02 2520.84 1555.78 2483.89 1555.78 2483.89 1449.69"/><polygon class="cls-7" points="2435.73 1232.15 2046.34 1232.15 2046.34 1329.97 2435.73 1329.97 2435.73 1381.5 2611.36 1280.1 2435.73 1178.7 2435.73 1232.15"/><polygon class="cls-7" points="2221.97 914.39 2046.34 1015.79 2221.97 1117.19 2221.97 1065.66 2611.36 1065.66 2611.36 967.84 2221.97 967.84 2221.97 914.39"/><g class="cls-15"><path class="cls-6" d="M2743.32,515.12a170.47,170.47,0,0,0-24.51-1.78H2626.4l-28.78,61.3H2131.39l-24.75-41.34-11.93-20h-123c-85.56,0-155.55,63.92-155.55,142.07V2296.13c0,44.34,22.57,84.1,57.71,110.18L2819.66,547.5a155.8,155.8,0,0,0-16.7-11.38A163.16,163.16,0,0,0,2743.32,515.12Z"/></g><path class="cls-16" d="M1553.11,2445.87l16,132.37s100.22,89.18,141.1-15.88l-27.46-179.62Z"/><path class="cls-17" d="M1912.85,2654.26c-21-8.61-73.89-17-109-34.28-48.76-24-93.7-57.61-93.7-57.61s-18.14,32.63-65.69,33.55c-17.42.33-33.58-4.87-47.13-11.58v0c-.85-.41-1.7-.82-2.51-1.26l-2.45-1.32c-20.67-11.31-34.31-25.32-35.63-25.77-12,2.69-22.06,33.46-25.09,61-1.52,13.64-1.3,26.49,1.27,34.72,0,0,0,0,0,0a19.85,19.85,0,0,0,2.66,5.64c2.23,3.08,7.69,5.67,15.16,7.84,14.56,4.25,36.81,6.93,58,8.64,1.13.1,2.27.17,3.4.25a8.07,8.07,0,0,0,.81.07c8,.62,15.81,1.06,22.87,1.41h0c18.54.92,32.18,1.12,32.18,1.12l34.93,6.86,53.92,10.57,4,.8,4.93.21,80.52,3.29,7.49.3,3.2-.83,24.87-6.3h0l45-11.41a17.56,17.56,0,0,0,.74-2.82C1928.66,2672.07,1928.66,2660.68,1912.85,2654.26Z"/><path class="cls-6" d="M1791.51,2620.16a6.37,6.37,0,0,0-8.59,2.2,6,6,0,0,0,2.26,8.37,6.37,6.37,0,0,0,8.59-2.21A6,6,0,0,0,1791.51,2620.16Z"/><path class="cls-6" d="M1774.6,2610.56a6.37,6.37,0,0,0-8.59,2.2,6,6,0,0,0,2.26,8.37,6.38,6.38,0,0,0,8.59-2.2A6,6,0,0,0,1774.6,2610.56Z"/><path class="cls-6" d="M1757.69,2601a6.38,6.38,0,0,0-8.6,2.2,6,6,0,0,0,2.27,8.37,6.38,6.38,0,0,0,8.6-2.21A6,6,0,0,0,1757.69,2601Z"/><path class="cls-6" d="M1740.77,2591.36a6.38,6.38,0,0,0-8.59,2.2,6,6,0,0,0,2.27,8.37,6.38,6.38,0,0,0,8.6-2.2A6,6,0,0,0,1740.77,2591.36Z"/><path class="cls-6" d="M1723.86,2581.76a6.34,6.34,0,0,0-8.58,2.21,6,6,0,0,0,2.26,8.37,6.38,6.38,0,0,0,8.59-2.21A6,6,0,0,0,1723.86,2581.76Z"/><path class="cls-6" d="M1609.77,2636.58a97.29,97.29,0,0,1,.77,11.33l6,0a104.23,104.23,0,0,0-.81-12Z"/><path class="cls-6" d="M1607.05,2622.62a111.41,111.41,0,0,1,2.33,11.16l5.92-.87a116.66,116.66,0,0,0-2.43-11.74Z"/><path class="cls-6" d="M1592.38,2581.73l-2.58,1.49c2,3.32,3.94,6.71,5.7,10.07l5.35-2.65c-1.1-2.11-2.28-4.22-3.49-6.31Q1594.81,2583.06,1592.38,2581.73Z"/><path class="cls-6" d="M1607.11,2673.09l2.85.79,3.06.24c.78-2.72,1.43-5.5,2-8.28l-5.9-1C1608.56,2667.59,1607.89,2670.38,1607.11,2673.09Z"/><path class="cls-6" d="M1596.82,2595.85c1.74,3.49,3.35,7,4.76,10.49l5.57-2.16c-1.48-3.61-3.14-7.27-4.94-10.89Z"/><path class="cls-6" d="M1602.65,2609c1.4,3.62,2.62,7.28,3.65,10.85l5.77-1.57c-1.07-3.74-2.35-7.55-3.81-11.34Z"/><path class="cls-6" d="M1609.86,2659.74c-.09.76-.2,1.51-.31,2.27l5.93.86c.13-.81.23-1.62.33-2.42.39-3.14.63-6.37.71-9.58l-6-.13A86.43,86.43,0,0,1,1609.86,2659.74Z"/><path class="cls-18" d="M1927.7,2677.31a8.3,8.3,0,0,0-.71-.5c-5.33.64-75.64,9.64-146.34,2-42.41-4.6-110.85-12.75-164.73-19.27l-6-.71c-7.42-.91-14.54-1.75-21.2-2.56-29.42-3.58-50.46-6.18-53.47-6.58a23.94,23.94,0,0,0-2.33,2s0,0,0,0c-8.44,7.94-10.45,20.14-10.08,31.19,0,1.5.11,3,.25,4.45a99.88,99.88,0,0,0,4.34,21.4c1,.14,57.37,7.08,119.68,14.53,9.44,1.14,19,2.26,28.55,3.41,36.64,4.34,72.7,8.55,98.54,11.35,58.73,6.37,117.8,2.73,148,0C1934.08,2736.89,1949.73,2692.84,1927.7,2677.31Z"/><path class="cls-6" d="M1924.68,2685.86c-18.07,3.17-82,13-145.72,6.22-71.21-7.56-224.27-26.4-250.74-29.74q-1.12,2-2,4.17c13.63,1.73,81,10,147.22,17.91,39.22,4.65,78,9.15,105.09,12,64.31,6.82,128.77-3.07,147-6.26l.5-.09,9.18-1.76a30.72,30.72,0,0,0-1.94-4.09Z"/><path class="cls-6" d="M1923.38,2696.26c-18.07,3.17-82,13-145.72,6.22-69.35-7.35-222.54-26.16-253.56-30.05-.41,1.4-.77,2.83-1.08,4.28,18.43,2.31,84.06,10.39,148.06,18,40,4.74,79.29,9.3,106.1,12.13,64.31,6.82,128.77-3.07,147-6.26l.5-.08,13-2.16c-.19-1.47-.46-2.91-.77-4.32Z"/><path class="cls-6" d="M1922.08,2706.67c-18.07,3.15-82,13-145.72,6.21-36.09-3.81-94.65-10.71-147.26-17.05-46.74-5.6-88.77-10.8-106.24-13-.29-.05-.58-.06-.84-.11-.18,1.46-.3,2.92-.43,4.36.48,0,1,.11,1.52.2,18.55,2.31,62.05,7.66,109.76,13.4,11.73,1.39,23.72,2.85,35.67,4.25,40.44,4.79,80.21,9.41,107.34,12.27,64.3,6.83,128.77-3.06,147-6.26l.51-.07,14.68-2.47c0-1.49,0-3,0-4.43Z"/><g class="cls-11"><path class="cls-19" d="M1629.1,2695.83q-2.74-3.47-5.71-6.83c-1.47-1.69-3-3.33-4.48-4.95-2.2-2.38-4.45-4.69-6.76-7-1.09-1.1-2.2-2.2-3.35-3.28l-.37-.33c-.37-.38-.74-.74-1.12-1.1l-.37-.33c-5.82-5.48-11.93-10.74-18.2-15.77-9.81-8-20-15.4-30.32-22.47-8.65-5.94-17.52-11.76-26.75-16.86-1.52,13.64-1.3,26.49,1.27,34.72,0,0,0,0,0,0-8.44,7.94-10.45,20.14-10.08,31.19-.29-.05-.58-.06-.84-.11-.18,1.46-.3,2.92-.43,4.36.48,0,1,.11,1.52.2a99.88,99.88,0,0,0,4.34,21.4c1,.14,57.37,7.08,119.68,14.53a160.93,160.93,0,0,0-14.26-22.53C1631.66,2699.06,1630.39,2697.43,1629.1,2695.83Z"/></g><path class="cls-16" d="M1235.68,2420.72l.93,133.27s89.57,99.36,142.05-.69l-7.06-181.47Z"/><path class="cls-17" d="M1569.76,2666.3c-19.94-10.78-71.53-24.77-104.48-45.72-45.75-29.09-86.62-67.28-86.62-67.28s-21.71,30.51-69.08,26.32-80.55-48.11-82.68-49.1c-20,2.29-43.22,79.46-32.46,98.47s129.52,33.4,129.52,33.4l90.28,28.05,91.94,13.71,74.69-10.61S1589.7,2677.06,1569.76,2666.3Z"/><path class="cls-6" d="M1453,2619.44a6.4,6.4,0,0,0-8.79,1.27,6,6,0,0,0,1.3,8.56,6.38,6.38,0,0,0,8.79-1.27A6,6,0,0,0,1453,2619.44Z"/><path class="cls-6" d="M1437.27,2608.09a6.38,6.38,0,0,0-8.78,1.28,6,6,0,0,0,1.3,8.56,6.4,6.4,0,0,0,8.79-1.28A6,6,0,0,0,1437.27,2608.09Z"/><path class="cls-6" d="M1421.54,2596.74a6.39,6.39,0,0,0-8.79,1.28,6,6,0,0,0,1.31,8.56,6.41,6.41,0,0,0,8.8-1.28A6,6,0,0,0,1421.54,2596.74Z"/><path class="cls-6" d="M1405.81,2585.39a6.39,6.39,0,0,0-8.78,1.27,6,6,0,0,0,1.31,8.57,6.4,6.4,0,0,0,8.79-1.27A6,6,0,0,0,1405.81,2585.39Z"/><path class="cls-6" d="M1390.09,2574.05a6.37,6.37,0,0,0-8.78,1.27,6,6,0,0,0,1.3,8.56,6.4,6.4,0,0,0,8.79-1.27A6,6,0,0,0,1390.09,2574.05Z"/><path class="cls-6" d="M1270,2627.68l6,.59a103.32,103.32,0,0,0,.55-12l-6,.07A101,101,0,0,1,1270,2627.68Z"/><path class="cls-6" d="M1269.37,2602.17a111.28,111.28,0,0,1,1.07,11.34l6-.23a117,117,0,0,0-1.1-11.93Z"/><path class="cls-6" d="M1259.4,2560l-2.73,1.21c1.64,3.52,3.16,7.09,4.53,10.62l5.61-2.06c-.85-2.21-1.78-4.44-2.75-6.65Q1261.66,2561.54,1259.4,2560Z"/><path class="cls-6" d="M1263.74,2652.34l2.76,1.09,3,.57c1.07-2.63,2-5.32,2.88-8l-5.75-1.66C1265.81,2647,1264.83,2649.73,1263.74,2652.34Z"/><path class="cls-6" d="M1262.22,2574.47c1.34,3.66,2.54,7.33,3.55,10.93l5.78-1.55c-1.06-3.74-2.3-7.56-3.68-11.35Z"/><path class="cls-6" d="M1266.53,2588.17c1,3.75,1.79,7.52,2.41,11.18l5.91-.94c-.64-3.84-1.48-7.77-2.51-11.68Z"/><path class="cls-6" d="M1268,2639.36c-.18.75-.37,1.49-.57,2.23l5.8,1.48c.22-.79.41-1.58.6-2.37a91.93,91.93,0,0,0,1.78-9.44l-5.94-.77A89,89,0,0,1,1268,2639.36Z"/><path class="cls-18" d="M1581.27,2690.23c-5.37.07-76.25,1.51-145.67-13.66-74.87-16.37-232-53.12-240.62-55.19-24.08,14.25-14.44,57.85-14.44,57.85,1.11.26,74.23,17.38,145.33,33.69,35.91,8.23,71.31,16.26,96.67,21.8,57.65,12.61,116.78,15.3,147.07,15.78C1581.68,2750.7,1602.5,2707.71,1581.27,2690.23Z"/><path class="cls-6" d="M1578,2699c-18.32,1.21-83,4.12-145.53-9.4-69.94-15.12-220-50.22-245.88-56.37a45.74,45.74,0,0,0-2.51,3.92c13.35,3.18,79.36,18.65,144.31,33.55,38.47,8.82,76.55,17.44,103.1,23.18,63.16,13.65,128.34,10.71,146.82,9.49l.51,0,9.32-.77a31.23,31.23,0,0,0-1.46-4.28Z"/><path class="cls-6" d="M1575.49,2709.19c-18.32,1.21-83,4.12-145.53-9.4-68.1-14.72-218.25-49.8-248.65-57-.56,1.36-1.08,2.74-1.55,4.14,18,4.28,82.38,19.32,145.13,33.72,39.2,9,77.77,17.72,104.1,23.4,63.15,13.66,128.34,10.72,146.81,9.5l.51,0,13.12-.76c0-1.49-.13-2.94-.28-4.38Z"/><path class="cls-6" d="M1427.49,2710c-67.43-14.58-214.4-48.89-249.41-57.15-.34,1.43-.64,2.86-.9,4.3,21.37,5,83.43,19.54,144,33.44,39.65,9.1,78.67,17.93,105.3,23.69,63.15,13.65,128.34,10.71,146.82,9.49l.51,0,14.88-.87c.21-1.48.37-3,.5-4.42l-16.2.95C1554.71,2720.61,1490.07,2723.52,1427.49,2710Z"/><path class="cls-20" d="M1346.37,1445.74,1217.53,2477.62l184.79-18.91L1520.82,1743l28.84,719.14,161.45-4.81-38.34-1032.6S1359.29,1342.26,1346.37,1445.74Z"/><g class="cls-21"><path class="cls-22" d="M1419.31,2427.34c-82.69-14.79-129.65-69.62-129.65-69.62l-6.31-114.5s7.28-86.36,21.23-107.88,37.63-60.29,9.94-81,18-124.13,33.58-183,23.18-495.84,23.18-495.84l-143.5,54.17-19.69,329.76-62.69,753.88,279.31-2.36S1502,2442.12,1419.31,2427.34Z"/><polygon class="cls-22" points="1277.07 1648.27 1698.17 1493.63 1327.54 1439.71 1277.07 1648.27"/><path class="cls-22" d="M1731.83,2447.23C1627.37,2480.69,1567.39,2233,1567.39,2233s-15.13-100.05,8.76-130.63-6.72-50.66-8.54-96.35S1533,1688.75,1533,1688.75L1520.82,1743s-24.44,240.23-23.14,253.11l-.92,232.37,41.93,319.5,195.06,12.41S1836.3,2413.76,1731.83,2447.23Z"/><polygon class="cls-23" points="1637.93 1364.3 1708.4 2384.37 1700.86 1394.59 1637.93 1364.3"/></g><polygon class="cls-23" points="1542.56 2461.5 1542.7 2470.83 1543.96 2548.33 1725.85 2536.63 1714.43 2446.12 1542.56 2461.5"/><path class="cls-24" d="M1542.56,2461.5l.14,9.33c49.49,2.92,149.22,10,149.22,10l-68,23,64.5,11L1544,2548.33l181.89-11.7-11.42-90.51Z"/><polygon class="cls-23" points="1219.68 2421.59 1207.36 2517.29 1401.86 2522.25 1406.33 2437.08 1227.67 2422.26 1219.68 2421.59"/><polygon class="cls-24" points="1361.03 2458.55 1286.93 2465.66 1359.12 2486.96 1207.36 2517.29 1401.86 2522.25 1406.33 2437.08 1227.67 2422.26 1361.03 2458.55"/><g class="cls-11"><polygon class="cls-25" points="1520.21 1742.91 1521.42 1743.1 1561.01 1490.19 1557.05 1489.59 1520.21 1742.91"/></g><g class="cls-11"><path class="cls-25" d="M1540.42,1684.6c-2.5,1.83-4.84,2.55-7.15,2.18l-.63,4a12.13,12.13,0,0,0,1.8.14,14.16,14.16,0,0,0,8.35-3c33.68-24.62,61.11-202.81,62.27-210.38l-4-.6C1600.82,1478.69,1572.78,1661,1540.42,1684.6Z"/></g><path class="cls-26" d="M1860.39,1258.67,1731.26,1093.4a133.11,133.11,0,0,0-62.13-44.1l-64.83-22-122.43-.3-77.95,23.38L1312.41,1497a14.71,14.71,0,0,0,14.41,17.66H1671c81.16,0,8.63-62,8.63-62l20.41-127,106.13,73c47.84,32.89,139.74,15.25,160.86-38.84l95-100.92-71.36-74.17Z"/><g class="cls-27"><path class="cls-28" d="M1289.57,1416.34c6.37-3.83,408.55-55.22,408.55-55.22l1.93-35.44,11.06-125.37-399,118Z"/><polygon class="cls-28" points="1451.07 1007.39 1520.82 1117.19 1631.81 1094.68 1624.02 1015.79 1451.07 1007.39"/><path class="cls-28" d="M1671.31,1452.35l-106.56,16.85,113.45,7.25c9.75.62,18.21,7.58,20,17.18,1.3,7.08-1.11,14.93-14,20.26-29,12,20.24,29.62,20.24,29.62l48.73-66.36-64-83.56Z"/></g><path class="cls-29" d="M1643.16,767.65c-8.24-1.81-16.8-1.19-25.23-.83-14.16.6-28.6.43-42.12-3.79-9.09-2.83-17.55-7.41-26.65-10.16-17.36-5.24-36.59-2.84-52.65,5.5a40.87,40.87,0,0,0-3.25-5.93c-14.91-22.64-44.19-31.88-71.3-31.38-24.64.46-50.1,8.31-67.1,26.15s-23.3,46.82-10.75,68c5.35,9,13.48,16,20.5,23.83s13.25,17.27,13.32,27.77c.11,14.26-11.16,26.19-23.48,33.37s-26.32,11.29-38.11,19.32-21.44,21.9-18.36,35.83c2.78,12.55,15.1,21,27.6,24s25.57,1.79,38.41,2.27c4.11.16,8.67.71,11.33,3.84,1.76,2.09,2.31,4.95,2.43,7.69.46,10.64-5.26,21.12-14,27.12a266.54,266.54,0,0,0,28.37-16.41c8.21-5.46,16.39-11.69,20.88-20.46s4.26-20.69-3-27.33c-6.08-5.54-16.65-7.76-17.84-15.9a12.17,12.17,0,0,1,2-8c4.2-6.73,12.17-10.13,19.94-11.73s15.82-1.8,23.4-4.13a53.63,53.63,0,0,0,17-9.17,142.74,142.74,0,0,0,7.91,21.93c2.44,5.33,5.35,10.7,10.09,14.14,7.66,5.56,18,4.78,27.45,3.76l31.69-3.43c6.85-.74,13.83-1.52,20.08-4.41s11.75-8.32,12.85-15.12c.85-5.19-.35-11.8,4.09-14.62,1.68-1.07,3.77-1.22,5.75-1.34,26.5-1.6,54.39-3.76,76.42-18.57,23.41-15.74,36.6-45.44,32.57-73.36C1680.28,794,1665,772.44,1643.16,767.65Z"/><g class="cls-30"><path class="cls-31" d="M1659.24,832.12c-3.89-4.27-4.26-10.56-6-16.06-3.92-12.25-15.81-21.18-28.57-22.78s-25.9,3.64-35,12.68l3.76-3.84a31.69,31.69,0,0,0-34.26,0c-7.41,4.91-12.32,12.71-16.76,20.4s-8.77,15.72-15.49,21.52-16.57,9-24.67,5.33a48.94,48.94,0,0,0,42.5,3.42c-10.92,16.72-31.93,26.22-51.7,23.39-3.33-.47-6.82-1.26-10-.12-5.13,1.85-7.39,8.37-6,13.64s5.57,9.36,10,12.5c12.49,8.81,28.07,12,43.29,13.38,13.76,1.23,27.8,1.08,41.14-2.5s26-10.81,34.32-21.82c3.66-4.82,7-10.68,12.74-12.42a11.53,11.53,0,0,1,12.52,4.49c3.06,4.57,2.92,11.49,7.66,14.29a10.94,10.94,0,0,0,5.76,1.21c13-.18,23.81-10.41,30.48-21.58a83.42,83.42,0,0,0,11.69-44.36C1677.56,836.35,1665.81,839.32,1659.24,832.12Z"/><path class="cls-31" d="M1407.67,765.81c-11.5,3.11-22.85,9.68-27.93,20.47-6.15,13.08-1.33,29.26,8.17,40.16,6.61,7.58,15.28,13.32,20.95,21.62a39,39,0,0,1,4.29,35c-5.34,14.39-18.65,24.16-32,31.8s-27.67,14.28-37.91,25.7c-7.22,8.05-11.62,21.38-4,29.09a20.9,20.9,0,0,0,8.39,4.76c12.16,4.11,26.29,3.4,36.58,11.08a12.59,12.59,0,0,1,4.72,5.85c1.48,4.5-1.13,9.25-3.78,13.18a181.49,181.49,0,0,1-22.91,27.56c19.4-18.62,47.87-24.46,69.36-40.63,4.21-3.16,8.22-6.83,10.62-11.52,5.91-11.55.64-25.46-5-37.16-.86-1.78-1.75-3.67-1.64-5.64.31-5.74,7.78-7.6,13.52-7.86l9.43-7.73c-16.34-43.41-28.53-94.31,21.26-132.26C1462.1,765.77,1436.07,758.14,1407.67,765.81Z"/></g><path class="cls-16" d="M1651.75,844.45s-25-27.31-56.17-23.53c-29.11,72-88.1,69.49-88.1,69.49l1.49,11c-9.76-2.86-19.76-1.19-26.48,5.4-10.85,10.65-9,30.11,4.07,43.45,8.82,9,20.51,12.9,30.52,11.25.06,7.36.06,15.52-.09,19.88-.22,6.51-8.17,27-12.14,41.52l-20.58,3.72,41.87,68.11,90.64-16.4-8.57-47.38-16.69-15.25-6.69-31.25a66.17,66.17,0,0,0,22.14-1.87,60.35,60.35,0,0,0,25.29-13.89c14.76-13.34,22.43-32.81,21.79-52.7Z"/><g class="cls-32"><path class="cls-33" d="M1594.33,787.55c-29.35-1.82-58.55,9.2-82.27,26.59l-10.86,73c27.9,8.13,59.87.34,80.9-19.72,5.79-5.52,10.76-11.84,16.51-17.4a15.24,15.24,0,0,1,5.41-3.78c4-1.39,8.32.35,12,2.34,9,4.83,17.25,11.37,27.1,14.06s22.33,0,26.5-9.35c3.15-7,.59-15.27-3-22.06C1652.75,805.3,1623.68,789.37,1594.33,787.55Z"/><path class="cls-34" d="M1489.35,947c-7.12-8.28-10.72-20.89-7.24-31.7,2.88-8.95,11.26-15.53,19.53-15.27l-44.19-9.27c-5.62,4-8.5,11.74-8.64,19.2s2.08,14.73,4.8,21.55c5.5,13.8,13.61,27,25.52,34.15s28.15,6.66,37.59-4.15C1506.58,959.7,1496.48,955.29,1489.35,947Z"/><path class="cls-34" d="M1514.55,1054a93.16,93.16,0,0,1-2.59-13.29c-.75-5.16-1.49-10.4-.75-15.57.71-4.93,2.74-9.56,4.3-14.3a77.46,77.46,0,0,0,1.48-43.18l-67.5,51.43q8.29,26.37,19.19,51.83c2.38,5.58,5,11.31,9.6,15.28,3.91,3.36,8.89,5.15,13.76,6.86l52.19,18.4-21.84-40.28C1519.39,1065.63,1516.36,1060,1514.55,1054Z"/></g><path class="cls-35" d="M1544.09,903.59a17.88,17.88,0,1,0,22.63,11.3A17.89,17.89,0,0,0,1544.09,903.59Z"/><path class="cls-36" d="M1510,922.59a14.91,14.91,0,0,0-10.1-2.89,14.58,14.58,0,0,0-9.09,4.15,24,24,0,0,1,9.09-1,15.58,15.58,0,0,1,7.77,3,29.94,29.94,0,0,1,6.16,6.29c1.85,2.45,3.52,5.12,5.39,7.83a27.26,27.26,0,0,0-2.72-9.48A21.28,21.28,0,0,0,1510,922.59Z"/><path class="cls-36" d="M1503.22,926.39a7.57,7.57,0,0,0-3.82,4.81,9.15,9.15,0,0,0,.54,5.89,9.53,9.53,0,0,0,3.49,4.24c-.16-1.85-.37-3.48-.45-5a13,13,0,0,1,.29-4.09,7.8,7.8,0,0,1,1.82-3.31,42,42,0,0,1,3.64-3.32A8.28,8.28,0,0,0,1503.22,926.39Z"/><path class="cls-33" d="M1545.21,963.88c3.14,32.4,28.55,41.24,45.18,43.51l-5.56-23S1558.8,979.15,1545.21,963.88Z"/><path class="cls-6" d="M1615.05,938.6c-5.43,1.41-15,4.69-25,.56-13.37-5.48-1.28,22.38,15.19,17,11-3.62,13.1-11.27,13.26-14.79A2.73,2.73,0,0,0,1615.05,938.6Z"/><path class="cls-37" d="M1542.27,878.41s0,0,0-.08S1542.25,878.4,1542.27,878.41Z"/><path class="cls-37" d="M1563.51,858.34c-19.61,5.88-21,18.93-21.21,20,1.09-1.14,26.45-13.53,41.32-11.48C1583.79,867.12,1584.69,853.05,1563.51,858.34Z"/><path class="cls-37" d="M1622.37,852.45c-9.78,3.47-1.95,10.14-2,9.95,3.78-5.27,18.73-6.44,19.69-6.19C1639.38,855.75,1631.94,849.72,1622.37,852.45Z"/><path class="cls-37" d="M1640,856.21l0,0S1640.06,856.22,1640,856.21Z"/><path class="cls-37" d="M1576.55,882c-3.65.58-5.91,5.41-5,10.79s4.51,9.27,8.16,8.68,5.91-5.41,5-10.79S1580.19,881.45,1576.55,882Z"/><path class="cls-37" d="M1630.39,875.66c-3.65.58-5.91,5.42-5.05,10.79s4.52,9.27,8.17,8.68,5.91-5.41,5-10.79S1634,875.08,1630.39,875.66Z"/><path class="cls-33" d="M1621,910.05l-24.3,10.62c-1.69.73-.86,2.29,1.13,2.13l19.73-1.58a2.17,2.17,0,0,0,1.76-.91l4.57-9C1624.47,910.18,1622.56,909.38,1621,910.05Z"/><path class="cls-6" d="M1859.41,1169l10.3-31.24-21.34-7-9.75,29.55c-3-1.09-6.19-2.18-9.54-3.28-4.91-1.63-9.93-3.18-14.89-4.64l9.78-29.67-21.34-7-10.17,30.83a223.7,223.7,0,0,0-23.93-4.74l-66.48,201.57c5.39,2.73,12.83,6.12,22.24,9.87l-8.85,26.83,21.34,7,8.61-26.1c1.7.58,3.42,1.17,5.2,1.75,6.84,2.26,13.28,4.16,19.37,5.75l-8.78,26.64,21.34,7,9.59-29.08c18.52,2.73,32.86,1.58,44.18-2.68,16-6.19,29.24-18,35.37-36.61,8.73-26.49-2.54-49.81-23.56-63.83l.2-.6c25.62-1,41.76-14.6,47.78-32.84,6.13-18.58.56-36-11-48.22C1878.34,1180.51,1870.24,1174.47,1859.41,1169Zm-35.19,147.06c-7.13,21.62-28.06,23.51-48.77,16.68-7.83-2.58-13.22-4.36-17.52-6.47l19.08-57.84,15.62,5.15C1815.44,1281.11,1831.05,1295.37,1824.22,1316.07Zm24-88.94c-5,15.21-21.25,21-45.25,13.08l-15-5,15.76-47.8a129.22,129.22,0,0,1,19.91,5.21C1844.36,1199.5,1853.36,1211.58,1848.23,1227.13Z"/><path d="M1824.26,1190.77c-10.73-3.54-16.68-4.72-20.22-5.29l-1.68-.27-16.93,51.32,16.92,5.58a65.57,65.57,0,0,0,20.27,3.62,36.4,36.4,0,0,0,10.69-1.48,24.69,24.69,0,0,0,16.82-16.5c2.75-8.33,1.78-15.83-2.88-22.29C1842.78,1199.26,1835,1194.32,1824.26,1190.77Zm22.07,35.73a20.59,20.59,0,0,1-14.19,13.93c-7.49,2.3-17.36,1.56-28.54-2.12l-13.12-4.33,14.6-44.26a135.76,135.76,0,0,1,17.93,4.84c10,3.29,17,7.74,21,13.24S1848.66,1219.45,1846.33,1226.5Z"/><path d="M1793.25,1271.69l-17.51-5.78-20.25,61.4,1.56.77c4.42,2.16,10,4,17.74,6.56l.66-1.89.6-1.91c-6.91-2.28-11.76-3.88-15.66-5.62l17.9-54.26,13.71,4.53c34.14,11.26,33.65,29.86,30.33,40-8.24,25-35.09,19.09-46.25,15.41l-.63,1.9-.63,1.9h0a66.38,66.38,0,0,0,20.56,3.69c15.23,0,26-7.42,30.74-21.64C1832.58,1297.11,1820.6,1280.71,1793.25,1271.69Z"/><path d="M1861.84,1168l10.4-31.51-25.14-8.29-9.74,29.5c-2.45-.87-5-1.75-7.65-2.61-4.13-1.36-8.48-2.73-13-4.07l9.77-29.62-25.14-8.29-10.22,31a209.59,209.59,0,0,0-22.37-4.35l-1.63-.2-67.53,204.76,1.54.78c4.08,2.06,10.9,5.29,20.65,9.23l-8.89,27,25.14,8.29,8.6-26.07,3.31,1.1c6,2,11.86,3.74,17.44,5.24l-8.75,26.53,25.14,8.29,9.69-29.39c17.52,2.39,31.77,1.4,43.53-3,18-7,30.68-20.06,36.55-37.86,8-24.16.3-47.54-20.52-63.38,22.28-2.27,38.53-14.44,44.94-33.89,5.92-17.95,1.73-36.25-11.44-50.15C1880.08,1179.47,1872.2,1173.42,1861.84,1168Zm32.34,67.85c-6.3,19.1-23,30.57-46,31.47l-1.39.06-1.11,3.36,1.27.85c22.1,14.74,30.61,37.74,22.77,61.53-5.48,16.62-17.31,28.85-34.18,35.37-11.46,4.32-25.59,5.16-43.18,2.57l-1.66-.24-9.49,28.78-17.55-5.79,8.83-26.77-2.06-.53c-6.12-1.6-12.59-3.52-19.26-5.72-1.77-.58-3.49-1.16-5.18-1.74l-1.91-.65-8.61,26.11-17.55-5.78,8.82-26.72-1.75-.7c-9.37-3.74-16.16-6.87-20.54-9l65.42-198.35c5.59.77,13.17,2.31,22.07,4.49l1.8.43,10.12-30.69,17.55,5.79-9.81,29.73,2,.58c5.16,1.52,10.15,3.08,14.84,4.63,3.29,1.08,6.48,2.18,9.48,3.26l1.94.7,9.76-29.6,17.54,5.78L1857,1170l1.54.78c10.64,5.36,18.58,11.32,25.07,18.84C1895.76,1202.5,1899.62,1219.35,1894.18,1235.86Z"/><path class="cls-38" d="M1887.72,1006.68c-109.8-36.06-226.64,5-293.15,93.67a271.28,271.28,0,0,0-50,209.42c16.54,92.84,81.52,173.5,176.41,204.64,127.49,41.87,264.47-20.24,321.1-140.09A270.42,270.42,0,0,0,2058,1184.91C2034.8,1103.43,1973.49,1034.85,1887.72,1006.68Z"/><path class="cls-39" d="M1941.86,1047.67a248.37,248.37,0,0,0-107.25-38.83c-101-11.69-200.37,40.31-249.57,131.1a260.71,260.71,0,0,0-18.32,42.55,256.11,256.11,0,0,0-12.64,68.94c-4.87,110.31,62.45,214.38,171.14,250.08,131.25,43.08,273-29.86,316.77-162.92C2078.65,1226.9,2034.58,1108.35,1941.86,1047.67Z"/><ellipse class="cls-38" cx="1804.35" cy="1260.54" rx="199.86" ry="197.1" transform="translate(43.58 2581.26) rotate(-71.81)"/><path class="cls-14" d="M1979,1200.55a189.64,189.64,0,0,0-47.44-72.13,186,186,0,0,0-70.07-41.76c-99-32.54-206.13,22.53-239.11,123a192,192,0,0,0,27.23,173.72,186.68,186.68,0,0,0,82.1,63.37c3.39,1.34,6.83,2.57,10.32,3.72,99.06,32.51,206.11-22.56,239.09-123A197.25,197.25,0,0,0,1987,1305a189.89,189.89,0,0,0,3.76-41.88A191.88,191.88,0,0,0,1979,1200.55Z"/><path class="cls-38" d="M1859.33,1168.63l.05-.18,10.22-31.1-21.35-7-9.72,29.59c-3-1.1-6.22-2.18-9.55-3.28-4.93-1.63-10-3.18-14.93-4.64l9.77-29.69-21.37-7-10.15,30.87a217.82,217.82,0,0,0-24-4.71l-31.12,94.8-35.15,107c2.93,1.51,6.51,3.19,10.67,5q5.19,2.29,11.6,4.84l-8.82,26.86,21.35,7,8.6-26.11c1.7.58,3.43,1.15,5.21,1.73q10.26,3.38,19.39,5.74l-6.94,21.09-1.83,5.59,21.38,7,9.42-28.67.15-.45.53.08c18.29,2.58,32.47,1.4,43.67-2.83,16-6.22,29.24-18.1,35.35-36.69a48.21,48.21,0,0,0,1.43-5.14c5.49-23.2-4.36-43.54-22.3-56.75-.9-.68-1.83-1.33-2.78-1.95l.2-.61a65.07,65.07,0,0,0,8.85-.92c13.58-2.28,23.93-8.52,30.87-17.14a46.5,46.5,0,0,0,8.07-14.89c6.08-18.59.5-36-11.13-48.23C1878.29,1180.13,1870.18,1174.09,1859.33,1168.63Zm-35,147.23c-7.11,21.65-28.06,23.55-48.81,16.76-7.82-2.58-13.23-4.36-17.54-6.46l1.2-3.63,17.82-54.28,15.63,5.14c11.18,3.66,20.63,8.94,26.59,15.81C1825.4,1296.37,1827.78,1305.29,1824.32,1315.86Zm23.91-89c-5,15.23-21.25,21-45.28,13.15l-15-4.93,10.8-32.9,4.91-15a111.57,111.57,0,0,1,15.31,3.73h0c1.43.43,3,.9,4.61,1.45C1844.32,1199.17,1853.34,1211.25,1848.23,1226.81Z"/><g class="cls-15"><path class="cls-40" d="M1931.53,1128.42l-316,175.34a191.55,191.55,0,0,0,34,79.58L1979,1200.55A189.64,189.64,0,0,0,1931.53,1128.42Z"/></g><g class="cls-15"><path class="cls-40" d="M1695,1427.28a186.43,186.43,0,0,0,36.67,19.43L1987,1305a189.89,189.89,0,0,0,3.76-41.88Z"/></g><g class="cls-41"><path class="cls-38" d="M1690,1154.6a95.6,95.6,0,0,0-12.77-8.11,104.94,104.94,0,0,0-11-5,106.67,106.67,0,0,0-54.7-5.5c-.7.1-1.39.24-2.1.36a108.89,108.89,0,0,0-14.68,3.74,213,213,0,0,0-39.27,164.49q5.05-1.86,10-3.88c14-5.57,27.53-12.08,39.46-20.61,1.36-1,2.68-1.94,4-3a99.09,99.09,0,0,0,16.23-15.76c6.91-8.52,12.38-18.38,20.88-25.31,11.06-9,26.67-12.54,35-24.13,3.41-4.72,5.24-10.37,6.91-15.94q4-13.37,7.13-27c.61-2.7,1.2-5.57.29-8.19S1692.23,1156.28,1690,1154.6Z"/><path class="cls-38" d="M2048.91,1183a45.58,45.58,0,0,0-5.59-.27c-19.24.15-38.11,11.6-47.28,28.61-.23.4-.45.83-.65,1.26-9.5,18.89-6.84,43,5.91,59.88.33.45.68.9,1,1.33,10.05,12.45,25.61,21.65,29.41,37.19,2.08,8.44.2,17.28-1.42,25.83s-3,17.61.07,25.73a16.92,16.92,0,0,0,1.23,2.58,20.1,20.1,0,0,0,10.47,9.2A270.42,270.42,0,0,0,2058,1184.91,45.56,45.56,0,0,0,2048.91,1183Z"/></g><path class="cls-16" d="M1691.89,1124.3l-65.71,12.75,62-24.61a9.2,9.2,0,0,0-6.26-17.3l-70.9,23.19a31.66,31.66,0,0,0-13.8,9.05l-55.26,62.3s-46.31,35.26-43.54,45.35l14.12,51.61a17.29,17.29,0,0,0,28.78,7.78l31.11-30.52s36.74-13.48,67.76-67.21l59.84-16.84a6,6,0,0,0,4.36-6.26l-3.33-42.3A7.74,7.74,0,0,0,1691.89,1124.3Z"/><rect class="cls-33" x="1627.87" y="1145.95" width="74.78" height="4" transform="translate(-209.65 389.28) rotate(-12.55)"/><rect class="cls-33" x="1630.75" y="1166.1" width="73.59" height="4" transform="translate(-229.87 429.87) rotate(-13.75)"/><path class="cls-26" d="M1376.29,1240.25h0a221,221,0,0,0,30-181.28l-2.32-8.55c-37.42,11.39-69.08,35-118,90.82s-153.73,159.21-100.16,245.22c62.75,100.73,297-34,385.67-103l-46.05-86.92Z"/><g class="cls-42"><path class="cls-28" d="M1154.18,1349.65c-22.71,18.55-24.31,54.17-3.58,79.57s56,31,78.68,12.41,24.32-54.18,3.58-79.57S1176.9,1331.1,1154.18,1349.65Z"/><polygon class="cls-6" points="1475.41 1211.17 1524.19 1344.33 1539.92 1331.69 1488.45 1206.65 1475.41 1211.17"/><polygon class="cls-6" points="1500.7 1203.77 1557 1336.94 1565.21 1324.3 1513.74 1199.26 1500.7 1203.77"/><path class="cls-28" d="M1349.94,1243.75c-24.13-17.78-32.17-18.93-32.17-18.93l18.76,31.06-18.76,36.74,47.48-24.08,160.12-72-112.63-56.68S1404,1220.16,1349.94,1243.75Z"/></g><path class="cls-16" d="M2108.52,1230.89l-57.65-32.74a7.91,7.91,0,0,0-9.11,12.87l41.69,34.12-44.86-22.37a15.57,15.57,0,0,0-20.9,7L2006,1253.2a15.6,15.6,0,0,0,6,20.35l35,20.87a127,127,0,0,0,6.22,21.63,39.08,39.08,0,0,1,.39,27.53l-6.32,17.54,1.61-.07a56.35,56.35,0,0,0,48.5-32.28l16.33-34.64a77.84,77.84,0,0,0,6.21-47.18A23.87,23.87,0,0,0,2108.52,1230.89Z"/><rect class="cls-33" x="2047.69" y="1213.22" width="4" height="76.78" transform="translate(14.83 2527.18) rotate(-63.49)"/><rect class="cls-33" x="2039.47" y="1229.71" width="4" height="76.78" transform="translate(-4.48 2528.95) rotate(-63.49)"/><path class="cls-33" d="M2878.46,2572.08h42s34.26,44.32,78.59,49.88c24,3,35-11.21,40-24.9a33.17,33.17,0,0,1,32.88-21.4l2.38-38.54-184-60S2892.85,2499.55,2878.46,2572.08Z"/><path class="cls-43" d="M3039.06,2597.05c-5.06,13.69-16.06,27.92-40,24.89-35.23-4.41-64.09-33.31-74.47-45-.65-.73-1.23-1.38-1.7-2,0,0,0-.05,0-.07-.33-.35-.58-.65-.83-.95s-.7-.83-.93-1.13a4,4,0,0,0-.4-.5c-.1-.13-.17-.2-.2-.25l0,0h-42c-.55,2.76-1.07,5.44-1.68,8.32-12,58.51-63.79,67-110.6,78.68-1.75.43-3.51.88-5.26,1.33a2.5,2.5,0,0,1-.45.12c-14.56,3.79-28.47,8.12-40.29,14.64-51,28.16-56.88,54.09-56.88,54.09l258.24-.07h38l102.94,0,5.11-82.92.62-10.15.05-.62,3.69-59.81A33.11,33.11,0,0,0,3039.06,2597.05Z"/><path class="cls-6" d="M2948.86,2729.18h10.67a123,123,0,0,1,108-82.94l.62-10.15a133,133,0,0,0-119.34,93.09Z"/><path class="cls-6" d="M2920.42,2572.07h-5.18c-8.89,51-33.39,83.83-75,100.37-25.46,10.17-54.06,4.4-74.08-13.37q-5.74,1.44-11.34,3a82.78,82.78,0,0,0,59.41,25.52,80.31,80.31,0,0,0,29.76-5.71c44.23-17.59,70.52-52,80.53-104.93-2.63-3-4.12-4.86-4.12-4.87Z"/><polygon class="cls-6" points="2921.55 2729.18 2663.31 2729.26 2660.73 2760 2902.83 2759.95 3059.91 2759.9 3062.47 2729.16 2959.53 2729.18 2921.55 2729.18"/><g class="cls-44"><path class="cls-45" d="M2921.55,2729.18c-6,10.5-12,21-18.72,30.77l157.08,0,2.56-30.74,5.11-82.92.62-10.15.05-.62c-35.48,4.48-71.23,7-100,30.16C2948.08,2681.87,2935,2705.58,2921.55,2729.18Z"/></g><path class="cls-33" d="M3207.51,2572.08h42s34.26,44.32,78.59,49.88c24,3,35-11.21,40-24.9a33.17,33.17,0,0,1,32.88-21.4l2.38-38.54-184-60S3221.9,2499.55,3207.51,2572.08Z"/><path class="cls-43" d="M3368.1,2597.05c-5,13.69-16,27.9-40,24.9-44.33-5.56-78.59-49.88-78.59-49.88h-42c-.54,2.75-1.06,5.42-1.66,8.31-16.3,79.28-105.56,66.63-156.61,94.78s-56.89,54.08-56.89,54.08l399.15-.1,9.48-153.5A33.17,33.17,0,0,0,3368.1,2597.05Z"/><path class="cls-6" d="M3277.9,2729.18h10.67a123,123,0,0,1,108-82.94l.62-10.15a133,133,0,0,0-119.34,93.09Z"/><path class="cls-6" d="M3249.47,2572.07h-5.18c-8.89,51-33.4,83.83-75,100.37-25.47,10.17-54.07,4.4-74.09-13.37q-5.73,1.44-11.34,3a82.81,82.81,0,0,0,59.41,25.52,80.27,80.27,0,0,0,29.76-5.71c44.24-17.59,70.53-52,80.54-104.93-2.64-3-4.12-4.86-4.12-4.87Z"/><polygon class="cls-6" points="2989.77 2759.99 3388.95 2759.89 3391.5 2729.15 2992.34 2729.25 2989.77 2759.99"/><path class="cls-46" d="M2913.84,980.59c-64.88,2.64-140.93,356.33-140.93,356.33s2.73-51.59-47.83-51.44-54.37,28.43-49.12,64.35c8.61,59,42,223.16,172.71,161.19,110.93-52.58,87-348.91,87-348.91Z"/><path class="cls-18" d="M3364.32,1995.16c2.22-108.16-36.79-490.51-41.13-490.39l-223.08,2L2916,1449.69c-27.55,196.9-50.74,384.15-60.45,541.54l33,538.17,185.67,51.12-13.63-583.93,24.92-201.41h20.8c18.85,94.85,38.05,183.92,49.12,214.33,10.09,27.73,61,510,61,510l185.19,86.5S3362.74,2072,3364.32,1995.16Z"/><g class="cls-47"><path class="cls-48" d="M2902.83,1386.11,2855,1548.36a100.76,100.76,0,0,0,6.63,12c19.46,31,85.1,109.6,240.95,87.31,192.85-27.58,299.06-59,299.06-59l-40.44-142Z"/><path class="cls-49" d="M3324.39,1570.43s35.12,414.73,23.74,457.44-36.34,80-36.34,80l43.36,28.52-22.29,30.87,22.29,31.08,46.45,407.73,26-691.76-72.42-358.52Z"/><polygon class="cls-48" points="3047.76 1935.61 3028.27 2121.13 3008.53 2149.49 3042.59 2173.88 3027.18 2210.59 3057.39 2231.45 3047.76 2489.03 2855.53 2518.98 3073.94 2575.8 3074.16 2580.52 3074.43 2575.93 3095.36 2581.37 3080.06 2480.53 3095.63 2216.59 3106.24 1795.18 3028.27 1792.94 3047.76 1935.61"/><path class="cls-48" d="M2870.67,2041.94c-23.39-43.93,7-329.87,7-329.87l-139.35,174.61,52.09,435.64s37.27,142.41,34.07-28.73,116.56-194.2,116.56-194.2S2888.85,2076.1,2870.67,2041.94Z"/></g><polygon class="cls-50" points="2878.46 2566.11 3074.31 2586.91 3080.03 2528.6 2888.49 2510.47 2878.46 2566.11"/><polygon class="cls-50" points="3205.85 2580.39 3401.6 2606.05 3403.36 2537.11 3216.41 2519.55 3205.85 2580.39"/><path class="cls-46" d="M3315.43,1388.3c-5.7-30.81-3.42-150.61,1.14-186s11.41-135.77-9.12-180.27c-13.76-29.82-33.68-38.22-45.32-40.52h0a37.74,37.74,0,0,0-9.18-.83c2-.18,15.13-1.89,7.74-14.55-8-13.7-16-22.82-16-27.39,0-4.08,14.56-26.33,10.36-44.22a24.1,24.1,0,0,0-2.37-6.21c-10.27-18.5-30.8-32.86-70.74-11.15S3111,900,3111,900s-107-26.24-118.31,10.27c-5.41,17.52.64,23.62-.28,26.72-.66,2.21-4.83,2.9-19.19,5.13-7.53,1.17-30.49,22.44-44.59,24.88-78.73,13.69-16.59,421.39-16.59,421.39l-.28,6.4c.08,1.27-27.46,149.51-2.36,157.87,37.65,12.55,173.39-28.4,235.39,7s189.73-10.45,193.16-10.45-17-51.58.12-57,8.33-41.55,3.76-60.95S3321.14,1419.1,3315.43,1388.3Z"/><g class="cls-51"><path class="cls-22" d="M3352.16,1401.69l-53.92-1.93c5.12,15.8-1,33.55-11.66,46.27s-25.36,21.32-39.93,29.3c-25.41,13.92-53.3,27.08-82.1,23.91q63.81,6.39,128,6.75c-.94,9.62-9,17.35-18.09,20.72s-19,3.21-28.66,2.86c-66.08-2.39-131.75-11.64-197.8-14.72-16-.74-32-1.12-47.85,1.22-49.54,7.34-95.93,41-145.24,32.29,130.68,72.18,287,96.68,433.54,67.93,14.32-2.81,29.16-6.41,40.26-15.88,7.37-6.28,12.58-14.75,16.5-23.61,11.93-27,12.61-57.48,10.66-86.89S3349.61,1431.05,3352.16,1401.69Z"/></g><path class="cls-22" d="M3121.64,915.08c-33.25,22.54-95.55-20.6-95.55-20.6l-17.57,20.6L3028,942.72s24.27,37.48,44.05,37.87,71.52-54,71.52-54,23.57-19.78,47.53-27.77S3154.9,892.53,3121.64,915.08Z"/><path class="cls-29" d="M3198.69,692.45c4-2.87,3-10.3-1.64-12a62.42,62.42,0,0,0,12.07-20.59,60.85,60.85,0,0,1-47.84,5c-14.94-4.76-27.46-15.14-42-21-17.76-7.18-37.76-7.24-56.55-3.55s-36.67,11-54.41,18.2a183.3,183.3,0,0,1,22.19-18.4,76,76,0,0,0-79.66,78.27c.78,25.39,14.4,49.07,32.51,66.87L3013,800.51c2.42,8.37,10.85,13.28,18.62,17.2,14.76,7.46,29.9,14.46,46,18.48a133.66,133.66,0,0,0,101.19-15.56c14.07-8.65,26.82-20.4,33.41-35.54,3.26-7.5,4.92-15.6,6-23.71,3.41-25.61,1-52.42-10.09-75.76A23.76,23.76,0,0,1,3198.69,692.45Z"/><g class="cls-52"><path class="cls-53" d="M3168,752.33a26.23,26.23,0,0,1-15.32,14.42,195.79,195.79,0,0,0,4.87-30.62,14.44,14.44,0,0,1-16.36,5.23c15.17-14.81,8.39-41.8,20.52-59.17a73.18,73.18,0,0,0-37,7.33c-6.05,3-11.72,6.83-18.11,9-11.63,4-24.35,2.12-36.5.2a96.3,96.3,0,0,0,29.2-32.39,48.7,48.7,0,0,1-27.64,10.52c-7.82.41-15.61-1.09-23.44-1.5A84.66,84.66,0,0,0,3013,681.1c-13.73,5.4-27.1,16.38-28.09,31.1-8.63-11.73-8.66-29.08-.08-40.85-10.51,11.18-22.56,21.19-30.56,34.29s-11.19,30.65-2.85,43.54l8.43,39.32a64,64,0,0,1,48.83,27.43c8.47,12.44,12.76,28.2,24.61,37.47,9.21,7.21,21.52,9.16,33.22,8.94,17-.33,33.72-4.73,49.84-10.22,17.32-5.9,34.66-13.4,47.69-26.25s21.05-32.1,16.36-49.79C3178.1,767.41,3173,759.78,3168,752.33Z"/></g><path class="cls-16" d="M3179.16,806.07c-14.26-12.65-36.81-10.51-50.34,4.77a39.52,39.52,0,0,0-6.73,10.65c-8.42-19.22-13.74-79.54-28.86-79.87-17.77-.37-26.08,19.61-51.11,17.45-23-2-.37-17.27,3.56-19.8-5.74,3.4-54.4,31.65-67,15,0,0-2.88,73.76,6.56,95.16s29.55,53.09,48.74,52.94a224.12,224.12,0,0,0,24.53-1.25.53.53,0,0,1,.17,0c.33,0,.6-.08.86-.12.92-.1,1.52-.2,1.83-.26l.22,0-5.71,27.51L3025.51,941s24.38,38.43,46,39.59,83.31-63,83.31-63L3146.51,875l-.86-6c12.15,2.34,25.59-1.95,34.83-12.41C3194,841.33,3193.43,818.69,3179.16,806.07Z"/><g class="cls-54"><path class="cls-33" d="M3099.19,718.91c-6.8-6.36-15.67-10-24.58-12.75-37-11.29-80.62-6.65-109.07,19.53l.44,26.47a69.83,69.83,0,0,0,56,6.2c-.5,7.93,8.92,12.54,16.81,13.42a63.36,63.36,0,0,0,29.95-3.93c2.35-.91,4.78-2,7.28-1.67,2.29.29,4.27,1.71,6.09,3.14A149.56,149.56,0,0,1,3121,814.75c-5.68-15.75-4.57-33-5.35-49.72S3111.42,730.35,3099.19,718.91Z"/><path class="cls-34" d="M3172.59,749l-43.77,61.89c9.47-9.18,29.1-11.47,39.57-3.89s16,23.34,13.08,37.27-14.08,24.95-26.39,26.07a18.51,18.51,0,0,0,14.27,16.27c7.05,1.49,14.31-1.14,20.64-5,22.21-13.71,35.55-44.56,31.76-73.44S3197.31,754.35,3172.59,749Z"/><path class="cls-34" d="M3138.54,911.57c-1.9,8.89-7.57,16.41-12.6,24C3113,955,3103.47,976.37,3094,997.68c7.14-2.5,13.22-7.25,19.17-11.92l70.31-55.23L3144.7,871.1C3135.56,881.61,3141.45,898,3138.54,911.57Z"/></g><path class="cls-36" d="M3153.44,820.14a17.91,17.91,0,0,0-8.16,9.32,22.79,22.79,0,0,0-1.48,6,29.66,29.66,0,0,0-.06,6,35.55,35.55,0,0,0,3.05,11.35c0-3.92-.15-7.71.1-11.4.07-.92.15-1.84.24-2.74s.21-1.81.42-2.68A26.5,26.5,0,0,1,3149,831a18.53,18.53,0,0,1,6.13-8.17,27.17,27.17,0,0,1,10-4.57A18,18,0,0,0,3153.44,820.14Z"/><path class="cls-36" d="M3160.92,831.5a8.89,8.89,0,0,0-6.73-2.39,10.42,10.42,0,0,0-6.07,2.43,39.27,39.27,0,0,1,5.85.7,9.06,9.06,0,0,1,4.23,2.19,15.07,15.07,0,0,1,3,4.15c.86,1.66,1.61,3.48,2.48,5.47a12,12,0,0,0,.49-6.45A11,11,0,0,0,3160.92,831.5Z"/><path class="cls-37" d="M3068.2,753c-26.77-.17-21.62,16.33-21.5,16,17.13-6.74,50.93.67,52.56,1.72C3098.69,769.47,3093.27,754.33,3068.2,753Z"/><path class="cls-37" d="M3099.26,770.68c0,.06,0,.09.06.08S3099.31,770.71,3099.26,770.68Z"/><path class="cls-37" d="M3003.47,759.44c-12.2-.49-19.32,8.85-19.95,9.58,1.08-.58,19.23-3.5,25.25,1.68C3008.72,771,3016.12,760.74,3003.47,759.44Z"/><path class="cls-37" d="M2983.52,769s-.05,0-.05.05Z"/><ellipse class="cls-37" cx="3062.25" cy="788.46" rx="8.2" ry="12.09" transform="translate(-53.09 246.54) rotate(-4.57)"/><path class="cls-37" d="M3004,781c-3.59.29-6.06,5.91-5.53,12.57s3.87,11.82,7.45,11.53,6.06-5.91,5.53-12.57S3007.59,780.7,3004,781Z"/><path class="cls-35" d="M3087.73,799.48A20.22,20.22,0,1,0,3109.51,818,20.22,20.22,0,0,0,3087.73,799.48Z"/><path class="cls-36" d="M3017.32,817.69c-.24.17-.46.35-.7.53,0,.24-.1.48-.14.72Z"/><path class="cls-36" d="M3012.73,826.81a38.65,38.65,0,0,1,6.79-5.83l.67-.46.17-.79c1.23-5.83,2.33-11.69,3.23-17.59l.63-4.44c.2-1.48.36-3,.55-4.45.32-3,.62-6,.74-9-1.07,2.82-2,5.69-2.81,8.55-.41,1.44-.84,2.88-1.22,4.32l-1.14,4.33c-1.41,5.54-2.63,11.13-3.72,16.74.24-.18.46-.36.7-.53l-.84,1.25c0-.24.1-.48.14-.72a36.47,36.47,0,0,0-6.67,6.24,17.37,17.37,0,0,0-2.7,4.52,9.14,9.14,0,0,0-.61,2.8,6.66,6.66,0,0,0,.51,3,8.19,8.19,0,0,0,3.88,4,18.46,18.46,0,0,0,4.71,1.72,42,42,0,0,0,9.57,1,68,68,0,0,1-9-2.67,19.66,19.66,0,0,1-4-2.06,6.17,6.17,0,0,1-2.42-2.94,4.71,4.71,0,0,1,.45-3.47A14.65,14.65,0,0,1,3012.73,826.81Z"/><g class="cls-11"><path d="M3046.72,914.48c-.28.1-.87.3-1.67.6C3045.9,914.8,3046.44,914.6,3046.72,914.48Z"/></g><path class="cls-33" d="M3061.57,900.7,3058.19,917c29.23,13.27,43.11-8.17,43.11-8.17l13.25-37L3096,888.25Z"/><g class="cls-11"><path class="cls-22" d="M3260.67,966.15c-8-13.7-16-22.82-16-27.39,0-4.08,14.56-26.33,10.36-44.22a84.94,84.94,0,0,1-20.67,32.13c-16.11,16-36.76,26.31-57.05,36.42l50-16.5a8.59,8.59,0,0,1,4.74-.62,7.08,7.08,0,0,1,3.63,2.93c6.69,9.17,4.38,22.63-2.53,31.64s-17.37,14.47-27.75,19.08c-38.52,17.14-81.81,26.61-123.15,18.21,47,17.89,102.16,12.6,144.85-13.92,11.75-7.3,22.75-16.15,35-22.38a37.74,37.74,0,0,0-9.18-.83C3254.94,980.52,3268.06,978.81,3260.67,966.15Z"/><path class="cls-22" d="M2992.36,937c-.66,2.21-4.83,2.9-19.19,5.13,13.28,23.78,39.3,40.21,66.59,41.26A112.78,112.78,0,0,1,2992.36,937Z"/></g><path class="cls-6" d="M3056.29,854.8c-12,8-24.41,6-32,3.35a3.08,3.08,0,0,0-3.61,4.51c4,6.66,5.71,10.37,17.18,12.68C3056.89,879.17,3075.47,842.08,3056.29,854.8Z"/><path class="cls-38" d="M2912.9,1015.3c-90.2,22.9-157.63,90.11-185.52,173a272.75,272.75,0,0,0,8.27,194.51c38.13,88.71,120,149,212.23,160.72a261.17,261.17,0,0,0,97.6-6c120.1-30.5,199.8-139.5,199.65-259.49a272.94,272.94,0,0,0-8.44-67C3200.08,1066.84,3055.12,979.19,2912.9,1015.3Z"/><path class="cls-39" d="M2981.14,1020.92a250.43,250.43,0,0,0-112.27,24.92c-92.26,44.65-148.72,142.63-141.51,246.49a262.22,262.22,0,0,0,7.41,46.1,258.5,258.5,0,0,0,26.5,65.51c55.49,96.51,169,148.68,280.83,120.31,135-34.28,216.23-173,181.51-309.89C3194.44,1099.5,3092.85,1022.43,2981.14,1020.92Z"/><ellipse class="cls-38" cx="2979.18" cy="1276.4" rx="198.71" ry="201.5" transform="translate(-222.43 771.99) rotate(-14.24)"/><path class="cls-14" d="M3158.68,1215.52A192.91,192.91,0,0,0,3016,1095.22a187.5,187.5,0,0,0-82.2,2.34c-101.89,25.85-163.24,130.6-137,233.89a193.61,193.61,0,0,0,117.07,133.12,188.14,188.14,0,0,0,104.13,9.55c3.61-.69,7.2-1.51,10.8-2.42,101.86-25.87,163.2-130.6,137-233.9A199.41,199.41,0,0,0,3158.68,1215.52Z"/><path class="cls-38" d="M3074.47,1296.89c-7.87-22.7-27.24-34.73-49.66-36.23-1.13-.1-2.28-.15-3.44-.17l-.15-.63a69.86,69.86,0,0,0,7-5.56c10.33-9.3,15.74-20.18,17-31.28a47,47,0,0,0-1.21-17c-4.83-19.14-19-30.92-35.53-35-9.89-3-20.07-3.71-32.24-2.48l-.06-.2-8.11-32-22,5.56,7.72,30.45c-3.16.7-6.44,1.5-9.9,2.38-5.06,1.28-10.17,2.66-15.18,4.11l-7.77-30.55-22,5.57,8.07,31.77a219.28,219.28,0,0,0-22.92,8.94l24.73,97.5,27.94,110.08q5-.49,11.8-1.51c3.63-.55,7.64-1.25,12-2.08l.48-.07.55,2.13,6.46,25.51,8.15-2.08,13.83-3.51-6.82-26.86,5.36-1.33c7.07-1.8,13.58-3.68,19.62-5.61l5.52,21.72,1.45,5.71,22-5.58-4.33-17.09-3.13-12.38-.13-.48.5-.22c17-7.67,28.39-16.36,35.63-26,10.3-14,15.11-31.2,10.25-50.34C3075.57,1300.25,3075.07,1298.55,3074.47,1296.89Zm-131.65-67.15-3.91-15.38a106.79,106.79,0,0,1,15.06-5.12c1.45-.4,3-.82,4.71-1.25,21.32-5.41,35.56,0,39.62,16,4,15.66-6.69,29.39-31.43,35.68l-15.46,3.91Zm50.79,123.58c-8.07,2.06-13.61,3.46-18.42,4l-1-3.76-14.16-55.83,16.09-4.08c11.48-2.91,22.38-3.53,31.15-.88,9.14,2.73,16,9,18.76,19.9C3031.72,1335,3014.93,1347.91,2993.61,1353.32Z"/><g class="cls-15"><path class="cls-40" d="M2841.9,1415.22a193.14,193.14,0,0,0,71.95,49.35L3095.36,1131a191,191,0,0,0-79.36-35.74Z"/></g><g class="cls-15"><path class="cls-40" d="M2976.26,1477.41a188.75,188.75,0,0,0,41.72-3.29l140.7-258.6a192.17,192.17,0,0,0-19.44-37.68Z"/></g><g class="cls-15"><path class="cls-38" d="M3167.05,1343.72q-2.4,1.37-4.88,2.61a131.19,131.19,0,0,1-42.47,13.78c-14.74,2-30.5,1.38-43.75,7.49a40.36,40.36,0,0,0-4.66,2.51c-11.55,7.19-20.27,20.67-33.83,21.52a23.12,23.12,0,0,1-4.56-.17,52,52,0,0,1-8.72-2.13l-1.45-.48q-28.8-9.31-57.59-18.57c-.87-.27-1.75-.57-2.63-.85-4.16,4.06-5.63,9.68-5.33,15.49a36.61,36.61,0,0,0,3.48,13.6c.33.71.65,1.41,1,2.06a5.59,5.59,0,0,0,.3.6c4.31,7.87,10.35,14.86,14.31,22.83a42.45,42.45,0,0,1,2.68,6.69c4.68,15.76-1.91,31.49-10.35,46.3-.08.15-.15.28-.23.4-2.85,5-5.91,9.9-8.79,14.64-6.77,11.15-12.68,24.75-13.41,37.48a37.38,37.38,0,0,0,1.68,14,261.17,261.17,0,0,0,97.6-6c120.1-30.5,199.8-139.5,199.65-259.49q-6.84,7.07-13.9,14.15C3211.61,1311.78,3190.58,1330.67,3167.05,1343.72Z"/><path class="cls-38" d="M2797.56,1232.3v0a195.19,195.19,0,0,0-4.51-28c-.25-1.08-.5-2.13-.77-3.21-2-7.89-4.94-16.26-11.76-20.67-8.87-5.76-20.54-2.65-30.57.6-2.1.68-4.18,1.36-6.28,2.06-5.44,1.75-10.85,3.53-16.29,5.29a272.75,272.75,0,0,0,8.27,194.51c1.78-2.55,2.53-5.86,3.13-9,.88-4.61,1.65-9.27,2.4-13.91,2.23-13.48,4.39-27,9-39.79a107.55,107.55,0,0,1,29.39-43.42l.65-.58c3.86-3.41,8-6.69,11.27-10.57a26.41,26.41,0,0,0,4.56-7.22c2.23-5.31,2.28-11.25,2.06-17C2798,1238.33,2797.81,1235.3,2797.56,1232.3Z"/></g><path class="cls-16" d="M3049.25,1411.44c-28.86-8-39.06,19.26-79.42,7.52s-19.83,18.79-15.68,21.78,39.4,8.69,39.4,8.69-66.82,53.44-48.45,65.1,39.28,22,42.51,30.62,30.1,10.68,34.21,24.64,75.51-29.85,89.26-41.62-16.82-96.14-16.82-96.14S3078.11,1419.47,3049.25,1411.44Z"/><g class="cls-55"><path class="cls-33" d="M2996.22,1436.37c-16.14-.19-33.94,1.27-46.65-8.67-4.86-3.8-8.72-10.18-6.65-16l-11-7.25c-2.12,6.83-4.26,13.73-4.78,20.85s.7,14.61,4.8,20.47c7.32,10.45,21.82,13.22,34.49,11.67a71.68,71.68,0,0,0,32.22-12.37c2.11-1.47,4.38-3.88,3.37-6.25C3001.15,1436.77,2998.45,1436.4,2996.22,1436.37Z"/><path class="cls-33" d="M2944.07,1496.92l3.19-4.78A7.2,7.2,0,0,0,2944.07,1496.92Z"/><path class="cls-33" d="M3029.93,1557.46c-9-12.71-30.7-6.92-42.23-17.38-5.65-5.13-7.61-13.1-8.84-20.64-.29-1.82-.6-3.74-1.77-5.18-2-2.5-5.75-2.57-9-2.41-6.58.33-13.7.58-19.15-3.12a12.21,12.21,0,0,1-4.9-11.81l-25,37.53a149.32,149.32,0,0,0,78,58.76c6.68,2.13,13.73,3.8,20.67,2.78s13.77-5.26,16.12-11.87c1.54-4.35,1-9.13.33-13.69S3032.58,1561.21,3029.93,1557.46Z"/></g><path class="cls-46" d="M3306.32,1024.45a226.4,226.4,0,0,1-27.18,52.27,214.73,214.73,0,0,0-32.55,72.79.07.07,0,0,0,0,.07c-9.27,39.19-7.07,80.64,8.24,119.05,3.71,9.3,5.24,17.51,3.41,23.7-9.79,33.4-96.19,43-127.71,52.87-26,8.12-80.49,73.14-53.8,130l0,0c5.74,12.16,15.16,23.93,29.4,34.71,69.08,52.29,234.4-22.6,310.15-116.94,12.83-15.94,23.08-32.45,29.87-49,9.12-22.2,9.42-47.83,4-74.72C3427.6,1157.7,3306.32,1024.45,3306.32,1024.45Z"/><g class="cls-41"><path class="cls-22" d="M3278.63,1257.05c-3.25-.52-6.61-1.1-9.34-2.93-3.39-2.25-5.29-6.11-6.92-9.82a196,196,0,0,1-15.81-94.72c-9.27,39.19-7.07,80.64,8.24,119.05,3.71,9.3,5.24,17.51,3.41,23.7-9.79,33.4-96.19,43-127.71,52.87-26,8.12-80.49,73.14-53.8,130l0,0,42.08,42c-24.61-38-31.85-86.78-19.32-130.28a60.82,60.82,0,0,0,23.22,33c-4.78-16-8-34.86,2.23-48,13-16.76,38.34-13.85,59.49-15.63a107.51,107.51,0,0,0,64.12-28.62c3.66-3.43,7.67-7.36,12.65-7.29,3,.05,5.82,1.63,8.42,3.16q19.32,11.28,38.64,22.52a93.14,93.14,0,0,0-29.92-41.49,265.66,265.66,0,0,0,54.53-38.79Z"/><path class="cls-22" d="M3433.09,1278.58c-31.2,24.23-41,72.06-21.85,106.61a63.48,63.48,0,0,0,5,7.8c12.83-15.94,23.08-32.45,29.87-49,9.12-22.2,9.42-47.83,4-74.72A57.55,57.55,0,0,0,3433.09,1278.58Z"/></g><path class="cls-16" d="M2776.75,1226.46a17.05,17.05,0,0,0-21.86-10.2L2703.34,1235l49.56-31.92a8.65,8.65,0,0,0-8.3-15.12l-66.75,28.43a26.12,26.12,0,0,0-14.36,16,85.19,85.19,0,0,0,.89,52.07l13.46,39.7a61.69,61.69,0,0,0,48.72,41.11l1.75.28-4.7-19.86a42.81,42.81,0,0,1,3.84-29.88,137.32,137.32,0,0,0,9.44-22.75l40.65-18.35a17,17,0,0,0,9-21.38Z"/><rect class="cls-33" x="2697.23" y="1244.24" width="84.03" height="4" transform="translate(-261 1011.49) rotate(-19.99)"/><rect class="cls-33" x="2704.12" y="1263.19" width="84.03" height="4" transform="translate(-267.06 1014.99) rotate(-19.99)"/><path class="cls-38" d="M1134.08,713.86c-57.79-19-120.22,13.14-139.46,71.73s12,121.47,69.77,140.45,120.23-13.15,139.47-71.74S1191.86,732.83,1134.08,713.86Z"/><path class="cls-39" d="M1156.7,731a103.65,103.65,0,0,0-44.82-16.23c-42.2-4.89-83.73,16.85-104.29,54.79a108.11,108.11,0,0,0-12.94,46.59c-2,46.1,26.1,89.59,71.52,104.51,54.85,18,114.11-12.48,132.38-68.09C1213.87,805.89,1195.45,756.34,1156.7,731Z"/><path class="cls-38" d="M1125.3,740.59c-43.22-14.19-89.93,9.83-104.32,53.65s9,90.86,52.2,105.06,89.92-9.83,104.31-53.66S1168.51,754.78,1125.3,740.59Z"/><path class="cls-14" d="M1172.21,794.87a79.21,79.21,0,0,0-19.83-30.14,77.59,77.59,0,0,0-29.28-17.45c-41.39-13.6-86.14,9.42-99.92,51.39a80.22,80.22,0,0,0,11.38,72.59,78,78,0,0,0,34.31,26.48c1.42.56,2.85,1.08,4.31,1.56,41.39,13.59,86.13-9.43,99.91-51.4a82,82,0,0,0,2.48-9.37,80.42,80.42,0,0,0-3.36-43.66Z"/><path class="cls-38" d="M1122.21,781.54l4.3-13.08-8.93-2.93-4.06,12.37c-1.27-.46-2.59-.91-4-1.37-2.06-.68-4.16-1.33-6.24-1.94l4.08-12.41-8.93-2.93-4.24,12.9a91,91,0,0,0-10-2l-27.7,84.34c2.26,1.14,5.37,2.55,9.31,4.12l-3.69,11.22,8.93,2.94,3.59-10.92,2.17.73c2.87.94,5.56,1.73,8.11,2.39l-3.66,11.15,8.93,2.93,4-12.17c7.74,1.13,13.74.65,18.47-1.14a24.22,24.22,0,0,0,14.78-15.33c3.64-11.09-1.09-20.83-9.89-26.69l.08-.25c10.72-.43,17.46-6.13,20-13.76a19.7,19.7,0,0,0-4.65-20.16A33.21,33.21,0,0,0,1122.21,781.54Zm-14.63,61.52c-3,9.05-11.73,9.85-20.39,7a61.63,61.63,0,0,1-7.33-2.7l8-24.2,6.53,2.14C1103.89,828.45,1110.42,834.4,1107.58,843.06Zm10-37.21c-2.09,6.37-8.87,8.79-18.92,5.49l-6.28-2.06,6.56-20a54.24,54.24,0,0,1,8.34,2.17C1115.94,794.3,1119.71,799.34,1117.57,805.85Z"/><g class="cls-15"><path class="cls-40" d="M1152.38,764.73l-132,73.28a80.1,80.1,0,0,0,14.21,33.25l137.65-76.39A79.21,79.21,0,0,0,1152.38,764.73Z"/></g><g class="cls-15"><path class="cls-40" d="M1053.54,889.62a77.82,77.82,0,0,0,15.33,8.12l106.7-59.21a79.43,79.43,0,0,0,1.57-17.5Z"/></g><path class="cls-38" d="M3418.45,415.82c-58.67,16-93.06,77.24-76.81,136.72s77,94.74,135.64,78.72,93.06-77.25,76.81-136.74S3477.12,399.8,3418.45,415.82Z"/><path class="cls-39" d="M3446.77,417.64a103.72,103.72,0,0,0-46.34,11.17C3362.52,448,3339.85,489,3343.62,532a108.12,108.12,0,0,0,3.41,19.06A107,107,0,0,0,3358.51,578c23.71,39.58,71.16,60.35,117.28,47.76,55.69-15.21,88.32-73.31,72.91-129.78C3535.75,448.61,3493.08,417.43,3446.77,417.64Z"/><ellipse class="cls-38" cx="3447.87" cy="523.53" rx="82.37" ry="83.52" transform="translate(-16.12 926.85) rotate(-15.28)"/><path class="cls-14" d="M3521.8,497a79.24,79.24,0,0,0-8.34-15.47,80.11,80.11,0,0,0-18.53-19.1,79.26,79.26,0,0,0-33.16-14.22,77.72,77.72,0,0,0-34.05,1.58c-42,11.48-66.68,55.35-55,98a80.31,80.31,0,0,0,49.51,54.3,78.13,78.13,0,0,0,43.23,3.18c1.49-.32,3-.68,4.46-1.08,42-11.49,66.66-55.35,55-98A81.79,81.79,0,0,0,3521.8,497Z"/><path class="cls-38" d="M3465.24,516.62l-.07-.25c8.7-6.27,11.18-14.74,9.07-22.49a19.7,19.7,0,0,0-15-14.26,33.33,33.33,0,0,0-13.38-.8l-3.62-13.27-9.07,2.48,3.43,12.55c-1.31.32-2.66.67-4.09,1.06-2.08.57-4.19,1.18-6.26,1.82l-3.44-12.6-9.07,2.47,3.58,13.1a94.76,94.76,0,0,0-9.44,3.88L3431.27,576c2.51-.3,5.88-.83,10-1.7l3.11,11.4,9.07-2.48-3-11.08,2.22-.59c2.9-.8,5.59-1.62,8.08-2.48l3.09,11.32,9.07-2.47-3.37-12.36c7.08-3.33,11.82-7,14.78-11.14a24.17,24.17,0,0,0,3.87-20.94C3485.12,522.18,3475.8,516.65,3465.24,516.62Zm-34.53-18.5a52.94,52.94,0,0,1,8.14-2.79c8.81-2.4,14.74-.27,16.54,6.34,1.77,6.46-2.55,12.23-12.75,15l-6.38,1.74Zm23.71,57.19a61.7,61.7,0,0,1-7.6,1.79l-6.71-24.58,6.63-1.81c9.69-2.64,18.43-1.28,20.83,7.51C3470.08,547.41,3463.22,552.91,3454.42,555.31Z"/><g class="cls-15"><path class="cls-40" d="M3392,582.09A80,80,0,0,0,3422.19,602l72.74-139.62a79.26,79.26,0,0,0-33.16-14.22Z"/></g><g class="cls-15"><path class="cls-40" d="M3448.16,606.86a78.16,78.16,0,0,0,17.26-1.67L3521.8,497a79.24,79.24,0,0,0-8.34-15.47Z"/></g></g></svg>