<?xml version="1.0" encoding="utf-8"?>
<!-- Generator: Adobe Illustrator 23.0.5, SVG Export Plug-In . SVG Version: 6.00 Build 0)  -->
<svg version="1.1" id="Layer_1" xmlns="http://www.w3.org/2000/svg" xmlns:xlink="http://www.w3.org/1999/xlink" x="0px" y="0px"
	 viewBox="0 0 841.89 595.28" style="enable-background:new 0 0 841.89 595.28;" xml:space="preserve">
<style type="text/css">
	.st0{fill:#9F68F8;}
	.st1{opacity:0.08;fill:#2E2E62;}
	.st2{opacity:0.36;fill:#CCF5FF;}
	.st3{opacity:0.36;fill:#2E2E62;}
	.st4{fill:#442A43;}
	.st5{fill:#6B4A6B;}
	.st6{opacity:0.44;fill:#10102D;}
	.st7{fill:#F2807E;}
	.st8{fill:#FFB6AE;}
	.st9{opacity:0.36;fill:#FF7E7B;}
	.st10{fill:#F46C83;}
	.st11{opacity:0.32;fill:#C93D5B;}
	.st12{fill:#FF7E7B;}
	.st13{opacity:0.55;fill:#FFB6AE;}
	.st14{fill:#FFFFFF;}
	.st15{fill:none;stroke:#F2807E;stroke-width:0.5118;stroke-linecap:round;stroke-linejoin:round;stroke-miterlimit:10;}
	.st16{opacity:0.36;fill:#E2BFBF;}
	.st17{fill:#F9A119;}
	.st18{fill:#F7D221;}
	.st19{opacity:0.45;fill:#F9A119;}
</style>
<g>
	<path class="st0" d="M628.68,276.18v23.9c0,104.36-84.59,188.94-188.92,188.94h-37.79c-66.53,0-125.03-34.38-158.7-86.36
		c-18.56-28.65-29.56-62.67-30.19-99.21c-0.02-0.6-0.04-1.17-0.04-1.77c-0.02-0.52-0.02-1.07-0.02-1.61v-23.9
		c0-24.41,4.62-47.74,13.05-69.15c3.99-10.13,8.83-19.84,14.44-29.03c15.74-25.85,37.52-47.61,63.37-63.35
		c20.28-12.33,43.06-20.94,67.4-24.92c0.45-0.07,0.9-0.14,1.37-0.22c8.29-1.3,16.74-2.06,25.33-2.22c1.32-0.04,2.64-0.05,3.97-0.05
		h37.79c0.42,0,0.83,0,1.25,0.02c14.3,0.09,28.22,1.77,41.58,4.87c34.43,7.98,65.27,25.37,89.62,49.34
		C607.07,175.72,628.68,223.44,628.68,276.18z"/>
	<path class="st1" d="M628.68,276.18v23.9c0,104.36-84.59,188.94-188.92,188.94h-37.79c-66.53,0-125.03-34.38-158.7-86.36
		c-18.56-28.65-29.56-62.67-30.19-99.21c68.93-64.22,247.71-37.68,264.84-98.61c12.95-46-61.66-90.78-105.26-115.33
		c8.29-1.3,16.74-2.06,25.33-2.22c1.32-0.04,2.64-0.05,3.97-0.05h37.79c0.42,0,0.83,0,1.25,0.02c14.3,0.09,28.22,1.77,41.58,4.87
		c34.43,7.98,65.27,25.37,89.62,49.34C607.07,175.72,628.68,223.44,628.68,276.18z"/>
	<path class="st1" d="M572.2,141.47c-62.85,32.5-153.18,85.81-240.38,44.5c-39.88-18.89-69.64-17.31-91.3-7.98
		c15.74-25.85,37.52-47.61,63.37-63.35c20.28-12.33,43.06-20.94,67.4-24.92c8.72-1.43,17.64-2.26,26.7-2.44
		c1.32-0.04,2.64-0.05,3.97-0.05h37.79c0.42,0,0.83,0,1.25,0.02c14.3,0.09,28.22,1.77,41.58,4.87
		C517.01,100.11,547.85,117.5,572.2,141.47z"/>
	<path class="st2" d="M416.9,489.02h-12.71c-42.21-67.07-128.98-204.85-178.11-281.99c15.2-38.64,42.77-71.04,77.82-92.39
		L416.9,489.02z"/>
	<path class="st2" d="M426.49,489.02h12.71c42.21-67.07,128.98-204.85,178.11-281.99c-15.2-38.64-42.77-71.04-77.82-92.39
		L426.49,489.02z"/>
	<path class="st3" d="M289.22,359.68c0,10.16-8.25,18.4-18.42,18.4c-0.11,0-0.22-0.02-0.34-0.02c0,0.02,0,0.02,0,0.02
		c0,3.12-0.78,6.05-2.13,8.61c-0.61,9.62-8.59,17.24-18.36,17.24c-2.37,0-4.62-0.45-6.7-1.26c-18.87-29.12-29.92-63.77-30.22-100.98
		c2.09-0.83,4.35-1.28,6.73-1.28c10.16,0,18.4,8.25,18.4,18.42c0,3.54-1.01,6.82-2.74,9.62c1.93,0.42,3.76,1.16,5.4,2.11
		c3.29-3.05,7.67-4.93,12.51-4.93c9.24,0,16.86,6.81,18.18,15.67C281.36,341.68,289.22,349.75,289.22,359.68z"/>
	<path class="st3" d="M552.69,359.68c0,10.16,8.25,18.4,18.42,18.4c0.11,0,0.22-0.02,0.34-0.02c0,0.02,0,0.02,0,0.02
		c0,3.12,0.78,6.05,2.13,8.61c0.61,9.62,8.59,17.24,18.36,17.24c2.37,0,4.62-0.45,6.7-1.26c18.87-29.12,29.92-63.77,30.22-100.98
		c-2.09-0.83-4.35-1.28-6.73-1.28c-10.16,0-18.4,8.25-18.4,18.42c0,3.54,1.01,6.82,2.74,9.62c-1.93,0.42-3.76,1.16-5.4,2.11
		c-3.29-3.05-7.67-4.93-12.51-4.93c-9.24,0-16.86,6.81-18.18,15.67C560.55,341.68,552.69,349.75,552.69,359.68z"/>
	<path class="st4" d="M426.63,300.41l-25.15,15.17c0,0-32.46-16.77-46.33-29.84c-6.5-6.16-8.9-11.46-1.97-13.87
		c34.56-11.95,39.18-79.01,39.88-80c0.16-0.23,0.32-0.45,0.49-0.67c9.82-12.46,28.83,4.17,28.83,4.17L426.63,300.41z"/>
	<path class="st5" d="M380.05,265.2c-7.89,8.21-17.3,15.35-24.9,20.53c-6.5-6.16-8.9-11.46-1.97-13.87
		c34.56-11.95,39.18-79.01,39.88-80c0.16-0.23,0.32-0.45,0.49-0.67C393.63,205.86,393.73,250.97,380.05,265.2z"/>
	<path class="st4" d="M439.12,315.57l-7.4-4.48l-17.73-10.69l4.24-105.04c0,0,14.64-12.82,24.86-7.51c1.62,0.85,3.12,2.13,4.44,4.01
		c0.7,0.99,5.33,68.05,39.9,80C509.17,279.37,439.12,315.57,439.12,315.57z"/>
	<path class="st6" d="M439.12,315.57l-7.4-4.48c9.98-3.9,20-12.76,19.16-18.61c-0.96-6.45-0.6-8.29,6.48-5.81
		c7.06,2.47,6.45-6.17-6.43-23.38c-10.33-13.78-8.9-58.05-7.84-75.43c1.62,0.85,3.12,2.13,4.44,4.01c0.7,0.99,5.33,68.05,39.9,80
		C509.17,279.37,439.12,315.57,439.12,315.57z"/>
	<path class="st7" d="M446.92,239.24l-6.84,34.11l-49.2,0.47l8.58-33.2c0.52,0.14,4.87,0.07,10.72-0.09v-20.49h20.2v19.84
		C439.43,239.53,446.92,239.24,446.92,239.24z"/>
	<path class="st8" d="M446.92,239.24l-6.84,34.11l-49.2,0.47l8.58-33.2c0.52,0.14,4.87,0.07,10.72-0.09v-6.34
		c2.91,2.26,6.64,4.35,10.09,4.35c2.62,0,6.45-1.32,10.11-2.91v4.24C439.43,239.53,446.92,239.24,446.92,239.24z"/>
	<g>
		<path class="st7" d="M395.49,207.62l0.2,0.71c-1.96,0-5.17-1.14-6.48-4.79l-1.4-9.68c-0.22-1.49,0.15-3.07,1.19-4.16
			c1.02-1.08,2.68-1.71,5.22,0.07l1.89,1.43c2.19,0,3.35-1.06,3.35,1.13v11.33C399.45,205.84,397.68,207.62,395.49,207.62z"/>
		<path class="st7" d="M445.03,207.62l-0.2,0.71c1.96,0,5.17-1.14,6.48-4.79l1.4-9.68c0.22-1.49-0.15-3.07-1.19-4.16
			c-1.02-1.08-2.68-1.71-5.22,0.07l-1.89,1.43c-2.19,0-3.35-1.06-3.35,1.13v11.33C441.07,205.84,442.84,207.62,445.03,207.62z"/>
		<path class="st8" d="M438.21,221.3L438.21,221.3c-9.75,10.26-26.12,10.26-35.87,0l0,0c-5.95-6.26-9.26-14.56-9.26-23.19V178.7
			l1.45-5.59l7.49-1.1h45.45v26.1C447.47,206.75,444.15,215.05,438.21,221.3z"/>
		<circle class="st9" cx="436.76" cy="206.54" r="6.87"/>
		<circle class="st9" cx="403.33" cy="206.54" r="6.87"/>
	</g>
	<path class="st10" d="M441.74,303.86l-15.96-0.47l-11.16-0.34l-31.27-0.94l8.36-29.39l8.31-29.27l0.05-0.2l1.41-4.93l7.08,0.61
		c0.61,0.31,7.98,6.91,22.73-0.61l9.79-2l0.32,33.17L441.74,303.86z"/>
	<path class="st11" d="M441.74,303.86l-15.96-0.47l-11.16-0.34l-31.27-0.94l8.36-29.39c4.15-1.01,10.96-2.15,17.3-0.85
		c6.77,1.37,22.75-0.83,32.39-2.38L441.74,303.86z"/>
	<path class="st11" d="M414.62,303.04c2.38-16.83,11.16-46.97,1.13-54.74c-3.68-2.85-9.77-5.72-12.17-7.84l-2.1-2.15l7.08,0.61
		c0.61,0.31,7.98,6.91,22.73-0.61l9.79-2l0.67,67.54L414.62,303.04z"/>
	<g>
		<path class="st12" d="M423.54,207.56c-0.83,2.11-4.29,1.99-5.75,1.05c-0.77-0.47-0.93-1.69-0.79-3.25c0,0,0-0.14,0-0.2
			c0.36-4.35,3.08-11.22,3.16-11.63c0,0,2.74,8.4,3.3,12.27C423.61,206.68,423.62,207.29,423.54,207.56z"/>
		<path class="st13" d="M423.45,205.8c-0.83,2.04-4.21,1.93-5.68,0.98c-0.39-0.27-0.7-0.74-0.78-1.42c0,0,0-0.14,0-0.2
			c0.36-4.35,3.08-11.22,3.16-11.63C420.16,193.53,422.89,201.93,423.45,205.8z"/>
	</g>
	<path class="st7" d="M410.35,212.01c0.62,4.5,4.78,8,9.9,8.02c5.12,0.02,9.3-3.46,9.95-7.96L410.35,212.01z"/>
	<path class="st4" d="M450.77,189.08c-1.17-1.14-3.3,0-3.3,0c-0.87-7.73-7.24-12.01-13.34-14.34c-5.99-2.31-11.74-2.74-11.74-2.74
		c-14.93,11.46-30.82,17.08-30.82,17.08v-0.18c-0.61-14.57,4.5-22.53,10.72-26.87c8.9-6.19,20.09-4.93,20.09-4.93
		c0.85,0.04,1.66,0.09,2.46,0.18C454.54,160.07,450.77,189.08,450.77,189.08z"/>
	<path class="st6" d="M450.77,189.08c-1.17-1.14-3.3,0-3.3,0c-0.87-7.73-7.24-12.01-13.34-14.34c2.96-0.49,5.56-1.77,5.87-4.73
		c0.47-4.69-8.76-9.68-15.15-12.73C454.54,160.07,450.77,189.08,450.77,189.08z"/>
	<path class="st5" d="M410.81,176.73c0,0-3.94,4.5-5.07,2.89s-5.31-3.11-9.28,1.73c-2.85,3.5-4.15,5.13-4.89,7.55
		c-0.61-14.57,4.5-22.53,10.72-26.87c-3.12,4.89-7.17,13.4-2.83,13.56c5.96,0.22,9.62-2.2,8.83,0
		C407.49,177.78,410.81,176.73,410.81,176.73z"/>
	<ellipse class="st4" cx="431.96" cy="195.44" rx="2.54" ry="4.15"/>
	<ellipse class="st4" cx="408.28" cy="195.44" rx="2.54" ry="4.15"/>
	<path class="st4" d="M428.61,188.52l0.55-2.44c0,0,5.76-0.87,7.61,2.56C436.76,188.64,430.68,187.89,428.61,188.52z"/>
	<path class="st4" d="M413.09,188.52l-0.55-2.44c0,0-5.76-0.87-7.61,2.56C404.93,188.64,411.01,187.89,413.09,188.52z"/>
	<circle class="st14" cx="391.9" cy="206.54" r="1.7"/>
	<circle class="st14" cx="449.17" cy="206.54" r="1.7"/>
	<g>
		<path class="st8" d="M528.61,214.55c0.64-0.16,13.64-3.69,20.85-7.38c7.22-3.69,19.25-10.75,17.16-12.51c-2.09-1.76-4.49,0-4.49,0
			s6.9-6.42,5.06-7.86c-1.84-1.44-6.5,3.05-6.5,3.05s7.94-6.7,5.78-7.98s-9.95,4.61-9.95,4.61s7.06-7.22,4.01-7.38
			s-11.55,7.38-11.55,7.38l-12.58,6.05c0,0,6.81-9.89,4.38-10.76c-3.03-1.08-10.53,9.68-17.47,17.21
			C515.59,207.38,528.61,214.55,528.61,214.55z"/>
		<path class="st15" d="M535.1,202.98c0,0,5.89-3.23,9.48-2.69s7.12-0.06,7.12-0.06l9.22-4.86"/>
		<line class="st15" x1="555.46" y1="187.23" x2="547.01" y2="192.53"/>
		<line class="st15" x1="561.61" y1="189.04" x2="550.47" y2="195.68"/>
		<path class="st15" d="M536.72,193.53c1.23,0.77-0.16,4.23-0.77,4.99"/>
	</g>
	<g>
		<path class="st8" d="M313.58,215.11c-0.64-0.16-13.64-3.69-20.85-7.38c-7.22-3.69-19.25-10.75-17.16-12.51
			c2.09-1.76,4.49,0,4.49,0s-6.9-6.42-5.06-7.86c1.84-1.44,6.5,3.05,6.5,3.05s-7.94-6.7-5.78-7.98c2.17-1.28,9.95,4.61,9.95,4.61
			s-7.06-7.22-4.01-7.38c3.05-0.16,11.55,7.38,11.55,7.38l12.58,6.05c0,0-6.81-9.89-4.38-10.76c3.03-1.08,10.53,9.68,17.47,17.21
			C326.61,207.94,313.58,215.11,313.58,215.11z"/>
		<path class="st15" d="M307.09,203.54c0,0-5.89-3.23-9.48-2.69s-7.12-0.06-7.12-0.06l-9.22-4.86"/>
		<line class="st15" x1="286.73" y1="187.79" x2="295.19" y2="193.09"/>
		<line class="st15" x1="280.59" y1="189.6" x2="291.73" y2="196.24"/>
		<path class="st15" d="M305.48,194.09c-1.23,0.77,0.16,4.23,0.77,4.99"/>
	</g>
	<polygon class="st14" points="409.01,237.78 406.35,272.69 402.82,319 371.15,333.57 379,273.16 380.7,260.16 381.29,255.61 
		381.1,255.49 336.99,230.41 308.19,214.03 316.59,196.83 	"/>
	<polygon class="st16" points="381.46,251.06 381.1,255.49 336.99,230.41 	"/>
	<path class="st16" d="M406.35,272.69L402.82,319l-31.67,14.57l7.85-60.41C392.72,280.13,401.98,275.89,406.35,272.69z"/>
	<polygon class="st14" points="461.46,260.2 469.36,333.57 437.7,319 433.6,265.44 431.49,237.78 517.5,199.68 523.13,197.17 
		523.93,196.83 532.32,214.03 460.86,254.69 461.46,260.16 	"/>
	<path class="st16" d="M460.86,254.69l0.6,5.47l-1.64-9.1l63.91-38.17c0,0-0.42-9.3-0.6-15.73l0.79-0.34l8.4,17.21L460.86,254.69z"
		/>
	<path class="st16" d="M460.86,254.69l8.5,78.88L437.7,319l-4.1-53.57c17.48-33.89,48.64-35.87,64.71-45.41
		c10.81-6.43,16.25-14.57,19.19-20.35l6.43-2.85l8.4,17.21L460.86,254.69z"/>
	<path class="st17" d="M574.46,393.46c-6.28,0-12.17,1.64-17.29,4.5l-8.94-16.07c3.56-5.54,5.64-12.11,5.64-19.18
		c0-19.65-15.93-35.57-35.57-35.57c-7.77,0-14.94,2.52-20.79,6.75l-15.16-7.26c3.56-5.54,5.65-12.12,5.65-19.2
		c0-19.65-15.93-35.57-35.57-35.57c-19.65,0-35.57,15.93-35.57,35.57c0,1.8,0.15,3.55,0.41,5.28l-9.7-0.22
		c0.14-1.3,0.24-2.61,0.24-3.95c0-19.65-15.93-35.57-35.57-35.57c-19.65,0-35.57,15.93-35.57,35.57c0,7.08,2.09,13.66,5.65,19.2
		l-15.16,7.26c-5.85-4.23-13.02-6.75-20.79-6.75c-19.65,0-35.57,15.93-35.57,35.57c0,7.07,2.09,13.64,5.64,19.18l-8.94,16.07
		c-5.12-2.86-11.01-4.5-17.29-4.5c-19.65,0-35.57,15.93-35.57,35.57c0,19.65,15.93,35.57,35.57,35.57c3.77,0,7.39-0.6,10.8-1.68
		c-0.21,1.55-0.35,3.11-0.35,4.72c0,19.65,15.93,35.57,35.57,35.57c19.4,0,35.15-15.54,35.54-34.86l2.79,1.34
		c0.17,19.5,16.02,35.26,35.56,35.26c19.65,0,35.57-15.93,35.57-35.57c0-5.38-1.21-10.48-3.36-15.04c7.05-1.1,14.24-2.23,21.11-3.31
		c-2.85,5.1-4.47,10.98-4.47,17.25c0,19.65,15.93,35.57,35.57,35.57c19.54,0,35.39-15.76,35.56-35.26l2.79-1.34
		c0.39,19.31,16.13,34.86,35.54,34.86c19.65,0,35.57-15.93,35.57-35.57c0-1.6-0.14-3.17-0.35-4.72c3.41,1.09,7.03,1.68,10.8,1.68
		c19.65,0,35.57-15.93,35.57-35.57C610.03,409.39,594.1,393.46,574.46,393.46z"/>
	<g>
		<circle class="st18" cx="416.86" cy="469.69" r="35.57"/>
		<circle class="st17" cx="416.86" cy="469.69" r="25.44"/>
		<path class="st18" d="M414.91,486.49c-0.05,0.64-0.05,0.64-0.72,0.69c-0.14,0-0.28,0-0.43,0c-0.43,0-0.85,0-1.28,0
			c-0.14,0-0.28,0-0.43,0c-0.54,0.09-0.41-0.31-0.44-0.6c0-0.14,0-0.28,0-0.43c0-0.43,0-0.85,0-1.28c0-0.14,0-0.28,0-0.43
			c0-0.43,0-0.85,0-1.28c0-0.14,0-0.28,0-0.43c0.01-0.12,0.01-0.25,0.01-0.37c0-0.58,0-0.58-0.59-0.55c-0.14,0-0.28-0.01-0.43-0.01
			c-0.43,0-0.85,0-1.28,0c-0.14,0-0.28,0-0.43,0c-0.43,0-0.85,0-1.28,0c-0.14,0-0.28,0-0.43,0c-0.43,0-0.85,0-1.28,0
			c-0.14,0-0.28,0-0.43,0c-0.25,0.01-0.41-0.04-0.3-0.35c0.05-0.13,0.04-0.28,0.05-0.42c0.09-0.16,0.09-0.34,0.08-0.51
			c0.13-0.5,0.22-1.01,0.26-1.53c0.1-0.16,0.09-0.34,0.08-0.51c0.02-0.04,0.06-0.07,0.05-0.11c-0.03-0.39,0.18-0.52,0.54-0.49
			c0.14,0,0.28,0,0.43,0c0.43,0,0.85,0,1.28,0c0.95,0.07,1.43-0.4,1.36-1.36c0-0.43,0-0.85,0-1.28c0-0.14,0-0.28,0-0.43
			c0-0.43,0-0.85,0-1.28c0-0.14,0-0.28,0-0.43c0-0.43,0-0.85,0-1.28c0-0.14,0-0.28,0-0.43c0-0.43,0-0.85,0-1.28
			c0-0.14,0-0.28,0-0.43c0-0.43,0-0.85,0-1.28c0-0.14,0-0.28,0-0.43c0-0.43,0-0.85,0-1.28c0-0.14,0-0.28,0-0.43
			c0-0.43,0-0.85,0-1.28c0-0.14,0-0.28,0-0.43c0-0.43,0-0.85,0-1.28c0-0.14,0-0.28,0-0.43c0.05-0.39,0.04-0.76-0.19-1.1
			c-0.04-0.11-0.09-0.21-0.2-0.27c-0.24-0.33-0.57-0.48-0.97-0.5c-0.14-0.07-0.28-0.09-0.43-0.05c-0.42,0-0.85,0-1.27,0
			c-0.14,0-0.29,0-0.43,0c-0.15-0.01-0.3-0.03-0.45-0.01c-0.23,0.03-0.23-0.12-0.24-0.27c0-0.14,0-0.28,0-0.43c0-0.43,0-0.85,0-1.28
			c0-0.14,0-0.28,0-0.43c0.01-0.34-0.1-0.76,0.07-0.98c0.18-0.23,0.63-0.04,0.96-0.09c0.04-0.01,0.07-0.04,0.1-0.06
			c0.13,0.12,0.27,0.07,0.42,0.04c0.42,0.03,0.85,0.08,1.27,0.03c0.14,0,0.29,0,0.43,0c0.42,0,0.85,0,1.27,0c0.14,0,0.29,0,0.43,0
			c0.42,0.01,0.85,0.07,1.27-0.04c0.09,0.03,0.19,0.08,0.24-0.04c0.03-0.08,0.06-0.19-0.06-0.24c0.16-0.41,0.05-0.84,0.07-1.27
			c-0.01-0.12,0.08-0.25-0.06-0.34c0.13-0.45,0.07-0.9,0.06-1.36c-0.01-0.12,0.08-0.25-0.06-0.34c0.13-0.45,0.07-0.9,0.06-1.36
			c-0.05-0.3,0.16-0.3,0.36-0.32c0.42,0.04,0.85,0.04,1.27,0c0.14,0.05,0.29,0.05,0.43,0c0.39,0.01,0.78,0.01,1.17,0.02
			c0.02,0.07,0.03,0.15,0.05,0.22c0,0.4,0,0.79,0,1.19c0,0.14,0,0.29,0,0.43c0,0.42,0,0.85,0,1.27c0,0.14,0,0.29,0,0.43
			c0,0.42,0,0.85,0,1.27c-0.1,0.39,0.12,0.39,0.39,0.34c0.43-0.01,0.85-0.02,1.28-0.02c1.02,0.01,0.88,0.21,0.85-0.82
			c0-0.43,0-0.85,0-1.28c0-0.14,0-0.28,0-0.43c0-0.43,0-0.85,0-1.28c0-0.12,0.09-0.26-0.06-0.35c0.04-0.19,0.11-0.37,0.08-0.57
			c-0.06-0.35,0.09-0.45,0.42-0.41c0.16,0.02,0.34-0.01,0.5-0.02c0.14,0.05,0.29,0.05,0.43,0c0.42,0.04,0.85,0.04,1.27,0
			c0.14,0.05,0.29,0.05,0.43,0c0.37,0.17,0.09,0.51,0.2,0.75c0,0.14,0,0.29,0,0.43c0,0.42,0,0.85,0,1.27c0,0.14,0,0.29,0,0.43
			c0,0.42,0,0.85,0,1.27c0,0.17,0,0.34,0,0.51c-0.03,0.7-0.15,0.66,0.73,0.68c0.13,0.08,0.28,0.08,0.43,0.07
			c0.37,0.06,0.74,0.12,1.11,0.18c0.11,0.06,0.22,0.09,0.34,0.08c0.34,0.09,0.68,0.18,1.02,0.27c0.07,0.08,0.16,0.08,0.25,0.09
			c0.28,0.11,0.55,0.23,0.83,0.34c0.1,0.1,0.22,0.15,0.36,0.18c0.23,0.14,0.45,0.27,0.68,0.41c0.12,0.09,0.23,0.18,0.35,0.26
			c0.2,0.2,0.39,0.39,0.59,0.59c0.09,0.12,0.18,0.23,0.26,0.35c0.12,0.22,0.25,0.44,0.37,0.67c0.04,0.09,0.09,0.17,0.13,0.26
			c0.1,0.34,0.19,0.68,0.29,1.02c-0.01,0.12,0,0.24,0.07,0.34c0.02,0.4,0.05,0.79,0.07,1.19c-0.01,0.17-0.02,0.34-0.03,0.52
			c-0.06,0.55-0.2,1.09-0.38,1.62c-0.18,0.31-0.35,0.62-0.53,0.93c-0.49,0.58-1.06,1.07-1.81,1.47c0.5,0.16,0.9,0.29,1.31,0.42
			c0.1,0.09,0.22,0.14,0.35,0.17c0.25,0.14,0.5,0.29,0.75,0.43c0.12,0.09,0.24,0.17,0.35,0.26c0.18,0.16,0.35,0.33,0.53,0.49
			c0.11,0.12,0.21,0.24,0.32,0.36c0.14,0.22,0.29,0.44,0.43,0.67c0.03,0.13,0.07,0.26,0.16,0.36c0.09,0.28,0.17,0.55,0.26,0.83
			c0,0.12-0.01,0.24,0.07,0.35c0.03,0.39,0.06,0.79,0.1,1.18c-0.05,0.17-0.05,0.35,0,0.52c-0.05,0.45-0.1,0.9-0.15,1.36
			c-0.07,0.16-0.11,0.33-0.1,0.51c-0.23,0.74-0.49,1.48-0.91,2.14c-0.46,0.7-1.05,1.27-1.74,1.73c-0.69,0.42-1.45,0.7-2.2,0.99
			c-0.21,0.01-0.41,0.08-0.6,0.17c-0.51,0.1-1.02,0.19-1.53,0.29c-0.19,0.02-0.37,0.04-0.56,0.07c-0.44,0.05-0.87,0.09-1.31,0.14
			c-0.7,0-0.7,0-0.65,0.61c0,0.4,0,0.79,0,1.19c0,0.17,0,0.34,0,0.51c0,0.4,0,0.79,0,1.19c0,0.17,0,0.35,0,0.52
			c0,0.39,0,0.78,0,1.18c-0.03,0.06-0.02,0.15-0.12,0.18c-0.43,0-0.85,0-1.28,0c-0.14,0-0.28,0-0.43,0c-0.43,0-0.85,0-1.28,0
			c-0.05-0.01-0.09-0.01-0.14-0.02c-0.01-0.42-0.02-0.84-0.04-1.26c0-0.14,0-0.28,0-0.43c0-0.43,0-0.85,0-1.28c0-0.14,0-0.28,0-0.43
			c0-0.43,0-0.85,0-1.28c0-0.12,0.09-0.26-0.06-0.35c0.03-0.14,0.1-0.28-0.17-0.25c-0.37,0.03-0.75,0.02-1.13,0.02
			c-0.14,0-0.28-0.01-0.43-0.01c-0.91-0.03-0.75-0.12-0.73,0.68c0,0.17,0,0.34,0,0.51c0,0.4,0,0.79,0,1.19c0,0.14,0,0.29,0,0.43
			c0,0.42,0,0.85,0,1.27C414.91,486.15,414.91,486.32,414.91,486.49z M415.9,461.21c-0.96-0.06-0.96-0.06-0.93,0.89
			c0,0.01,0,0.03,0.01,0.04c0,0.14,0,0.28,0,0.43c0,0.43,0,0.85,0,1.28c0,0.14,0,0.28,0,0.43c0,0.43,0,0.85,0,1.28
			c0,0.14,0,0.28,0,0.43c0,0.43,0,0.85,0,1.28c-0.07,0.28,0.02,0.42,0.33,0.35c0.4,0.06,0.79,0.05,1.19,0.01
			c0.17,0.07,0.34,0.02,0.52-0.02c0.46,0.01,0.91,0.04,1.36-0.08c0.17,0.01,0.35,0.02,0.51-0.07c0.58-0.08,1.17-0.17,1.71-0.44
			c0.82-0.37,1.55-0.83,1.77-1.8c0.16-0.43,0.13-0.86,0.07-1.3c-0.02-0.14-0.03-0.29-0.12-0.41c-0.06-0.33-0.23-0.6-0.46-0.84
			c-0.05-0.12-0.13-0.21-0.24-0.27c-0.2-0.25-0.47-0.41-0.77-0.51c-0.1-0.09-0.21-0.13-0.34-0.15c-0.3-0.14-0.6-0.25-0.93-0.28
			c-0.13-0.1-0.28-0.09-0.43-0.08c-0.36-0.11-0.73-0.13-1.11-0.15c-0.14,0-0.28-0.01-0.43-0.01c-0.43-0.08-0.85-0.06-1.28,0
			C416.18,461.21,416.04,461.21,415.9,461.21z M414.97,471.08c0,0.43,0,0.85,0,1.28c0,0.14,0,0.28,0,0.43c0,0.43,0,0.85,0,1.28
			c0,0.14,0,0.28,0,0.43c0,0.43,0,0.85,0,1.28c0,0.14,0,0.28,0,0.43c0,0.43,0,0.85,0,1.28c0.05,0.17-0.2,0.48,0.23,0.48
			c0.4,0,0.8,0,1.2,0c0.17,0,0.35,0,0.52,0c0.43,0.04,0.85,0.01,1.27-0.06c0.14,0,0.28,0,0.43-0.01c0.49-0.01,0.97-0.09,1.45-0.18
			c0.2-0.04,0.41-0.03,0.6-0.13c0.87-0.14,1.67-0.46,2.34-1.03c0.67-0.57,1-1.32,0.95-2.22c0.04-0.15,0-0.29-0.06-0.43
			c0-0.35-0.14-0.66-0.34-0.94c-0.04-0.15-0.12-0.27-0.24-0.36c-0.14-0.26-0.35-0.44-0.6-0.58c-0.09-0.12-0.22-0.17-0.35-0.23
			c-0.29-0.17-0.6-0.31-0.93-0.37c-0.09-0.1-0.21-0.09-0.33-0.12c-0.33-0.12-0.67-0.23-1.03-0.23c-0.1-0.08-0.22-0.08-0.34-0.07
			c-0.39-0.08-0.79-0.12-1.19-0.1c-0.14-0.08-0.28-0.04-0.43-0.05c-0.4-0.04-0.79-0.05-1.19-0.02c-0.17,0.01-0.34,0.01-0.51,0.02
			c-0.4-0.04-0.79-0.01-1.19,0.04C415.04,470.84,414.92,470.85,414.97,471.08z"/>
	</g>
	<g>
		<g>
			<circle class="st18" cx="252.76" cy="469.39" r="35.57"/>
			<circle class="st17" cx="252.76" cy="469.39" r="25.44"/>
		</g>
		<g>
			<polygon class="st18" points="265.18,469.36 252.76,477.39 240.33,469.25 240.37,469.17 252.76,448.8 265.1,469.21 			"/>
			<polygon class="st18" points="265.18,471.55 252.76,489.99 241.51,472.19 252.76,479.49 			"/>
			<polygon class="st19" points="265.18,469.36 252.76,477.39 252.76,448.8 			"/>
			<polygon class="st19" points="265.18,469.36 252.76,477.39 240.33,469.25 240.37,469.17 252.76,462.55 265.1,469.21 			"/>
			<polygon class="st19" points="265.18,471.55 252.76,489.99 252.76,479.49 			"/>
		</g>
	</g>
	<g>
		<g>
			<circle class="st18" cx="334.56" cy="469.69" r="35.57"/>
			<circle class="st17" cx="334.56" cy="469.69" r="25.44"/>
		</g>
		<path class="st18" d="M340.8,471.7c-0.63,0-1.23,0.1-1.82,0.26c-1.22-1.97-0.46-3.5,0.34-4.41c0.48,0.1,0.97,0.15,1.48,0.15
			c4.05,0,7.33-3.28,7.33-7.33c0-4.05-3.28-7.33-7.33-7.33s-7.33,3.28-7.33,7.33c0,1.86,0.72,3.54,1.86,4.84
			c-0.63,2.46-2.73,2.79-3.59,2.8c-0.87-3.08-3.67-5.35-7.03-5.35c-4.05,0-7.33,3.28-7.33,7.33c0,4.05,3.28,7.33,7.33,7.33
			c3.39,0,6.21-2.31,7.05-5.44c2.93-1.12,3.74,0.91,3.95,1.88c-1.38,1.33-2.25,3.2-2.25,5.27c0,4.05,3.28,7.33,7.33,7.33
			s7.33-3.28,7.33-7.33C348.13,474.98,344.85,471.7,340.8,471.7z"/>
	</g>
	<g>
		<g>
			<circle class="st18" cx="588.26" cy="469.39" r="35.57"/>
			<circle class="st17" cx="588.26" cy="469.39" r="25.44"/>
		</g>
		<g>
			<polygon class="st18" points="600.69,469.36 588.26,477.39 575.84,469.25 575.88,469.17 588.26,448.8 600.61,469.21 			"/>
			<polygon class="st18" points="600.69,471.55 588.26,489.99 577.02,472.19 588.26,479.49 			"/>
			<polygon class="st19" points="600.69,469.36 588.26,477.39 588.26,448.8 			"/>
			<polygon class="st19" points="600.69,469.36 588.26,477.39 575.84,469.25 575.88,469.17 588.26,462.55 600.61,469.21 			"/>
			<polygon class="st19" points="600.69,471.55 588.26,489.99 588.26,479.49 			"/>
		</g>
	</g>
	<g>
		<g>
			<circle class="st18" cx="503.37" cy="472.47" r="35.57"/>
			<circle class="st17" cx="503.37" cy="472.47" r="25.44"/>
		</g>
		<path class="st18" d="M509.61,474.47c-0.63,0-1.24,0.1-1.82,0.26c-1.22-1.97-0.46-3.5,0.34-4.41c0.48,0.1,0.97,0.15,1.48,0.15
			c4.05,0,7.33-3.28,7.33-7.33c0-4.05-3.28-7.33-7.33-7.33c-4.05,0-7.33,3.28-7.33,7.33c0,1.86,0.72,3.54,1.86,4.84
			c-0.63,2.46-2.73,2.79-3.59,2.8c-0.87-3.08-3.67-5.35-7.03-5.35c-4.05,0-7.33,3.28-7.33,7.33c0,4.05,3.28,7.33,7.33,7.33
			c3.39,0,6.21-2.31,7.05-5.44c2.93-1.12,3.74,0.91,3.95,1.88c-1.38,1.33-2.25,3.2-2.25,5.27c0,4.05,3.28,7.33,7.33,7.33
			c4.05,0,7.33-3.28,7.33-7.33C516.95,477.75,513.67,474.47,509.61,474.47z"/>
	</g>
	<g>
		<circle class="st18" cx="378.55" cy="398.28" r="35.57"/>
		<circle class="st17" cx="378.55" cy="398.28" r="25.44"/>
		<path class="st18" d="M376.6,415.08c-0.05,0.64-0.05,0.64-0.72,0.69c-0.14,0-0.28,0-0.43,0c-0.43,0-0.85,0-1.28,0
			c-0.14,0-0.28,0-0.43,0c-0.54,0.09-0.41-0.31-0.44-0.6c0-0.14,0-0.28,0-0.43c0-0.43,0-0.85,0-1.28c0-0.14,0-0.28,0-0.43
			c0-0.43,0-0.85,0-1.28c0-0.14,0-0.28,0-0.43c0.01-0.12,0.01-0.25,0.01-0.37c0-0.58,0-0.58-0.59-0.55c-0.14,0-0.28-0.01-0.43-0.01
			c-0.43,0-0.85,0-1.28,0c-0.14,0-0.28,0-0.43,0c-0.43,0-0.85,0-1.28,0c-0.14,0-0.28,0-0.43,0c-0.43,0-0.85,0-1.28,0
			c-0.14,0-0.28,0-0.43,0c-0.25,0.01-0.41-0.04-0.3-0.35c0.05-0.13,0.04-0.28,0.05-0.42c0.09-0.16,0.09-0.34,0.08-0.51
			c0.13-0.5,0.22-1.01,0.26-1.53c0.1-0.16,0.09-0.34,0.08-0.51c0.02-0.04,0.06-0.07,0.05-0.11c-0.03-0.39,0.18-0.52,0.54-0.49
			c0.14,0,0.28,0,0.43,0c0.43,0,0.85,0,1.28,0c0.95,0.07,1.43-0.4,1.36-1.36c0-0.43,0-0.85,0-1.28c0-0.14,0-0.28,0-0.43
			c0-0.43,0-0.85,0-1.28c0-0.14,0-0.28,0-0.43c0-0.43,0-0.85,0-1.28c0-0.14,0-0.28,0-0.43c0-0.43,0-0.85,0-1.28
			c0-0.14,0-0.28,0-0.43c0-0.43,0-0.85,0-1.28c0-0.14,0-0.28,0-0.43c0-0.43,0-0.85,0-1.28c0-0.14,0-0.28,0-0.43
			c0-0.43,0-0.85,0-1.28c0-0.14,0-0.28,0-0.43c0-0.43,0-0.85,0-1.28c0-0.14,0-0.28,0-0.43c0.05-0.39,0.04-0.76-0.19-1.1
			c-0.04-0.11-0.09-0.21-0.2-0.27c-0.24-0.33-0.57-0.48-0.97-0.5c-0.14-0.07-0.28-0.09-0.43-0.05c-0.42,0-0.85,0-1.27,0
			c-0.14,0-0.29,0-0.43,0c-0.15-0.01-0.3-0.03-0.45-0.01c-0.23,0.03-0.23-0.12-0.24-0.27c0-0.14,0-0.28,0-0.43c0-0.43,0-0.85,0-1.28
			c0-0.14,0-0.28,0-0.43c0.01-0.34-0.1-0.76,0.07-0.98c0.18-0.23,0.63-0.04,0.96-0.09c0.04-0.01,0.07-0.04,0.1-0.06
			c0.13,0.12,0.27,0.07,0.42,0.04c0.42,0.03,0.85,0.08,1.27,0.03c0.14,0,0.29,0,0.43,0c0.42,0,0.85,0,1.27,0c0.14,0,0.29,0,0.43,0
			c0.42,0.01,0.85,0.07,1.27-0.04c0.09,0.03,0.19,0.08,0.24-0.04c0.03-0.08,0.06-0.19-0.06-0.24c0.16-0.41,0.05-0.84,0.07-1.27
			c-0.01-0.12,0.08-0.25-0.06-0.34c0.13-0.45,0.07-0.9,0.06-1.36c-0.01-0.12,0.08-0.25-0.06-0.34c0.13-0.45,0.07-0.9,0.06-1.36
			c-0.05-0.3,0.16-0.3,0.36-0.32c0.42,0.04,0.85,0.04,1.27,0c0.14,0.05,0.29,0.05,0.43,0c0.39,0.01,0.78,0.01,1.17,0.02
			c0.02,0.07,0.03,0.15,0.05,0.22c0,0.4,0,0.79,0,1.19c0,0.14,0,0.29,0,0.43c0,0.42,0,0.85,0,1.27c0,0.14,0,0.29,0,0.43
			c0,0.42,0,0.85,0,1.27c-0.1,0.39,0.12,0.39,0.39,0.34c0.43-0.01,0.85-0.02,1.28-0.02c1.02,0.01,0.88,0.21,0.85-0.82
			c0-0.43,0-0.85,0-1.28c0-0.14,0-0.28,0-0.43c0-0.43,0-0.85,0-1.28c0-0.12,0.09-0.26-0.06-0.35c0.04-0.19,0.11-0.37,0.08-0.57
			c-0.06-0.35,0.09-0.45,0.42-0.41c0.16,0.02,0.34-0.01,0.5-0.02c0.14,0.05,0.29,0.05,0.43,0c0.42,0.04,0.85,0.04,1.27,0
			c0.14,0.05,0.29,0.05,0.43,0c0.37,0.17,0.09,0.51,0.2,0.75c0,0.14,0,0.29,0,0.43c0,0.42,0,0.85,0,1.27c0,0.14,0,0.29,0,0.43
			c0,0.42,0,0.85,0,1.27c0,0.17,0,0.34,0,0.51c-0.03,0.7-0.15,0.66,0.73,0.68c0.13,0.08,0.28,0.08,0.43,0.07
			c0.37,0.06,0.74,0.12,1.11,0.18c0.11,0.06,0.22,0.09,0.34,0.08c0.34,0.09,0.68,0.18,1.02,0.27c0.07,0.08,0.16,0.08,0.25,0.09
			c0.28,0.11,0.55,0.23,0.83,0.34c0.1,0.1,0.22,0.15,0.36,0.18c0.23,0.14,0.45,0.27,0.68,0.41c0.12,0.09,0.23,0.18,0.35,0.26
			c0.2,0.2,0.39,0.39,0.59,0.59c0.09,0.12,0.18,0.23,0.26,0.35c0.12,0.22,0.25,0.44,0.37,0.67c0.04,0.09,0.09,0.17,0.13,0.26
			c0.1,0.34,0.19,0.68,0.29,1.02c-0.01,0.12,0,0.24,0.07,0.34c0.02,0.4,0.05,0.79,0.07,1.19c-0.01,0.17-0.02,0.34-0.03,0.52
			c-0.06,0.55-0.2,1.09-0.38,1.62c-0.18,0.31-0.35,0.62-0.53,0.93c-0.49,0.58-1.06,1.07-1.81,1.47c0.5,0.16,0.9,0.29,1.31,0.42
			c0.1,0.09,0.22,0.14,0.35,0.17c0.25,0.14,0.5,0.29,0.75,0.43c0.12,0.09,0.24,0.17,0.35,0.26c0.18,0.16,0.35,0.33,0.53,0.49
			c0.11,0.12,0.21,0.24,0.32,0.36c0.14,0.22,0.29,0.44,0.43,0.67c0.03,0.13,0.07,0.26,0.16,0.36c0.09,0.28,0.17,0.55,0.26,0.83
			c0,0.12-0.01,0.24,0.07,0.35c0.03,0.39,0.06,0.79,0.1,1.18c-0.05,0.17-0.05,0.35,0,0.52c-0.05,0.45-0.1,0.9-0.15,1.36
			c-0.07,0.16-0.11,0.33-0.1,0.51c-0.23,0.74-0.49,1.48-0.91,2.14c-0.46,0.7-1.05,1.27-1.74,1.73c-0.69,0.42-1.45,0.7-2.2,0.99
			c-0.21,0.01-0.41,0.08-0.6,0.17c-0.51,0.1-1.02,0.19-1.53,0.29c-0.19,0.02-0.37,0.04-0.56,0.07c-0.44,0.05-0.87,0.09-1.31,0.14
			c-0.7,0-0.7,0-0.65,0.61c0,0.4,0,0.79,0,1.19c0,0.17,0,0.34,0,0.51c0,0.4,0,0.79,0,1.19c0,0.17,0,0.35,0,0.52
			c0,0.39,0,0.78,0,1.18c-0.03,0.06-0.02,0.15-0.12,0.18c-0.43,0-0.85,0-1.28,0c-0.14,0-0.28,0-0.43,0c-0.43,0-0.85,0-1.28,0
			c-0.05-0.01-0.09-0.01-0.14-0.02c-0.01-0.42-0.02-0.84-0.04-1.26c0-0.14,0-0.28,0-0.43c0-0.43,0-0.85,0-1.28c0-0.14,0-0.28,0-0.43
			c0-0.43,0-0.85,0-1.28c0-0.12,0.09-0.26-0.06-0.35c0.03-0.14,0.1-0.28-0.17-0.25c-0.37,0.03-0.75,0.02-1.13,0.02
			c-0.14,0-0.28-0.01-0.43-0.01c-0.91-0.03-0.75-0.12-0.73,0.68c0,0.17,0,0.34,0,0.51c0,0.4,0,0.79,0,1.19c0,0.14,0,0.29,0,0.43
			c0,0.42,0,0.85,0,1.27C376.6,414.74,376.6,414.91,376.6,415.08z M377.59,389.8c-0.96-0.06-0.96-0.06-0.93,0.89
			c0,0.01,0,0.03,0.01,0.04c0,0.14,0,0.28,0,0.43c0,0.43,0,0.85,0,1.28c0,0.14,0,0.28,0,0.43c0,0.43,0,0.85,0,1.28
			c0,0.14,0,0.28,0,0.43c0,0.43,0,0.85,0,1.28c-0.07,0.28,0.02,0.42,0.33,0.35c0.4,0.06,0.79,0.05,1.19,0.01
			c0.17,0.07,0.34,0.02,0.52-0.02c0.46,0.01,0.91,0.04,1.36-0.08c0.17,0.01,0.35,0.02,0.51-0.07c0.58-0.08,1.17-0.17,1.71-0.44
			c0.82-0.37,1.55-0.83,1.77-1.8c0.16-0.43,0.13-0.86,0.07-1.3c-0.02-0.14-0.03-0.29-0.12-0.41c-0.06-0.33-0.23-0.6-0.46-0.84
			c-0.05-0.12-0.13-0.21-0.24-0.27c-0.2-0.25-0.47-0.41-0.77-0.51c-0.1-0.09-0.21-0.13-0.34-0.15c-0.3-0.14-0.6-0.25-0.93-0.28
			c-0.13-0.1-0.28-0.09-0.43-0.08c-0.36-0.11-0.73-0.13-1.11-0.15c-0.14,0-0.28-0.01-0.43-0.01c-0.43-0.08-0.85-0.06-1.28,0
			C377.87,389.8,377.73,389.8,377.59,389.8z M376.67,399.67c0,0.43,0,0.85,0,1.28c0,0.14,0,0.28,0,0.43c0,0.43,0,0.85,0,1.28
			c0,0.14,0,0.28,0,0.43c0,0.43,0,0.85,0,1.28c0,0.14,0,0.28,0,0.43c0,0.43,0,0.85,0,1.28c0.05,0.17-0.2,0.48,0.23,0.48
			c0.4,0,0.8,0,1.2,0c0.17,0,0.35,0,0.52,0c0.43,0.04,0.85,0.01,1.27-0.06c0.14,0,0.28,0,0.43-0.01c0.49-0.01,0.97-0.09,1.45-0.18
			c0.2-0.04,0.41-0.03,0.6-0.13c0.87-0.14,1.67-0.46,2.34-1.03c0.67-0.57,1-1.32,0.95-2.22c0.04-0.15,0-0.29-0.06-0.43
			c0-0.35-0.14-0.66-0.34-0.94c-0.04-0.15-0.12-0.27-0.24-0.36c-0.14-0.26-0.35-0.44-0.6-0.58c-0.09-0.12-0.22-0.17-0.35-0.23
			c-0.29-0.17-0.6-0.31-0.93-0.37c-0.09-0.1-0.21-0.09-0.33-0.12c-0.33-0.12-0.67-0.23-1.03-0.23c-0.1-0.08-0.22-0.08-0.34-0.07
			c-0.39-0.08-0.79-0.12-1.19-0.1c-0.14-0.08-0.28-0.04-0.43-0.05c-0.4-0.04-0.79-0.05-1.19-0.02c-0.17,0.01-0.34,0.01-0.51,0.02
			c-0.4-0.04-0.79-0.01-1.19,0.04C376.74,399.43,376.61,399.44,376.67,399.67z"/>
	</g>
	<g>
		<g>
			<circle class="st18" cx="296.25" cy="398.28" r="35.57"/>
			<circle class="st17" cx="296.25" cy="398.28" r="25.44"/>
		</g>
		<path class="st18" d="M302.49,400.29c-0.63,0-1.23,0.1-1.82,0.26c-1.22-1.97-0.46-3.5,0.34-4.41c0.48,0.1,0.97,0.15,1.48,0.15
			c4.05,0,7.33-3.28,7.33-7.33c0-4.05-3.28-7.33-7.33-7.33s-7.33,3.28-7.33,7.33c0,1.86,0.72,3.54,1.86,4.84
			c-0.63,2.46-2.73,2.79-3.59,2.8c-0.87-3.08-3.67-5.35-7.03-5.35c-4.05,0-7.33,3.28-7.33,7.33c0,4.05,3.28,7.33,7.33,7.33
			c3.39,0,6.21-2.31,7.05-5.44c2.93-1.12,3.74,0.91,3.95,1.88c-1.38,1.33-2.25,3.2-2.25,5.27c0,4.05,3.28,7.33,7.33,7.33
			s7.33-3.28,7.33-7.33C309.82,403.57,306.54,400.29,302.49,400.29z"/>
	</g>
	<g>
		<g>
			<circle class="st18" cx="460.86" cy="397.98" r="35.57"/>
			<circle class="st17" cx="460.86" cy="397.98" r="25.44"/>
		</g>
		<g>
			<polygon class="st18" points="473.29,397.95 460.86,405.98 448.44,397.84 448.48,397.76 460.86,377.39 473.21,397.8 			"/>
			<polygon class="st18" points="473.29,400.14 460.86,418.58 449.62,400.78 460.86,408.08 			"/>
			<polygon class="st19" points="473.29,397.95 460.86,405.98 460.86,377.39 			"/>
			<polygon class="st19" points="473.29,397.95 460.86,405.98 448.44,397.84 448.48,397.76 460.86,391.15 473.21,397.8 			"/>
			<polygon class="st19" points="473.29,400.14 460.86,418.58 460.86,408.08 			"/>
		</g>
	</g>
	<g>
		<g>
			<circle class="st18" cx="542.66" cy="398.28" r="35.57"/>
			<circle class="st17" cx="542.66" cy="398.28" r="25.44"/>
		</g>
		<path class="st18" d="M548.91,400.29c-0.63,0-1.23,0.1-1.82,0.26c-1.22-1.97-0.46-3.5,0.34-4.41c0.48,0.1,0.97,0.15,1.48,0.15
			c4.05,0,7.33-3.28,7.33-7.33c0-4.05-3.28-7.33-7.33-7.33c-4.05,0-7.33,3.28-7.33,7.33c0,1.86,0.72,3.54,1.86,4.84
			c-0.63,2.46-2.73,2.79-3.59,2.8c-0.87-3.08-3.67-5.35-7.03-5.35c-4.05,0-7.33,3.28-7.33,7.33c0,4.05,3.28,7.33,7.33,7.33
			c3.39,0,6.21-2.31,7.05-5.44c2.93-1.12,3.74,0.91,3.95,1.88c-1.38,1.33-2.25,3.2-2.25,5.27c0,4.05,3.28,7.33,7.33,7.33
			c4.05,0,7.33-3.28,7.33-7.33C556.24,403.57,552.96,400.29,548.91,400.29z"/>
	</g>
	<g>
		<circle class="st18" cx="501.68" cy="324.1" r="35.57"/>
		<circle class="st17" cx="501.68" cy="324.1" r="25.44"/>
		<path class="st18" d="M499.73,340.9c-0.05,0.64-0.05,0.64-0.72,0.69c-0.14,0-0.28,0-0.43,0c-0.43,0-0.85,0-1.28,0
			c-0.14,0-0.28,0-0.43,0c-0.54,0.09-0.41-0.31-0.44-0.6c0-0.14,0-0.28,0-0.43c0-0.43,0-0.85,0-1.28c0-0.14,0-0.28,0-0.43
			c0-0.43,0-0.85,0-1.28c0-0.14,0-0.28,0-0.43c0.01-0.12,0.01-0.25,0.01-0.37c0-0.58,0-0.58-0.59-0.55c-0.14,0-0.28-0.01-0.43-0.01
			c-0.43,0-0.85,0-1.28,0c-0.14,0-0.28,0-0.43,0c-0.43,0-0.85,0-1.28,0c-0.14,0-0.28,0-0.43,0c-0.43,0-0.85,0-1.28,0
			c-0.14,0-0.28,0-0.43,0c-0.25,0.01-0.41-0.04-0.3-0.35c0.05-0.13,0.04-0.28,0.05-0.42c0.09-0.16,0.09-0.34,0.08-0.51
			c0.13-0.5,0.22-1.01,0.26-1.53c0.1-0.16,0.09-0.34,0.08-0.51c0.02-0.04,0.06-0.07,0.05-0.11c-0.03-0.39,0.18-0.52,0.54-0.49
			c0.14,0,0.28,0,0.43,0c0.43,0,0.85,0,1.28,0c0.95,0.07,1.43-0.4,1.36-1.36c0-0.43,0-0.85,0-1.28c0-0.14,0-0.28,0-0.43
			c0-0.43,0-0.85,0-1.28c0-0.14,0-0.28,0-0.43c0-0.43,0-0.85,0-1.28c0-0.14,0-0.28,0-0.43c0-0.43,0-0.85,0-1.28
			c0-0.14,0-0.28,0-0.43c0-0.43,0-0.85,0-1.28c0-0.14,0-0.28,0-0.43c0-0.43,0-0.85,0-1.28c0-0.14,0-0.28,0-0.43
			c0-0.43,0-0.85,0-1.28c0-0.14,0-0.28,0-0.43c0-0.43,0-0.85,0-1.28c0-0.14,0-0.28,0-0.43c0.05-0.39,0.04-0.76-0.19-1.1
			c-0.04-0.11-0.09-0.21-0.2-0.27c-0.24-0.33-0.57-0.48-0.97-0.5c-0.14-0.07-0.28-0.09-0.43-0.05c-0.42,0-0.85,0-1.27,0
			c-0.14,0-0.29,0-0.43,0c-0.15-0.01-0.3-0.03-0.45-0.01c-0.23,0.03-0.23-0.12-0.24-0.27c0-0.14,0-0.28,0-0.43c0-0.43,0-0.85,0-1.28
			c0-0.14,0-0.28,0-0.43c0.01-0.34-0.1-0.76,0.07-0.98c0.18-0.23,0.63-0.04,0.96-0.09c0.04-0.01,0.07-0.04,0.1-0.06
			c0.13,0.12,0.27,0.07,0.42,0.04c0.42,0.03,0.85,0.08,1.27,0.03c0.14,0,0.29,0,0.43,0c0.42,0,0.85,0,1.27,0c0.14,0,0.29,0,0.43,0
			c0.42,0.01,0.85,0.07,1.27-0.04c0.09,0.03,0.19,0.08,0.24-0.04c0.03-0.08,0.06-0.19-0.06-0.24c0.16-0.41,0.05-0.84,0.07-1.27
			c-0.01-0.12,0.08-0.25-0.06-0.34c0.13-0.45,0.07-0.9,0.06-1.36c-0.01-0.12,0.08-0.25-0.06-0.34c0.13-0.45,0.07-0.9,0.06-1.36
			c-0.05-0.3,0.16-0.3,0.36-0.32c0.42,0.04,0.85,0.04,1.27,0c0.14,0.05,0.29,0.05,0.43,0c0.39,0.01,0.78,0.01,1.17,0.02
			c0.02,0.07,0.03,0.15,0.05,0.22c0,0.4,0,0.79,0,1.19c0,0.14,0,0.29,0,0.43c0,0.42,0,0.85,0,1.27c0,0.14,0,0.29,0,0.43
			c0,0.42,0,0.85,0,1.27c-0.1,0.39,0.12,0.39,0.39,0.34c0.43-0.01,0.85-0.02,1.28-0.02c1.02,0.01,0.88,0.21,0.85-0.82
			c0-0.43,0-0.85,0-1.28c0-0.14,0-0.28,0-0.43c0-0.43,0-0.85,0-1.28c0-0.12,0.09-0.26-0.06-0.35c0.04-0.19,0.11-0.37,0.08-0.57
			c-0.06-0.35,0.09-0.45,0.42-0.41c0.16,0.02,0.34-0.01,0.5-0.02c0.14,0.05,0.29,0.05,0.43,0c0.42,0.04,0.85,0.04,1.27,0
			c0.14,0.05,0.29,0.05,0.43,0c0.37,0.17,0.09,0.51,0.2,0.75c0,0.14,0,0.29,0,0.43c0,0.42,0,0.85,0,1.27c0,0.14,0,0.29,0,0.43
			c0,0.42,0,0.85,0,1.27c0,0.17,0,0.34,0,0.51c-0.03,0.7-0.15,0.66,0.73,0.68c0.13,0.08,0.28,0.08,0.43,0.07
			c0.37,0.06,0.74,0.12,1.11,0.18c0.11,0.06,0.22,0.09,0.34,0.08c0.34,0.09,0.68,0.18,1.02,0.27c0.07,0.08,0.16,0.08,0.25,0.09
			c0.28,0.11,0.55,0.23,0.83,0.34c0.1,0.1,0.22,0.15,0.36,0.18c0.23,0.14,0.45,0.27,0.68,0.41c0.12,0.09,0.23,0.18,0.35,0.26
			c0.2,0.2,0.39,0.39,0.59,0.59c0.09,0.12,0.18,0.23,0.26,0.35c0.12,0.22,0.25,0.44,0.37,0.67c0.04,0.09,0.09,0.17,0.13,0.26
			c0.1,0.34,0.19,0.68,0.29,1.02c-0.01,0.12,0,0.24,0.07,0.34c0.02,0.4,0.05,0.79,0.07,1.19c-0.01,0.17-0.02,0.34-0.03,0.52
			c-0.06,0.55-0.2,1.09-0.38,1.62c-0.18,0.31-0.35,0.62-0.53,0.93c-0.49,0.58-1.06,1.07-1.81,1.47c0.5,0.16,0.9,0.29,1.31,0.42
			c0.1,0.09,0.22,0.14,0.35,0.17c0.25,0.14,0.5,0.29,0.75,0.43c0.12,0.09,0.24,0.17,0.35,0.26c0.18,0.16,0.35,0.33,0.53,0.49
			c0.11,0.12,0.21,0.24,0.32,0.36c0.14,0.22,0.29,0.44,0.43,0.67c0.03,0.13,0.07,0.26,0.16,0.36c0.09,0.28,0.17,0.55,0.26,0.83
			c0,0.12-0.01,0.24,0.07,0.35c0.03,0.39,0.06,0.79,0.1,1.18c-0.05,0.17-0.05,0.35,0,0.52c-0.05,0.45-0.1,0.9-0.15,1.36
			c-0.07,0.16-0.11,0.33-0.1,0.51c-0.23,0.74-0.49,1.48-0.91,2.14c-0.46,0.7-1.05,1.27-1.74,1.73c-0.69,0.42-1.45,0.7-2.2,0.99
			c-0.21,0.01-0.41,0.08-0.6,0.17c-0.51,0.1-1.02,0.19-1.53,0.29c-0.19,0.02-0.37,0.04-0.56,0.07c-0.44,0.05-0.87,0.09-1.31,0.14
			c-0.7,0-0.7,0-0.65,0.61c0,0.4,0,0.79,0,1.19c0,0.17,0,0.34,0,0.51c0,0.4,0,0.79,0,1.19c0,0.17,0,0.35,0,0.52
			c0,0.39,0,0.78,0,1.18c-0.03,0.06-0.02,0.15-0.12,0.18c-0.43,0-0.85,0-1.28,0c-0.14,0-0.28,0-0.43,0c-0.43,0-0.85,0-1.28,0
			c-0.05-0.01-0.09-0.01-0.14-0.02c-0.01-0.42-0.02-0.84-0.04-1.26c0-0.14,0-0.28,0-0.43c0-0.43,0-0.85,0-1.28c0-0.14,0-0.28,0-0.43
			c0-0.43,0-0.85,0-1.28c0-0.12,0.09-0.26-0.06-0.35c0.03-0.14,0.1-0.28-0.17-0.25c-0.37,0.03-0.75,0.02-1.13,0.02
			c-0.14,0-0.28-0.01-0.43-0.01c-0.91-0.03-0.75-0.12-0.73,0.68c0,0.17,0,0.34,0,0.51c0,0.4,0,0.79,0,1.19c0,0.14,0,0.29,0,0.43
			c0,0.42,0,0.85,0,1.27C499.72,340.56,499.73,340.73,499.73,340.9z M500.71,315.62c-0.96-0.06-0.96-0.06-0.93,0.89
			c0,0.01,0,0.03,0.01,0.04c0,0.14,0,0.28,0,0.43c0,0.43,0,0.85,0,1.28c0,0.14,0,0.28,0,0.43c0,0.43,0,0.85,0,1.28
			c0,0.14,0,0.28,0,0.43c0,0.43,0,0.85,0,1.28c-0.07,0.28,0.02,0.42,0.33,0.35c0.4,0.06,0.79,0.05,1.19,0.01
			c0.17,0.07,0.34,0.02,0.52-0.02c0.46,0.01,0.91,0.04,1.36-0.08c0.17,0.01,0.35,0.02,0.51-0.07c0.58-0.08,1.17-0.17,1.71-0.44
			c0.82-0.37,1.55-0.83,1.77-1.8c0.16-0.43,0.13-0.86,0.07-1.3c-0.02-0.14-0.03-0.29-0.12-0.41c-0.06-0.33-0.23-0.6-0.46-0.84
			c-0.05-0.12-0.13-0.21-0.24-0.27c-0.2-0.25-0.47-0.41-0.77-0.51c-0.1-0.09-0.21-0.13-0.34-0.15c-0.3-0.14-0.6-0.25-0.93-0.28
			c-0.13-0.1-0.28-0.09-0.43-0.08c-0.36-0.11-0.73-0.13-1.11-0.15c-0.14,0-0.28-0.01-0.43-0.01c-0.43-0.08-0.85-0.06-1.28,0
			C501,315.62,500.85,315.62,500.71,315.62z M499.79,325.49c0,0.43,0,0.85,0,1.28c0,0.14,0,0.28,0,0.43c0,0.43,0,0.85,0,1.28
			c0,0.14,0,0.28,0,0.43c0,0.43,0,0.85,0,1.28c0,0.14,0,0.28,0,0.43c0,0.43,0,0.85,0,1.28c0.05,0.17-0.2,0.48,0.23,0.48
			c0.4,0,0.8,0,1.2,0c0.17,0,0.35,0,0.52,0c0.43,0.04,0.85,0.01,1.27-0.06c0.14,0,0.28,0,0.43-0.01c0.49-0.01,0.97-0.09,1.45-0.18
			c0.2-0.04,0.41-0.03,0.6-0.13c0.87-0.14,1.67-0.46,2.34-1.03c0.67-0.57,1-1.32,0.95-2.22c0.04-0.15,0-0.29-0.06-0.43
			c0-0.35-0.14-0.66-0.34-0.94c-0.04-0.15-0.12-0.27-0.24-0.36c-0.14-0.26-0.35-0.44-0.6-0.58c-0.09-0.12-0.22-0.17-0.35-0.23
			c-0.29-0.17-0.6-0.31-0.93-0.37c-0.09-0.1-0.21-0.09-0.33-0.12c-0.33-0.12-0.67-0.23-1.03-0.23c-0.1-0.08-0.22-0.08-0.34-0.07
			c-0.39-0.08-0.79-0.12-1.19-0.1c-0.14-0.08-0.28-0.04-0.43-0.05c-0.4-0.04-0.79-0.05-1.19-0.02c-0.17,0.01-0.34,0.01-0.51,0.02
			c-0.4-0.04-0.79-0.01-1.19,0.04C499.86,325.25,499.74,325.25,499.79,325.49z"/>
	</g>
	<g>
		<g>
			<circle class="st18" cx="419.07" cy="325.85" r="35.57"/>
			<circle class="st17" cx="419.07" cy="325.85" r="25.44"/>
		</g>
		<g>
			<polygon class="st18" points="431.49,325.82 419.07,333.85 406.64,325.71 406.68,325.63 419.07,305.26 431.41,325.67 			"/>
			<polygon class="st18" points="431.49,328.01 419.07,346.45 407.82,328.65 419.07,335.95 			"/>
			<polygon class="st19" points="431.49,325.82 419.07,333.85 419.07,305.26 			"/>
			<polygon class="st19" points="431.49,325.82 419.07,333.85 406.64,325.71 406.68,325.63 419.07,319.01 431.41,325.67 			"/>
			<polygon class="st19" points="431.49,328.01 419.07,346.45 419.07,335.95 			"/>
		</g>
	</g>
	<g>
		<g>
			<circle class="st18" cx="336.36" cy="324.1" r="35.57"/>
			<circle class="st17" cx="336.36" cy="324.1" r="25.44"/>
		</g>
		<path class="st18" d="M342.61,326.1c-0.63,0-1.24,0.1-1.82,0.26c-1.22-1.97-0.46-3.5,0.34-4.41c0.48,0.1,0.97,0.15,1.48,0.15
			c4.05,0,7.33-3.28,7.33-7.33c0-4.05-3.28-7.33-7.33-7.33s-7.33,3.28-7.33,7.33c0,1.86,0.72,3.54,1.86,4.84
			c-0.63,2.46-2.73,2.79-3.59,2.8c-0.87-3.08-3.67-5.35-7.03-5.35c-4.05,0-7.33,3.28-7.33,7.33c0,4.05,3.28,7.33,7.33,7.33
			c3.39,0,6.21-2.31,7.05-5.44c2.93-1.12,3.74,0.91,3.95,1.88c-1.38,1.33-2.25,3.2-2.25,5.27c0,4.05,3.28,7.33,7.33,7.33
			s7.33-3.28,7.33-7.33C349.94,329.39,346.66,326.1,342.61,326.1z"/>
	</g>
</g>
</svg>
