<?xml version="1.0" encoding="utf-8"?>
<!-- Generator: Adobe Illustrator 23.0.5, SVG Export Plug-In . SVG Version: 6.00 Build 0)  -->
<svg version="1.1" id="Layer_1" xmlns="http://www.w3.org/2000/svg" xmlns:xlink="http://www.w3.org/1999/xlink" x="0px" y="0px"
	 viewBox="0 0 841.89 595.28" style="enable-background:new 0 0 841.89 595.28;" xml:space="preserve">
<style type="text/css">
	.st0{fill:#AF86FC;}
	.st1{fill:#9F68F8;}
	.st2{fill:#7745D8;}
	.st3{opacity:0.38;fill:#3F2299;}
	.st4{fill:#F14D63;}
	.st5{fill:#F7637C;}
	.st6{opacity:0.15;fill:#2E2E62;}
	.st7{fill:#BEA4FF;}
	.st8{opacity:0.07;fill:#3F2299;}
	.st9{opacity:0.13;fill:#3F2299;}
	.st10{opacity:0.43;fill:#7745D8;}
	.st11{fill:#F9A119;}
	.st12{fill:#FFFFFF;}
	.st13{fill:#F7D221;}
	.st14{opacity:0.03;fill:#3F2299;}
	.st15{opacity:0.18;fill:#3F2299;}
	.st16{fill:#F2807E;}
	.st17{fill:#FFB6AE;}
	.st18{fill:#2E2E62;}
	.st19{opacity:0.21;fill:#20204C;}
	.st20{fill:#442A43;}
	.st21{fill:#6B4A6B;}
	.st22{fill:#393972;}
	.st23{opacity:0.44;fill:#20204C;}
	.st24{fill:#E3DFED;}
	.st25{opacity:0.54;fill:#BFB6D8;}
	.st26{opacity:0.06;fill:#3F2299;}
	.st27{opacity:0.41;fill:#2E2E62;}
	.st28{opacity:0.14;fill:#3F2299;}
	.st29{opacity:0.36;fill:#FF7E7B;}
	.st30{fill:none;stroke:#F2807E;stroke-width:0.8808;stroke-linecap:round;stroke-linejoin:round;stroke-miterlimit:10;}
	.st31{fill:#FF7E7B;}
	.st32{opacity:0.55;fill:#FFB6AE;}
	.st33{fill:none;stroke:#F2807E;stroke-width:1.3519;stroke-linecap:round;stroke-linejoin:round;stroke-miterlimit:10;}
	.st34{fill:#1B1B44;}
</style>
<g>
	<path class="st0" d="M244.28,193.92h-98.13c-8,0-14.49-6.49-14.49-14.49v-48.96c0-8,6.49-14.49,14.49-14.49h98.13
		c8,0,14.49,6.49,14.49,14.49v48.96C258.76,187.44,252.28,193.92,244.28,193.92z"/>
	<path class="st1" d="M180.71,267.03h-54.54c-4.45,0-8.05-3.6-8.05-8.05v-27.21c0-4.45,3.6-8.05,8.05-8.05h54.54
		c4.45,0,8.05,3.6,8.05,8.05v27.21C188.76,263.42,185.16,267.03,180.71,267.03z"/>
	<path class="st2" d="M647.83,351.5c-3.26,27.07-10.53,49.81-19.14,62.88c-31.35,47.48-6.14-2.19-113.36-11.23
		c-25.95-2.19-68.64,2.41-115.56,7.26c-65.36,6.76-138.92,13.98-186.72,3.98c-3.25-0.68-6.06-1.83-8.5-3.4
		c-14.68-9.35-15.72-32.86-16.98-50.42c-0.23-3.26-0.47-6.32-0.81-9.06c-2.84-22.95,2-44.28,11.9-63.84
		c11.92-23.62,31.17-44.65,53.06-62.82c14.95-12.43,31.14-23.51,47.05-33.16c16.87-10.25,33.44-18.89,47.9-25.81
		c0.53-0.25,1.06-0.5,1.57-0.75c31.32-14.88,64.94-24.42,99.37-27.59c7.13-0.67,14.29-1.04,21.49-1.15
		C627.66,134.12,658.27,264.86,647.83,351.5z"/>
	<path class="st3" d="M364.29,305.09v38.03c0,9.63-7.82,17.43-17.45,17.43H187.56c-0.23-3.26-0.47-6.32-0.81-9.06
		c-2.84-22.95,2-44.28,11.9-63.84h148.19c4.29,0,8.23,1.55,11.26,4.12C361.9,294.97,364.29,299.74,364.29,305.09z"/>
	<path class="st3" d="M448.67,188.79v80.06c0,12.66-10.25,22.92-22.92,22.92H274.63c-4.86,0-9.38-1.52-13.1-4.12
		c-5.94-4.13-9.82-11.02-9.82-18.8v-44.02c14.95-12.43,31.14-23.51,47.05-33.16c16.87-10.25,33.44-18.89,47.9-25.81h79.1
		C438.42,165.87,448.67,176.13,448.67,188.79z"/>
	<path class="st3" d="M647.83,351.5c-3.26,27.07-10.53,49.81-19.14,62.88c-31.35,47.48-6.14-2.19-113.36-11.23
		c-25.95-2.19-68.64,2.41-115.56,7.26c-65.36,6.76-138.92,13.98-186.72,3.98c-3.25-0.68-6.06-1.83-8.5-3.4
		c54.92-14.34,149.47-51.01,210.73-102.25c23.46-19.64,42.06-41.41,51.66-64.9c20.57-50.32,4.4-84.15-19.33-106.29
		c7.13-0.67,14.29-1.04,21.49-1.15C627.66,134.12,658.27,264.86,647.83,351.5z"/>
	<path class="st3" d="M647.83,351.5c-3.26,27.07-10.53,49.81-19.14,62.88c-31.35,47.48-6.14-2.19-113.36-11.23
		c-25.95-2.19-68.64,2.41-115.56,7.26c7.61-24.89,14.5-58.81,15.51-101.67c0.11-4.6,0.14-9.32,0.11-14.14
		c-0.43-63.92-63.33-91.25-116.62-102.9c17.49-10.63,34.65-19.51,49.47-26.55c31.32-14.88,64.94-24.42,99.37-27.59
		c7.13-0.67,14.29-1.04,21.49-1.15C627.66,134.12,658.27,264.86,647.83,351.5z"/>
	<g>
		<path class="st4" d="M588.91,306.17c-1.12,4.55-2.04,8.96-2.78,13.22c-2.97,16.9-3.29,31.51-2.61,42.98
			c0.03,0.53,0.05,1.06,0.05,1.58c0,4.26-1.03,8.28-2.86,11.82c-2.13,4.15-5.36,7.64-9.31,10.1c-3.92,2.44-8.56,3.87-13.56,3.87
			h-49.31c-14.87,0-26.57-12.54-25.68-27.38c0.85-14.36,0.12-33.64-5.39-56.2c-2.52-10.27-2.56-19-0.87-26.4
			c0.64-2.78,1.52-5.36,2.63-7.77c9.79-21.5,36.33-28.67,52.55-29.09c0.96-0.03,1.91,0.02,2.86,0.11
			c5.87,0.59,13.36,1.93,20.94,4.47C576.25,254.47,597.63,270.58,588.91,306.17z"/>
		<path class="st3" d="M583.52,362.37c0.03,0.53,0.05,1.06,0.05,1.58c0,4.26-1.03,8.28-2.86,11.82c-2.13,4.15-5.36,7.64-9.31,10.1
			l-10.07-2.64l-9.35-14.96l28.6-50.5c0,0,2.83,2.38,5.55,1.62C583.16,336.3,582.83,350.91,583.52,362.37z"/>
		<path class="st3" d="M555.55,247.51c-6.28,1.29-19.17,2.01-20.19,7.99c-1.37,7.89-21.94,17.02-21.94,17.02s-25.28,7.43-34.21-0.51
			c9.79-21.5,36.33-28.67,52.55-29.09c0.96-0.03,1.91,0.02,2.86,0.11C540.48,243.62,547.97,244.96,555.55,247.51z"/>
		<path class="st5" d="M586.42,313.66c-0.4,1.65-0.78,3.28-1.12,4.88c-4.49,20.46-5.07,38-4.27,51.3c0.03,0.51,0.05,1.04,0.05,1.55
			c0,1.49-0.12,2.95-0.37,4.38c-0.5,0.96-1.04,1.88-1.66,2.77c-4.6,6.74-12.34,11.2-21.21,11.2h-49.31
			c-10.83,0-19.97-6.65-23.8-15.99c-1.43-3.5-2.11-7.35-1.88-11.39c0.85-14.36,0.12-33.64-5.39-56.2c-0.11-0.45-0.22-0.9-0.31-1.34
			c-2.21-9.7-2.18-17.99-0.56-25.06c3.59-8.05,9.51-14.09,16.36-18.55c11.67-7.6,26.06-10.57,36.31-10.83
			c0.96-0.03,1.91,0.02,2.86,0.11c2.25,0.23,4.75,0.56,7.4,1.04C562.56,255.65,597.1,270.02,586.42,313.66z"/>
		<path class="st6" d="M581.03,369.84c0.03,0.51,0.05,1.04,0.05,1.55c0,1.49-0.12,2.95-0.37,4.38c-0.5,0.96-1.04,1.88-1.66,2.77
			c-11.92,1.15-27.59,0-27.59,0s-14.98-5.84-30.81-7.8c-7.49-0.93-15.18-0.99-21.55,0.85c-2.13,0.62-4.09,1.09-5.89,1.43
			c-3.29,0.64-6.09,0.84-8.48,0.73c-1.43-3.5-2.11-7.35-1.88-11.39c0.85-14.36,0.12-33.64-5.39-56.2c-0.11-0.45-0.22-0.9-0.31-1.34
			c0.87-4.13,1.57-7.38,1.93-9.2c0.7-3.57,4.77-7.04,9.76-10.02c7.72-4.61,17.6-8.06,20.46-9.03c-0.25-0.87-0.48-1.74-0.7-2.58
			c-5.34-1.49-9.01-4.24-9.01-4.24c-2.33-1.1-4.6-4.43-6.63-8.55c11.67-7.6,26.06-10.57,36.31-10.83c0.96-0.03,1.91,0.02,2.86,0.11
			c2.25,0.23,4.75,0.56,7.4,1.04c-0.23,6.01-2.66,11.37-6.79,15.55c0.11,0.59,0.2,1.21,0.3,1.86l0.02-0.03c0,0,2.02-0.53,5.66,2.28
			c0.61,0.47,1.26,1.27,1.94,2.25c4.33,1.38,10.02,3.26,15.35,5.22c6.26,2.3,12.03,4.66,14.53,6.43
			c4.47,3.15,10.53,20.1,14.81,33.42C580.81,339,580.24,356.55,581.03,369.84z"/>
	</g>
	<rect x="194.8" y="389.75" class="st0" width="427.63" height="54.77"/>
	<path class="st7" d="M659.21,420.73c-56.83,11.59,4.44,21.04-60.1,47.57c-64.54,26.52-191.23-3.76-270.05-0.25
		c-13.75,0.61-27.5,0.05-40.99-1.43c-42.68-4.69-82.78-18.58-112.24-33.65c-0.75-0.39-1.49-0.76-2.22-1.15
		c-13.61-7.13-24.81-14.47-32.75-21.19c-30.56-25.87,46.64-30.25,46.64-30.25s26.49,0,68.15,0h365.38
		C792.35,380.38,708.7,410.63,659.21,420.73z"/>
	<path class="st8" d="M659.21,420.73c-56.83,11.59,4.44,21.04-60.1,47.57c-64.54,26.52-191.23-3.76-270.05-0.25
		c-13.75,0.61-27.5,0.05-40.99-1.43c-42.68-4.69-82.78-18.58-112.24-33.65c-0.75-0.39-1.49-0.76-2.22-1.15
		c39.2,10.78,110.06,24.07,135.42,11.37c34.91-17.45,176.25,15.39,208.97-3.17c45.23-25.65,20.59-42.21-48.24-59.65h151.27
		C792.35,380.38,708.7,410.63,659.21,420.73z"/>
	<path class="st9" d="M659.21,420.73c-56.83,11.59,4.44,21.04-60.1,47.57c-64.54,26.52-191.23-3.76-270.05-0.25
		c-13.75,0.61-27.5,0.05-40.99-1.43c7.33-9.42,144.32-12.85,40-58.63c-20.92-9.18-40.16-17.56-72.43-27.61h365.38
		C792.35,380.38,708.7,410.63,659.21,420.73z"/>
	<ellipse class="st10" cx="384.96" cy="427.17" rx="42.16" ry="4.93"/>
	<ellipse class="st10" cx="443.65" cy="436.07" rx="23.27" ry="3.96"/>
	<ellipse class="st10" cx="512.84" cy="407.99" rx="65.84" ry="14.25"/>
	<path class="st11" d="M416.62,285.63H254c-13.26,0-24.01-10.75-24.01-24.01v-81.14c0-13.26,10.75-24.01,24.01-24.01h162.63
		c13.26,0,24.01,10.75,24.01,24.01v81.14C440.63,274.88,429.88,285.63,416.62,285.63z"/>
	<path class="st0" d="M339.8,350.48H177.72c-9.63,0-17.44-7.81-17.44-17.44v-38.02c0-9.63,7.81-17.44,17.44-17.44H339.8
		c9.63,0,17.44,7.81,17.44,17.44v38.02C357.25,342.67,349.44,350.48,339.8,350.48z"/>
	<path class="st12" d="M424.79,374.02c0,0-3.57,3.03-9.52,4.16c-4.23,0.79-7.35-1.01-8.98-2.36c-0.62-3.43-3.59-5.98-7.12-5.98
		h-27.95c-3.65,0-6.74,2.7-7.19,6.32c-0.14,1.18-0.34,2.5-0.59,3.9c-1.48-4.07-4.6-8.98-10.64-5.07
		c-9.32,6.06-13.1,14.19-10.61,19.44c2.28,4.86,0.87,18.38,14.11,15.55c1.62,9.26,9.52,16.13,18.85,17.08
		c0.73,0.08,1.46,0.11,2.21,0.11h15.82c11.31,0,20.97-8.81,21.32-20.1c0.11-3.88-0.85-7.54-2.61-10.69
		c-0.16-0.33-0.28-0.67-0.43-1.01c13.8-4.1,18.26-17.32,18.26-17.32s2.52-1.72,2.7-2.58C432.59,374.61,424.79,374.02,424.79,374.02z
		 M357.84,397.87c-1.09,2.38-1.65,3.74-1.76,6.48c-9.96,2.11-7.12-6.84-8.84-10.49c-1.88-3.98,0.05-8.72,7.08-13.3
		c6.26-4.06,6.81,5.25,7.26,7.46c-1.01,3.96-1.82,5.94-3.76,9.85H357.84z"/>
	<ellipse class="st12" cx="444.16" cy="433.49" rx="21.4" ry="5.48"/>
	<g>
		<circle class="st5" cx="199.46" cy="314.02" r="19.44"/>
		<path class="st12" d="M199.46,314.02v-19.44c10.66,0,19.44,8.77,19.44,19.44s-8.77,19.44-19.44,19.44
			c-10.66,0-19.44-8.77-19.44-19.44c0-2.1,0.34-4.19,1.01-6.18L199.46,314.02z"/>
	</g>
	<g>
		<circle class="st4" cx="266.24" cy="253.72" r="15.67"/>
		<circle class="st2" cx="266.24" cy="253.72" r="11.21"/>
		<path class="st2" d="M265.38,261.13c-0.02,0.28-0.02,0.28-0.32,0.3c-0.06,0-0.13,0-0.19,0c-0.19,0-0.37,0-0.56,0
			c-0.06,0-0.13,0-0.19,0c-0.24,0.04-0.18-0.14-0.19-0.26c0-0.06,0-0.13,0-0.19c0-0.19,0-0.37,0-0.56c0-0.06,0-0.13,0-0.19
			c0-0.19,0-0.37,0-0.56c0-0.06,0-0.13,0-0.19c0-0.05,0.01-0.11,0.01-0.16c0-0.26,0-0.26-0.26-0.24c-0.06,0-0.13,0-0.19,0
			c-0.19,0-0.37,0-0.56,0c-0.06,0-0.13,0-0.19,0c-0.19,0-0.37,0-0.56,0c-0.06,0-0.13,0-0.19,0c-0.19,0-0.37,0-0.56,0
			c-0.06,0-0.13,0-0.19,0c-0.11,0-0.18-0.02-0.13-0.16c0.02-0.06,0.02-0.12,0.02-0.18c0.04-0.07,0.04-0.15,0.04-0.22
			c0.06-0.22,0.1-0.45,0.12-0.68c0.04-0.07,0.04-0.15,0.04-0.22c0.01-0.02,0.02-0.03,0.02-0.05c-0.01-0.17,0.08-0.23,0.24-0.22
			c0.06,0,0.13,0,0.19,0c0.19,0,0.37,0,0.56,0c0.42,0.03,0.63-0.18,0.6-0.6c0-0.19,0-0.37,0-0.56c0-0.06,0-0.13,0-0.19
			c0-0.19,0-0.37,0-0.56c0-0.06,0-0.13,0-0.19c0-0.19,0-0.37,0-0.56c0-0.06,0-0.13,0-0.19c0-0.19,0-0.37,0-0.56
			c0-0.06,0-0.13,0-0.19c0-0.19,0-0.37,0-0.56c0-0.06,0-0.13,0-0.19c0-0.19,0-0.37,0-0.56c0-0.06,0-0.13,0-0.19
			c0-0.19,0-0.37,0-0.56c0-0.06,0-0.13,0-0.19c0-0.19,0-0.37,0-0.56c0-0.06,0-0.13,0-0.19c0.02-0.17,0.02-0.34-0.08-0.49
			c-0.02-0.05-0.04-0.09-0.09-0.12c-0.11-0.14-0.25-0.21-0.43-0.22c-0.06-0.03-0.12-0.04-0.19-0.02c-0.19,0-0.37,0-0.56,0
			c-0.06,0-0.13,0-0.19,0c-0.07,0-0.13-0.01-0.2-0.01c-0.1,0.01-0.1-0.05-0.11-0.12c0-0.06,0-0.13,0-0.19c0-0.19,0-0.37,0-0.56
			c0-0.06,0-0.13,0-0.19c0.01-0.15-0.04-0.34,0.03-0.43c0.08-0.1,0.28-0.02,0.42-0.04c0.02,0,0.03-0.02,0.05-0.03
			c0.06,0.05,0.12,0.03,0.18,0.02c0.19,0.01,0.37,0.04,0.56,0.02c0.06,0,0.13,0,0.19,0c0.19,0,0.37,0,0.56,0c0.06,0,0.13,0,0.19,0
			c0.19,0.01,0.38,0.03,0.56-0.02c0.04,0.01,0.08,0.03,0.11-0.02c0.01-0.03,0.03-0.08-0.03-0.11c0.07-0.18,0.02-0.37,0.03-0.56
			c0-0.05,0.04-0.11-0.03-0.15c0.06-0.2,0.03-0.4,0.03-0.6c0-0.05,0.04-0.11-0.03-0.15c0.06-0.2,0.03-0.4,0.03-0.6
			c-0.02-0.13,0.07-0.13,0.16-0.14c0.19,0.02,0.37,0.02,0.56,0c0.06,0.02,0.13,0.02,0.19,0c0.17,0,0.34,0,0.52,0.01
			c0.01,0.03,0.01,0.07,0.02,0.1c0,0.17,0,0.35,0,0.52c0,0.06,0,0.13,0,0.19c0,0.19,0,0.37,0,0.56c0,0.06,0,0.13,0,0.19
			c0,0.19,0,0.37,0,0.56c-0.05,0.17,0.05,0.17,0.17,0.15c0.19,0,0.37-0.01,0.56-0.01c0.45,0,0.39,0.09,0.37-0.36
			c0-0.19,0-0.37,0-0.56c0-0.06,0-0.13,0-0.19c0-0.19,0-0.37,0-0.56c0-0.05,0.04-0.11-0.03-0.15c0.02-0.08,0.05-0.16,0.03-0.25
			c-0.03-0.15,0.04-0.2,0.18-0.18c0.07,0.01,0.15-0.01,0.22-0.01c0.06,0.02,0.13,0.02,0.19,0c0.19,0.02,0.37,0.02,0.56,0
			c0.06,0.02,0.13,0.02,0.19,0c0.16,0.07,0.04,0.23,0.09,0.33c0,0.06,0,0.13,0,0.19c0,0.19,0,0.37,0,0.56c0,0.06,0,0.13,0,0.19
			c0,0.19,0,0.37,0,0.56c0,0.08,0,0.15,0,0.23c-0.01,0.31-0.07,0.29,0.32,0.3c0.06,0.03,0.12,0.03,0.19,0.03
			c0.16,0.03,0.32,0.05,0.49,0.08c0.05,0.03,0.1,0.04,0.15,0.04c0.15,0.04,0.3,0.08,0.45,0.12c0.03,0.04,0.07,0.04,0.11,0.04
			c0.12,0.05,0.24,0.1,0.37,0.15c0.04,0.04,0.1,0.07,0.16,0.08c0.1,0.06,0.2,0.12,0.3,0.18c0.05,0.04,0.1,0.08,0.15,0.12
			c0.09,0.09,0.17,0.17,0.26,0.26c0.04,0.05,0.08,0.1,0.12,0.15c0.05,0.1,0.11,0.2,0.16,0.29c0.02,0.04,0.04,0.08,0.06,0.12
			c0.04,0.15,0.08,0.3,0.13,0.45c0,0.05,0,0.1,0.03,0.15c0.01,0.17,0.02,0.35,0.03,0.52c-0.01,0.08-0.01,0.15-0.02,0.23
			c-0.03,0.24-0.09,0.48-0.17,0.71c-0.08,0.14-0.16,0.27-0.23,0.41c-0.22,0.25-0.47,0.47-0.8,0.65c0.22,0.07,0.4,0.13,0.58,0.19
			c0.04,0.04,0.1,0.06,0.16,0.07c0.11,0.06,0.22,0.13,0.33,0.19c0.05,0.04,0.1,0.08,0.16,0.11c0.08,0.07,0.16,0.15,0.23,0.22
			c0.05,0.05,0.09,0.11,0.14,0.16c0.06,0.1,0.13,0.2,0.19,0.29c0.01,0.06,0.03,0.11,0.07,0.16c0.04,0.12,0.08,0.24,0.11,0.36
			c0,0.05-0.01,0.11,0.03,0.15c0.01,0.17,0.03,0.35,0.04,0.52c-0.02,0.08-0.02,0.15,0,0.23c-0.02,0.2-0.04,0.4-0.06,0.6
			c-0.03,0.07-0.05,0.15-0.04,0.23c-0.1,0.33-0.22,0.65-0.4,0.94c-0.2,0.31-0.46,0.56-0.77,0.76c-0.3,0.19-0.64,0.31-0.97,0.43
			c-0.09,0.01-0.18,0.03-0.26,0.07c-0.22,0.04-0.45,0.09-0.67,0.13c-0.08,0.01-0.16,0.02-0.25,0.03c-0.19,0.02-0.38,0.04-0.58,0.06
			c-0.31,0-0.31,0-0.29,0.27c0,0.17,0,0.35,0,0.52c0,0.08,0,0.15,0,0.23c0,0.17,0,0.35,0,0.52c0,0.08,0,0.15,0,0.23
			c0,0.17,0,0.35,0,0.52c-0.01,0.03-0.01,0.07-0.05,0.08c-0.19,0-0.37,0-0.56,0c-0.06,0-0.13,0-0.19,0c-0.19,0-0.37,0-0.56,0
			c-0.02,0-0.04-0.01-0.06-0.01c-0.01-0.19-0.01-0.37-0.02-0.56c0-0.06,0-0.13,0-0.19c0-0.19,0-0.37,0-0.56c0-0.06,0-0.13,0-0.19
			c0-0.19,0-0.37,0-0.56c0-0.05,0.04-0.11-0.03-0.15c0.01-0.06,0.05-0.12-0.07-0.11c-0.16,0.02-0.33,0.01-0.5,0.01
			c-0.06,0-0.13,0-0.19-0.01c-0.4-0.01-0.33-0.05-0.32,0.3c0,0.08,0,0.15,0,0.23c0,0.17,0,0.35,0,0.52c0,0.06,0,0.13,0,0.19
			c0,0.19,0,0.37,0,0.56C265.38,260.98,265.38,261.05,265.38,261.13z M265.82,249.99c-0.42-0.03-0.42-0.03-0.41,0.39
			c0,0.01,0,0.01,0,0.02c0,0.06,0,0.13,0,0.19c0,0.19,0,0.37,0,0.56c0,0.06,0,0.13,0,0.19c0,0.19,0,0.37,0,0.56
			c0,0.06,0,0.13,0,0.19c0,0.19,0,0.37,0,0.56c-0.03,0.12,0.01,0.18,0.14,0.15c0.17,0.03,0.35,0.02,0.52,0
			c0.08,0.03,0.15,0.01,0.23-0.01c0.2,0,0.4,0.02,0.6-0.04c0.08,0,0.15,0.01,0.22-0.03c0.26-0.04,0.52-0.07,0.75-0.19
			c0.36-0.16,0.68-0.37,0.78-0.79c0.07-0.19,0.06-0.38,0.03-0.57c-0.01-0.06-0.01-0.13-0.05-0.18c-0.03-0.14-0.1-0.26-0.2-0.37
			c-0.02-0.05-0.06-0.09-0.11-0.12c-0.09-0.11-0.21-0.18-0.34-0.22c-0.04-0.04-0.09-0.06-0.15-0.07c-0.13-0.06-0.27-0.11-0.41-0.12
			c-0.06-0.04-0.12-0.04-0.19-0.04c-0.16-0.05-0.32-0.06-0.49-0.06c-0.06,0-0.13,0-0.19-0.01c-0.19-0.04-0.37-0.03-0.56,0
			C265.94,249.99,265.88,249.99,265.82,249.99z M265.41,254.34c0,0.19,0,0.37,0,0.56c0,0.06,0,0.13,0,0.19c0,0.19,0,0.37,0,0.56
			c0,0.06,0,0.13,0,0.19c0,0.19,0,0.37,0,0.56c0,0.06,0,0.13,0,0.19c0,0.19,0,0.37,0,0.56c0.02,0.08-0.09,0.21,0.1,0.21
			c0.18,0,0.35,0,0.53,0c0.08,0,0.15,0,0.23,0c0.19,0.02,0.38,0,0.56-0.03c0.06,0,0.13,0,0.19,0c0.21-0.01,0.43-0.04,0.64-0.08
			c0.09-0.02,0.18-0.01,0.26-0.06c0.38-0.06,0.73-0.2,1.03-0.45c0.3-0.25,0.44-0.58,0.42-0.98c0.02-0.07,0-0.13-0.02-0.19
			c0-0.15-0.06-0.29-0.15-0.41c-0.02-0.07-0.05-0.12-0.11-0.16c-0.06-0.11-0.15-0.19-0.26-0.26c-0.04-0.05-0.1-0.08-0.15-0.1
			c-0.13-0.07-0.26-0.14-0.41-0.16c-0.04-0.04-0.09-0.04-0.14-0.05c-0.15-0.05-0.3-0.1-0.46-0.1c-0.04-0.04-0.1-0.04-0.15-0.03
			c-0.17-0.04-0.35-0.05-0.52-0.04c-0.06-0.03-0.13-0.02-0.19-0.02c-0.17-0.02-0.35-0.02-0.52-0.01c-0.08,0-0.15,0-0.23,0.01
			c-0.17-0.02-0.35,0-0.52,0.02C265.44,254.23,265.39,254.23,265.41,254.34z"/>
	</g>
	<g>
		<circle class="st13" cx="265.4" cy="252.29" r="15.67"/>
		<circle class="st11" cx="265.4" cy="252.29" r="11.21"/>
		<path class="st13" d="M264.54,259.69c-0.02,0.28-0.02,0.28-0.32,0.3c-0.06,0-0.13,0-0.19,0c-0.19,0-0.37,0-0.56,0
			c-0.06,0-0.13,0-0.19,0c-0.24,0.04-0.18-0.14-0.19-0.26c0-0.06,0-0.13,0-0.19c0-0.19,0-0.37,0-0.56c0-0.06,0-0.13,0-0.19
			c0-0.19,0-0.37,0-0.56c0-0.06,0-0.13,0-0.19c0-0.05,0.01-0.11,0.01-0.16c0-0.26,0-0.26-0.26-0.24c-0.06,0-0.13,0-0.19,0
			c-0.19,0-0.37,0-0.56,0c-0.06,0-0.13,0-0.19,0c-0.19,0-0.37,0-0.56,0c-0.06,0-0.13,0-0.19,0c-0.19,0-0.37,0-0.56,0
			c-0.06,0-0.13,0-0.19,0c-0.11,0-0.18-0.02-0.13-0.16c0.02-0.06,0.02-0.12,0.02-0.18c0.04-0.07,0.04-0.15,0.04-0.22
			c0.06-0.22,0.1-0.45,0.12-0.68c0.04-0.07,0.04-0.15,0.04-0.22c0.01-0.02,0.02-0.03,0.02-0.05c-0.01-0.17,0.08-0.23,0.24-0.22
			c0.06,0,0.13,0,0.19,0c0.19,0,0.37,0,0.56,0c0.42,0.03,0.63-0.18,0.6-0.6c0-0.19,0-0.37,0-0.56c0-0.06,0-0.13,0-0.19
			c0-0.19,0-0.37,0-0.56c0-0.06,0-0.13,0-0.19c0-0.19,0-0.37,0-0.56c0-0.06,0-0.13,0-0.19c0-0.19,0-0.37,0-0.56
			c0-0.06,0-0.13,0-0.19c0-0.19,0-0.37,0-0.56c0-0.06,0-0.13,0-0.19c0-0.19,0-0.37,0-0.56c0-0.06,0-0.13,0-0.19
			c0-0.19,0-0.37,0-0.56c0-0.06,0-0.13,0-0.19c0-0.19,0-0.37,0-0.56c0-0.06,0-0.13,0-0.19c0.02-0.17,0.02-0.34-0.08-0.49
			c-0.02-0.05-0.04-0.09-0.09-0.12c-0.11-0.14-0.25-0.21-0.43-0.22c-0.06-0.03-0.12-0.04-0.19-0.02c-0.19,0-0.37,0-0.56,0
			c-0.06,0-0.13,0-0.19,0c-0.07,0-0.13-0.01-0.2-0.01c-0.1,0.01-0.1-0.05-0.11-0.12c0-0.06,0-0.13,0-0.19c0-0.19,0-0.37,0-0.56
			c0-0.06,0-0.13,0-0.19c0.01-0.15-0.04-0.34,0.03-0.43c0.08-0.1,0.28-0.02,0.42-0.04c0.02,0,0.03-0.02,0.05-0.03
			c0.06,0.05,0.12,0.03,0.18,0.02c0.19,0.01,0.37,0.04,0.56,0.02c0.06,0,0.13,0,0.19,0c0.19,0,0.37,0,0.56,0c0.06,0,0.13,0,0.19,0
			c0.19,0.01,0.38,0.03,0.56-0.02c0.04,0.01,0.08,0.03,0.11-0.02c0.01-0.03,0.03-0.08-0.03-0.11c0.07-0.18,0.02-0.37,0.03-0.56
			c0-0.05,0.04-0.11-0.03-0.15c0.06-0.2,0.03-0.4,0.03-0.6c0-0.05,0.04-0.11-0.03-0.15c0.06-0.2,0.03-0.4,0.03-0.6
			c-0.02-0.13,0.07-0.13,0.16-0.14c0.19,0.02,0.37,0.02,0.56,0c0.06,0.02,0.13,0.02,0.19,0c0.17,0,0.34,0,0.52,0.01
			c0.01,0.03,0.01,0.07,0.02,0.1c0,0.17,0,0.35,0,0.52c0,0.06,0,0.13,0,0.19c0,0.19,0,0.37,0,0.56c0,0.06,0,0.13,0,0.19
			c0,0.19,0,0.37,0,0.56c-0.05,0.17,0.05,0.17,0.17,0.15c0.19,0,0.37-0.01,0.56-0.01c0.45,0,0.39,0.09,0.37-0.36
			c0-0.19,0-0.37,0-0.56c0-0.06,0-0.13,0-0.19c0-0.19,0-0.37,0-0.56c0-0.05,0.04-0.11-0.03-0.15c0.02-0.08,0.05-0.16,0.03-0.25
			c-0.03-0.15,0.04-0.2,0.18-0.18c0.07,0.01,0.15-0.01,0.22-0.01c0.06,0.02,0.13,0.02,0.19,0c0.19,0.02,0.37,0.02,0.56,0
			c0.06,0.02,0.13,0.02,0.19,0c0.16,0.07,0.04,0.23,0.09,0.33c0,0.06,0,0.13,0,0.19c0,0.19,0,0.37,0,0.56c0,0.06,0,0.13,0,0.19
			c0,0.19,0,0.37,0,0.56c0,0.08,0,0.15,0,0.23c-0.01,0.31-0.07,0.29,0.32,0.3c0.06,0.03,0.12,0.03,0.19,0.03
			c0.16,0.03,0.32,0.05,0.49,0.08c0.05,0.03,0.1,0.04,0.15,0.04c0.15,0.04,0.3,0.08,0.45,0.12c0.03,0.04,0.07,0.04,0.11,0.04
			c0.12,0.05,0.24,0.1,0.37,0.15c0.04,0.04,0.1,0.07,0.16,0.08c0.1,0.06,0.2,0.12,0.3,0.18c0.05,0.04,0.1,0.08,0.15,0.12
			c0.09,0.09,0.17,0.17,0.26,0.26c0.04,0.05,0.08,0.1,0.12,0.15c0.05,0.1,0.11,0.2,0.16,0.29c0.02,0.04,0.04,0.08,0.06,0.12
			c0.04,0.15,0.08,0.3,0.13,0.45c0,0.05,0,0.1,0.03,0.15c0.01,0.17,0.02,0.35,0.03,0.52c-0.01,0.08-0.01,0.15-0.02,0.23
			c-0.03,0.24-0.09,0.48-0.17,0.71c-0.08,0.14-0.16,0.27-0.23,0.41c-0.22,0.25-0.47,0.47-0.8,0.65c0.22,0.07,0.4,0.13,0.58,0.19
			c0.04,0.04,0.1,0.06,0.16,0.07c0.11,0.06,0.22,0.13,0.33,0.19c0.05,0.04,0.1,0.08,0.16,0.11c0.08,0.07,0.16,0.15,0.23,0.22
			c0.05,0.05,0.09,0.11,0.14,0.16c0.06,0.1,0.13,0.2,0.19,0.29c0.01,0.06,0.03,0.11,0.07,0.16c0.04,0.12,0.08,0.24,0.11,0.36
			c0,0.05-0.01,0.11,0.03,0.15c0.01,0.17,0.03,0.35,0.04,0.52c-0.02,0.08-0.02,0.15,0,0.23c-0.02,0.2-0.04,0.4-0.06,0.6
			c-0.03,0.07-0.05,0.15-0.04,0.23c-0.1,0.33-0.22,0.65-0.4,0.94c-0.2,0.31-0.46,0.56-0.77,0.76c-0.3,0.19-0.64,0.31-0.97,0.43
			c-0.09,0.01-0.18,0.03-0.26,0.07c-0.22,0.04-0.45,0.09-0.67,0.13c-0.08,0.01-0.16,0.02-0.25,0.03c-0.19,0.02-0.38,0.04-0.58,0.06
			c-0.31,0-0.31,0-0.29,0.27c0,0.17,0,0.35,0,0.52c0,0.08,0,0.15,0,0.23c0,0.17,0,0.35,0,0.52c0,0.08,0,0.15,0,0.23
			c0,0.17,0,0.35,0,0.52c-0.01,0.03-0.01,0.07-0.05,0.08c-0.19,0-0.37,0-0.56,0c-0.06,0-0.13,0-0.19,0c-0.19,0-0.37,0-0.56,0
			c-0.02,0-0.04-0.01-0.06-0.01c-0.01-0.19-0.01-0.37-0.02-0.56c0-0.06,0-0.13,0-0.19c0-0.19,0-0.37,0-0.56c0-0.06,0-0.13,0-0.19
			c0-0.19,0-0.37,0-0.56c0-0.05,0.04-0.11-0.03-0.15c0.01-0.06,0.05-0.12-0.07-0.11c-0.16,0.02-0.33,0.01-0.5,0.01
			c-0.06,0-0.13,0-0.19-0.01c-0.4-0.01-0.33-0.05-0.32,0.3c0,0.08,0,0.15,0,0.23c0,0.17,0,0.35,0,0.52c0,0.06,0,0.13,0,0.19
			c0,0.19,0,0.37,0,0.56C264.54,259.54,264.54,259.62,264.54,259.69z M264.97,248.56c-0.42-0.03-0.42-0.03-0.41,0.39
			c0,0.01,0,0.01,0,0.02c0,0.06,0,0.13,0,0.19c0,0.19,0,0.37,0,0.56c0,0.06,0,0.13,0,0.19c0,0.19,0,0.37,0,0.56
			c0,0.06,0,0.13,0,0.19c0,0.19,0,0.37,0,0.56c-0.03,0.12,0.01,0.18,0.14,0.15c0.17,0.03,0.35,0.02,0.52,0
			c0.08,0.03,0.15,0.01,0.23-0.01c0.2,0,0.4,0.02,0.6-0.04c0.08,0,0.15,0.01,0.22-0.03c0.26-0.04,0.52-0.07,0.75-0.19
			c0.36-0.16,0.68-0.37,0.78-0.79c0.07-0.19,0.06-0.38,0.03-0.57c-0.01-0.06-0.01-0.13-0.05-0.18c-0.03-0.14-0.1-0.26-0.2-0.37
			c-0.02-0.05-0.06-0.09-0.11-0.12c-0.09-0.11-0.21-0.18-0.34-0.22c-0.04-0.04-0.09-0.06-0.15-0.07c-0.13-0.06-0.27-0.11-0.41-0.12
			c-0.06-0.04-0.12-0.04-0.19-0.04c-0.16-0.05-0.32-0.06-0.49-0.06c-0.06,0-0.13,0-0.19-0.01c-0.19-0.04-0.38-0.03-0.56,0
			C265.1,248.56,265.04,248.56,264.97,248.56z M264.57,252.9c0,0.19,0,0.37,0,0.56c0,0.06,0,0.13,0,0.19c0,0.19,0,0.37,0,0.56
			c0,0.06,0,0.13,0,0.19c0,0.19,0,0.37,0,0.56c0,0.06,0,0.13,0,0.19c0,0.19,0,0.37,0,0.56c0.02,0.08-0.09,0.21,0.1,0.21
			c0.18,0,0.35,0,0.53,0c0.08,0,0.15,0,0.23,0c0.19,0.02,0.38,0,0.56-0.03c0.06,0,0.13,0,0.19,0c0.21-0.01,0.43-0.04,0.64-0.08
			c0.09-0.02,0.18-0.01,0.26-0.06c0.38-0.06,0.73-0.2,1.03-0.45c0.3-0.25,0.44-0.58,0.42-0.98c0.02-0.07,0-0.13-0.02-0.19
			c0-0.15-0.06-0.29-0.15-0.41c-0.02-0.07-0.05-0.12-0.11-0.16c-0.06-0.11-0.15-0.19-0.26-0.26c-0.04-0.05-0.1-0.08-0.15-0.1
			c-0.13-0.07-0.26-0.14-0.41-0.16c-0.04-0.04-0.09-0.04-0.14-0.05c-0.15-0.05-0.3-0.1-0.46-0.1c-0.05-0.04-0.1-0.04-0.15-0.03
			c-0.17-0.04-0.35-0.05-0.52-0.04c-0.06-0.03-0.13-0.02-0.19-0.02c-0.17-0.02-0.35-0.02-0.52-0.01c-0.08,0-0.15,0-0.23,0.01
			c-0.17-0.02-0.35,0-0.52,0.02C264.6,252.8,264.55,252.8,264.57,252.9z"/>
	</g>
	<path class="st12" d="M415.35,198.87c0-0.01-0.01-0.01-0.01-0.02c-0.01-0.03-0.02-0.06-0.03-0.09c-0.04-0.12-0.09-0.23-0.16-0.33
		c-0.03-0.04-0.05-0.07-0.09-0.11c-0.07-0.09-0.16-0.16-0.25-0.23c-0.03-0.02-0.06-0.05-0.1-0.07c-0.12-0.07-0.26-0.13-0.4-0.15
		l-11.24-2.17c-0.71-0.15-1.41,0.33-1.55,1.05c-0.14,0.72,0.33,1.41,1.05,1.55l8.26,1.59l-18.02,13.21l-11.95-6.8
		c-0.46-0.26-1.03-0.22-1.45,0.09l-35.18,26.59l-16.13-11.95c-0.4-0.3-0.94-0.34-1.39-0.12l-40.99,20.87
		c-0.65,0.33-0.91,1.13-0.58,1.78c0.23,0.46,0.7,0.72,1.18,0.72c0.2,0,0.41-0.05,0.6-0.14l40.26-20.5l16.27,12.05
		c0.47,0.35,1.12,0.34,1.58-0.01l35.27-26.66l11.94,6.8c0.45,0.26,1.02,0.23,1.44-0.08l18.61-13.64l-0.99,6.79
		c-0.11,0.72,0.39,1.39,1.12,1.5c0.06,0.01,0.13,0.01,0.19,0.01c0.64,0,1.21-0.47,1.31-1.13l1.45-9.91c0-0.01,0-0.03,0-0.04
		C415.39,199.16,415.39,199.01,415.35,198.87z"/>
	<path class="st12" d="M323.53,186.54H253.1c-3.99,0-7.23-3.46-7.23-7.74v0c0-4.27,3.24-7.74,7.23-7.74h70.43
		c3.99,0,7.23,3.46,7.23,7.74v0C330.76,183.08,327.53,186.54,323.53,186.54z"/>
	<rect x="368.88" y="248.18" class="st4" width="55.54" height="4.71"/>
	<rect x="361.74" y="257.19" class="st4" width="62.68" height="4.71"/>
	<rect x="231.39" y="299.25" class="st12" width="105.19" height="4.71"/>
	<rect x="231.39" y="311.67" class="st12" width="105.19" height="4.71"/>
	<rect x="231.39" y="324.1" class="st12" width="105.19" height="4.71"/>
	<rect x="361.74" y="266.51" class="st4" width="62.68" height="4.71"/>
	<path class="st12" d="M147.14,135.2h-4.88c-1.29,0-2.33-1.05-2.33-2.33v-4.88c0-1.29,1.05-2.33,2.33-2.33h4.88
		c1.29,0,2.33,1.05,2.33,2.33v4.88C149.47,134.15,148.43,135.2,147.14,135.2z"/>
	<path class="st12" d="M147,151.87h-4.88c-1.29,0-2.33-1.05-2.33-2.33v-4.88c0-1.29,1.05-2.33,2.33-2.33H147
		c1.29,0,2.33,1.05,2.33,2.33v4.88C149.34,150.82,148.29,151.87,147,151.87z"/>
	<path class="st12" d="M147,168.53h-4.88c-1.29,0-2.33-1.05-2.33-2.33v-4.88c0-1.29,1.05-2.33,2.33-2.33H147
		c1.29,0,2.33,1.05,2.33,2.33v4.88C149.34,167.49,148.29,168.53,147,168.53z"/>
	<path class="st12" d="M147,185.2h-4.88c-1.29,0-2.33-1.05-2.33-2.33v-4.88c0-1.29,1.05-2.33,2.33-2.33H147
		c1.29,0,2.33,1.05,2.33,2.33v4.88C149.34,184.16,148.29,185.2,147,185.2z"/>
	<rect x="162.7" y="126.98" class="st12" width="62.68" height="4.71"/>
	<rect x="162.7" y="144.07" class="st12" width="62.68" height="4.71"/>
	<rect x="162.7" y="161.16" class="st12" width="62.68" height="4.71"/>
	<rect x="162.7" y="178.25" class="st12" width="62.68" height="4.71"/>
	<rect x="125.08" y="233.98" class="st7" width="54.94" height="4.36"/>
	<rect x="125.08" y="243.82" class="st7" width="43.7" height="4.36"/>
	<rect x="125.08" y="253.14" class="st7" width="48.33" height="4.36"/>
	<path class="st14" d="M432.39,375.47c-0.19,0.85-2.7,2.58-2.7,2.58s-4.46,13.22-18.26,17.32c0.16,0.34,0.28,0.68,0.43,1.01
		c1.76,3.15,2.72,6.81,2.61,10.69c-0.34,11.3-10.01,20.1-21.32,20.1h-15.82c-0.75,0-1.48-0.03-2.21-0.11
		c-3.46-10.36,2.87-24.64,9.82-30.95c7.77-7.04,6.62-18.63,4.04-26.27h10.18c3.53,0,6.49,2.55,7.12,5.98
		c1.63,1.35,4.75,3.15,8.98,2.36c5.95-1.13,9.52-4.16,9.52-4.16S432.59,374.61,432.39,375.47z"/>
	<path class="st14" d="M432.39,375.47c-0.19,0.85-2.7,2.58-2.7,2.58s-4.46,13.22-18.26,17.32c0.16,0.34,0.28,0.68,0.43,1.01
		c1.76,3.15,2.72,6.81,2.61,10.69c-0.34,11.3-10.01,20.1-21.32,20.1h-3.6c16.22-11.59,2.83-32.66-9.63-42.43
		c-5.52-4.32-7.3-9.79-7.52-14.9h26.77c3.53,0,6.49,2.55,7.12,5.98c1.63,1.35,4.75,3.15,8.98,2.36c5.95-1.13,9.52-4.16,9.52-4.16
		S432.59,374.61,432.39,375.47z"/>
	<path class="st7" d="M400.66,369.63c0,0.92-0.76,1.68-1.69,1.68h-28.03c-0.93,0-1.69-0.76-1.69-1.68c0-0.93,0.76-1.69,1.69-1.69
		h11.33c-0.47-0.59-0.75-1.31-0.75-2.11c0-1.9,1.54-3.43,3.43-3.43c0.23,0,0.45,0.02,0.67,0.08h0.02c1.57,0.31,2.75,1.69,2.75,3.36
		c0,0.81-0.28,1.52-0.75,2.11h11.33c0.37,0,0.71,0.12,0.99,0.34C400.38,368.57,400.66,369.07,400.66,369.63z"/>
	<path class="st15" d="M400.66,369.63c0,0.92-0.76,1.68-1.69,1.68h-13.86c-1.21-0.68-1.8-1.71-0.16-3.22
		c2.05-1.86,1.57-4.02,0.68-5.62c1.57,0.31,2.75,1.69,2.75,3.36c0,0.81-0.28,1.52-0.75,2.11h11.33
		C399.9,367.93,400.66,368.7,400.66,369.63z"/>
	<path class="st15" d="M400.66,369.63c0,0.92-0.76,1.68-1.69,1.68h-27.41c7.29-0.17,23.18-0.98,28.4-3.03
		C400.38,368.57,400.66,369.07,400.66,369.63z"/>
	<path class="st16" d="M522.59,263.14c0.6,0.79,3.04,18.74,3.04,18.74l-7.14,20.23l-14.2,0.99l-2.06-17.85l-2.18-16.07
		L522.59,263.14z"/>
	<path class="st16" d="M478.79,246.88c0,0-2.96-5.03-4.05,0.85c-1.09,5.88,2.22,11.53,10.11,12.39
		C492.74,260.99,478.79,246.88,478.79,246.88z"/>
	<path class="st17" d="M475.41,239.04c0.78,1.79,7.56,28.5,15.1,32.05c0,0,10.86,8.21,22.49,4.01c11.63-4.2,18.5-14.06,17.36-25.7
		c0,0,5.46,0.67,6.09-2.06c0.63-2.73,2.78-12.9-1.2-16.02s-7.61,2.15-7.61,2.15l-6.64-20.24l-22.79,0.93l-18.98,12.74L475.41,239.04
		z"/>
	<path class="st18" d="M582.76,375.76c-4.33,6.76-40.37,4.1-40.37,4.1s-14.98-5.84-30.81-7.8c-7.49-0.93-15.18-0.99-21.55,0.85
		c-2.13,0.62-4.09,1.09-5.89,1.43c-15.04,2.89-19.61-2.98-23.86-7.58c-4.75-5.16,7.74-59.69,9.73-69.81
		c0.7-3.57,4.77-7.04,9.76-10.02c9.12-5.45,21.29-9.29,21.29-9.29l11.2,20.7l12.06-25.82c0,0,12.01,3.62,22.61,7.49
		c6.26,2.3,12.03,4.66,14.53,6.43c6.74,4.75,17.04,40.71,19.47,48.6C584.43,346.49,590.48,363.71,582.76,375.76z"/>
	<path class="st19" d="M582.76,375.76c-4.33,6.76-40.37,4.1-40.37,4.1s-14.98-5.84-30.81-7.8c7.94-15.02-8.16-43.12-23.76-59.74
		c-7.64-8.14-9.01-17.46-8.06-25.39c9.12-5.45,21.29-9.29,21.29-9.29l11.2,20.7l12.06-25.82c0,0,30.39,9.17,37.13,13.92
		c6.74,4.75,17.04,40.71,19.47,48.6C584.43,346.49,590.48,363.71,582.76,375.76z"/>
	<path class="st19" d="M582.76,375.76c-4.33,6.76-40.37,4.1-40.37,4.1s-14.98-5.84-30.81-7.8c-7.49-0.93-15.18-0.99-21.55,0.85
		c-2.13,0.62-4.09,1.09-5.89,1.43c4.23-11.82,12.71-30.89,26.32-41.7c13.16-10.44,27.62-35.63,36.45-52.64
		c6.26,2.3,12.03,4.66,14.53,6.43c6.74,4.75,17.04,40.71,19.47,48.6C584.43,346.49,590.48,363.71,582.76,375.76z"/>
	<path class="st20" d="M535.24,231.32c0,0-0.82-0.36-1.99-0.28c-1.55,0.11-3.71,1.01-5.28,4.65l-15.12-19.19
		c-0.28,0.98-2.22,7.58-11.98,12.34c-9.76,4.75-11.36,3.23-11.36,3.23l1.96-5.02c0,0-14.68,5.9-14.34,18.04l-1.2,0.7l-0.81,0.48
		c0,0-13.67-29.05,9.97-43.53c3.92-2.41,8.86-4.41,15.06-5.81c0,0,19.44-2.55,29.43,10.64
		C533.49,212.72,535.94,220.27,535.24,231.32z"/>
	<path class="st21" d="M535.24,231.32c0,0-0.82-0.36-1.99-0.28c0.02-1.26-0.17-2.55-0.75-3.64c-1.94-3.7-4.75-5.92-6.87-3.93
		c-2.13,1.97-5.3-3.5-5.3-3.5s5.07,3.99,5.59,0.02c0.53-3.96,7.24,4.37,7.22-0.02c-0.02-2.38-1.82-7.8-3.57-12.41
		C533.49,212.72,535.94,220.27,535.24,231.32z"/>
	<path class="st21" d="M489.01,219.99c-0.26,0.37-5.08,7.04-6.6,5.3c-1.57-1.79-3.2-2.52-5.48,2.84
		c-1.34,3.09-3.14,10.86-0.98,17.65l-0.81,0.48c0,0-13.67-29.05,9.97-43.53c-4.21,5.27-10.1,13.39-9.7,17.25
		c0.64,5.97,8.03-4.79,6.91,0C481.24,224.6,488.54,220.27,489.01,219.99z"/>
	<path class="st22" d="M486.68,373.12c-1.41,4.72-9.45,12.86-17.46,11.47c-0.93-0.17-1.86-0.47-2.8-0.9
		c-4.49-2.13-9.38-3.39-11.53-12.66c-2.07-8.93-1.57-25.31,4.33-57.07c0.08-0.37,0.14-0.75,0.22-1.13c0.2-1.17,15.3-0.03,20.73,0.98
		c0.64,0.11,1.15,0.23,1.48,0.34C483.93,314.91,488.26,367.82,486.68,373.12z"/>
	<path class="st19" d="M486.68,373.12c-1.41,4.72-9.45,12.86-17.46,11.47c-0.93-0.17-1.86-0.47-2.8-0.9
		c-4.49-2.13-9.38-3.39-11.53-12.66c2.87,1.9,6.59,2.13,11.05-2.75c7.72-8.44,12.49-40.64,14.23-54.47
		c0.64,0.11,1.15,0.23,1.48,0.34C483.93,314.91,488.26,367.82,486.68,373.12z"/>
	<path class="st23" d="M486.68,373.12c-1.41,4.72-9.45,12.86-17.46,11.47c0.59-0.78,1.6-1.63,3.09-2.55
		c17.09-10.5,5.33-60.5-5.58-63.27c-3.65-0.93-5.98-2.73-7.5-4.82c0.08-0.37,0.14-0.75,0.22-1.13c0.23-1.31,19.03,0.26,22.2,1.32
		C483.93,314.91,488.26,367.82,486.68,373.12z"/>
	<path class="st24" d="M550.21,414.37h-73.61c-2.45,0-4.2-2.41-3.42-4.74l5.92-17.74h68.61l5.92,17.74
		C554.4,411.97,552.66,414.37,550.21,414.37z"/>
	<path class="st25" d="M550.21,414.54H517.5c2.04-3.26,0.36-7.29-0.37-11.24c-0.96-5.27-1.9-8.57-6.67-11.24h37.24l5.92,17.74
		C554.4,412.13,552.66,414.54,550.21,414.54z"/>
	<path class="st7" d="M555.15,350.44h-83.52l0,0c-0.03-3.13,2.5-5.69,5.63-5.69h72.88C553.18,344.75,555.53,347.42,555.15,350.44
		L555.15,350.44z"/>
	<path class="st12" d="M555.18,350.44l-7.44,41.45h-68.64l-0.59-3.32l-6.85-38.13c-0.33-1.82,1.07-3.5,2.94-3.5h77.65
		C554.11,346.94,555.5,348.62,555.18,350.44z"/>
	<path class="st26" d="M555.18,350.44l-7.44,41.45h-22.02c0.06-2.33,0.51-5.02,1.44-8.13c4.88-16.07-4.8-30.34-10.55-36.82h35.63
		C554.11,346.94,555.5,348.62,555.18,350.44z"/>
	<path class="st14" d="M555.18,350.44l-7.44,41.45h-68.64l-0.59-3.32c11.96-1.31,32.6-5.58,47.14-17.26
		c11.54-9.29,12.37-17.84,10.94-24.36h15.66C554.11,346.94,555.5,348.62,555.18,350.44z"/>
	<path class="st18" d="M488.97,362.85l-8.45-0.1c-1.09-0.01-2-0.82-2.15-1.9l-0.93-6.87c-0.18-1.32,0.84-2.49,2.17-2.49H489
		c1.21,0,2.19,0.98,2.19,2.19v6.97C491.19,361.88,490.19,362.87,488.97,362.85z"/>
	<path class="st22" d="M523.96,291.55l6.18,9.21l-17.82,3.37v0.11l-0.28-0.06l-0.28,0.06l0.02-0.11l-4.83-0.92l-13-2.45l6.18-9.21
		l-14.78-1.91c0,0,5.48-14.29,9.12-17.11c1.54-1.2,2.78-1.79,3.71-2.08c1.27-0.37,1.94-0.2,1.94-0.2l12.13,28.11l11.7-28.11
		c0,0,2.02-0.53,5.66,2.28c3.64,2.81,9.12,17.11,9.12,17.11L523.96,291.55z"/>
	<path class="st27" d="M523.96,291.55l6.18,9.21l-17.82,3.37v0.11l-0.28-0.06l-0.28,0.06l0.02-0.11l-4.83-0.92
		c-1.86-7.04-6.15-23.24-8.76-32.77c1.27-0.37,1.94-0.2,1.94-0.2l12.13,28.11l11.7-28.11c0,0,2.02-0.53,5.66,2.28
		c3.64,2.81,9.12,17.11,9.12,17.11L523.96,291.55z"/>
	<g>
		<path class="st12" d="M496.93,295.34c-0.17,0.03-0.33,0.05-0.5,0.08c-5,0.71-9.8-0.98-13.22-4.2c-0.73-0.68-1.4-1.43-1.99-2.25
			c-0.2-0.3-0.4-0.59-0.59-0.89c-1.15-1.83-1.94-3.93-2.27-6.21l-0.5-3.59c-0.03-0.16-0.05-0.33-0.05-0.48
			c-0.09-1.01,0.02-2,0.33-2.94c0.85-2.86,3.31-5.1,6.45-5.55l9.4-1.34l6.53-0.93c0.61-0.08,1.2-0.09,1.77-0.05
			c3.6,0.3,6.65,3.06,7.19,6.79l0.51,3.57C511.21,285.93,505.4,293.87,496.93,295.34z"/>
		<path class="st12" d="M487.67,282.57l-0.47-2.02c-0.9-3.76-4.79-6.12-9.06-5.69c-0.47,0.03-0.93,0.11-1.41,0.22l-0.39,0.08
			c-4.8,1.15-7.89,5.44-6.9,9.6l0.48,2c0.57,2.42,2.39,4.26,4.75,5.16c1.71,0.65,3.7,0.81,5.7,0.33l0.39-0.09
			c0.87-0.2,1.69-0.51,2.44-0.93c2.22-1.17,3.82-3.11,4.4-5.27C487.9,284.87,487.95,283.71,487.67,282.57z M481.22,288.97
			c-0.37,0.17-0.76,0.31-1.18,0.4l-0.25,0.06c-0.68,0.16-1.37,0.22-2.02,0.17c-2.44-0.16-4.51-1.65-5.02-3.85l-0.33-1.35
			c-0.65-2.8,1.41-5.69,4.65-6.45l0.25-0.06c0.17-0.05,0.33-0.08,0.5-0.09c3.06-0.5,5.92,1.12,6.54,3.78l0.33,1.35
			c0.33,1.37,0,2.77-0.82,3.92C483.26,287.75,482.34,288.49,481.22,288.97z"/>
		<path class="st28" d="M496.93,295.34c-0.17,0.03-0.33,0.05-0.5,0.08c-5,0.71-9.8-0.98-13.22-4.2c-0.75,0.42-1.57,0.73-2.44,0.93
			l-0.39,0.09c-2,0.48-3.99,0.33-5.7-0.33c0.95-0.87,1.99-1.65,3.09-2.32c0.92-0.57,1.86-1.09,2.86-1.52
			c1.06-0.5,2.62,0.98,3.51,0.27c6.6-5.24,14.22,5.94,21.23-2.73c2.57-3.18,3.79-14.41-3.08-18.63c3.6,0.3,6.65,3.06,7.19,6.79
			l0.51,3.57C511.21,285.93,505.4,293.87,496.93,295.34z"/>
	</g>
	<path class="st17" d="M496.06,296.48c-0.05,0.16-0.12,0.31-0.28,0.48c-1.79,2.08-6.63,1.09-6.63,1.09l-7.15,2.08l-1.99,4.06
		c0,0,2.78,7.44,0.31,11.9c-0.22,0.39-0.51,0.75-0.89,1.09l-0.02,0.02c-3.84,3.45-14.9,3.51-16.61-3.09c0,0-7.27-12.54-4.41-18.74
		c0.06-0.12,0.12-0.26,0.2-0.39c3.26-5.87,7.94-12.27,10.43-12.85c0.08-0.03,0.16-0.05,0.23-0.05c2.42-0.2,6.7-0.2,6.79,1.58
		c0.09,1.79-1.51,2.78-1.51,2.78s3.95,0,4.02,1.88c0.06,1.88,0.06,1.88,0.06,1.88s4.66,0.31,3.87,3.57c0,0,0.11,0,0.28,0h6.67
		C490.9,293.78,496.54,294.71,496.06,296.48z"/>
	<path class="st29" d="M479.44,317.17l-0.02,0.02c-3.84,3.45-14.9,3.51-16.61-3.09c0,0-7.27-12.54-4.41-18.74
		c1.17,1.83,3.71,4.12,10.11,5.39C476.93,302.41,483.23,311.13,479.44,317.17z"/>
	<path class="st29" d="M479.2,295.08c0.87-2.38-2.86-4.38-2.86-4.38c0.79-3.26-4.04-4.06-4.04-4.06c0.93-1.76-1.34-3.5-3.28-4.52
		c0.08-0.03,0.16-0.05,0.23-0.05c2.42-0.2,6.7-0.2,6.79,1.58c0.09,1.79-1.51,2.78-1.51,2.78s3.95,0,4.02,1.88
		c0.06,1.88,0.06,1.88,0.06,1.88s4.66,0.31,3.87,3.57c0,0,0.11,0,0.28,0L479.2,295.08z"/>
	<path class="st29" d="M496.06,296.48c-0.05,0.16-0.12,0.31-0.28,0.48c-1.79,2.08-6.63,1.09-6.63,1.09l-7.15,2.08l8.44-3.08
		C492.08,297.6,494.65,296.94,496.06,296.48z"/>
	<path class="st30" d="M473.67,286.34c0,0-3.54,1.21-4.64,2.19c-1.11,0.98-3.29,4.45-3.29,4.45"/>
	<path class="st30" d="M477.14,290.02c0,0-0.8,0.59-2.92,2.18s-3.81,4.29-3.81,4.29"/>
	<path class="st30" d="M474.54,299.33c0,0,4.17-4.07,4.66-4.25c0.49-0.18,2.8-1.02,2.8-1.02"/>
	<circle class="st29" cx="518.01" cy="247.82" r="6.54"/>
	
		<ellipse transform="matrix(0.9864 -0.1642 0.1642 0.9864 -35.5136 83.7301)" class="st29" cx="488.58" cy="256.62" rx="5.35" ry="6.54"/>
	<g>
		<path class="st31" d="M506.18,257.5c-0.34,2.27-3.63,2.83-5.21,2.19c-0.83-0.32-1.23-1.5-1.43-3.08c0,0-0.03-0.13-0.04-0.2
			c-0.57-4.4,0.56-11.78,0.55-12.2c0,0,4.34,7.82,5.68,11.56C506.06,256.61,506.2,257.22,506.18,257.5z"/>
		<path class="st32" d="M505.73,255.76c-0.36,2.2-3.58,2.75-5.16,2.1c-0.42-0.19-0.81-0.6-1.03-1.26c0,0-0.03-0.13-0.04-0.2
			c-0.57-4.4,0.56-11.78,0.55-12.2C500.05,244.2,504.39,252.03,505.73,255.76z"/>
	</g>
	<g>
		<path class="st20" d="M509.25,242.34c-0.03,0.01-0.07,0.01-0.1,0.02c-1.22,0.27-2.18-0.22-2.87-0.83
			c-0.26-0.23-0.1-0.68,0.18-0.86c0.29-0.19,1.68,0.64,2.41,0.48c0.53-0.12,1.81-0.59,2.05-2.37c0.05-0.34,0.36-0.58,0.7-0.53
			c0.34,0.05,0.58,0.36,0.53,0.7C511.93,240.68,510.84,241.94,509.25,242.34z"/>
	</g>
	<g>
		<path class="st20" d="M487.56,248.68c-0.03,0-0.06,0-0.09,0c-1.13,0.03-1.9-0.64-2.41-1.37c-0.19-0.27,0.02-0.68,0.31-0.81
			c0.29-0.13,1.38,0.95,2.06,0.93c0.49-0.02,1.7-0.23,2.21-1.92c0.1-0.33,0.42-0.5,0.71-0.39c0.3,0.11,0.46,0.47,0.36,0.79
			C490.22,247.57,489.04,248.6,487.56,248.68z"/>
	</g>
	<path class="st33" d="M511.53,258.77c-1.98,6.44-8.42,5.98-8.77,5.92"/>
	<path class="st20" d="M503.72,236.06c0.05-0.6-0.79-1.64,0.99-2.33c1.79-0.69,7.46,0.3,7.46,0.3L503.72,236.06z"/>
	<path class="st20" d="M489.27,241.07c-0.41-0.44-0.6-1.63-2.03-1.34c-1.44,0.28-3.96,3.65-3.96,3.65L489.27,241.07z"/>
	<g>
		<polygon class="st22" points="558.47,292.33 549.21,328.23 549.19,340.32 550.74,340.32 550.74,328.52 559.97,292.72 		"/>
		<path class="st22" d="M560.05,343.73l3.45-1.52l-0.63-1.42l-5.76,2.54c-0.41-0.05-0.7-0.08-0.8-0.08l0,1.55
			c0.64,0.02,8.7,1.22,13.64,1.97l0.24-1.54C568.77,345.03,563.67,344.25,560.05,343.73z"/>
	</g>
	<ellipse class="st34" cx="482.08" cy="359.35" rx="2.31" ry="1.76"/>
	<ellipse class="st34" cx="484.57" cy="354.54" rx="2.31" ry="1.76"/>
	<ellipse class="st34" cx="487.82" cy="359.35" rx="2.31" ry="1.76"/>
	<circle class="st12" cx="479.26" cy="353.44" r="0.51"/>
	<path class="st28" d="M496.93,295.34c0.87-3.32,1.77-7.91,2.41-14.06c0.08-0.75,0.11-1.46,0.11-2.14
		c-0.05-5.25-2.41-8.79-5.45-11.16l6.53-0.93c0.61-0.08,1.2-0.09,1.77-0.05c3.6,0.3,6.65,3.06,7.19,6.79l0.51,3.57
		C511.21,285.93,505.4,293.87,496.93,295.34z"/>
</g>
</svg>
