<svg width="32" height="32" fill="none" xmlns="http://www.w3.org/2000/svg"><path fill-rule="evenodd" clip-rule="evenodd" d="M26.86 27.743c-.291.272-.593.536-.91.782A15.817 15.817 0 0 1 16.005 32a15.86 15.86 0 0 1-9.954-3.475 15.45 15.45 0 0 1-.92-.782A15.942 15.942 0 0 1 0 16.005C0 7.16 7.161 0 16.005 0 24.839 0 32 7.16 32 16.005c0 4.64-1.974 8.816-5.14 11.738Z" fill="#262626"/><path fill-rule="evenodd" clip-rule="evenodd" d="M6.05 27.705v.819A15.857 15.857 0 0 0 16.006 32c3.767 0 7.225-1.291 9.945-3.476v-.819c0-8.78-19.9-8.78-19.9 0Z" fill="#666"/><path fill-rule="evenodd" clip-rule="evenodd" d="M16.005 7.278a6.058 6.058 0 0 0-6.06 6.061 6.056 6.056 0 1 0 12.11 0 6.056 6.056 0 0 0-6.05-6.06Z" fill="#666"/></svg>