<svg version="1.1" id="Layer_1" xmlns="http://www.w3.org/2000/svg" x="0" y="0" viewBox="0 0 664 380" style="enable-background:new 0 0 664 380" xml:space="preserve"><style>.st1,.st6{fill:#e4761b;stroke:#e4761b;stroke-width:.5556;stroke-linecap:round;stroke-linejoin:round}.st6{fill:#f6851b;stroke:#f6851b}.st10,.st11{fill-rule:evenodd;clip-rule:evenodd;fill:#f0b90f}.st11{fill:#ff007a}.st14{fill:none;stroke:#262626;stroke-width:12;stroke-linecap:round}.st15{fill:#ffb347}.st15,.st16,.st17{fill-rule:evenodd;clip-rule:evenodd}.st16{fill:#ff9332}.st17{fill:#ea5237}.st21{fill:#fff}.st23{fill:#0a192b}.st26{fill:none;stroke:#666;stroke-width:2;stroke-linecap:round;stroke-dasharray:0,16}</style><path d="m657.6 5.6-13.5 10.3 2.5-6.1 11-4.2z" style="fill:#e2761b;stroke:#e2761b;stroke-width:.5556;stroke-linecap:round;stroke-linejoin:round"/><path class="st1" d="M626.4 5.6 639.8 16l-2.4-6.2-11-4.2zm26.3 23.8-3.6 5.7 7.7 2.1 2.2-7.7-6.3-.1zm-27.7.1 2.2 7.7 7.7-2.1-3.6-5.7-6.3.1z"/><path class="st1" d="m634.5 19.9-2.2 3.3 7.6.3-.2-8.4-5.2 4.8zm15 0-5.3-4.9-.1 8.5 7.6-.3-2.2-3.3zm-14.6 15.2 4.6-2.3-4-3.2-.6 5.5zm9.6-2.3 4.6 2.3-.6-5.5-4 3.2z"/><path d="m649.1 35.1-4.6-2.3.4 3.1v1.3l4.2-2.1zm-14.2 0 4.3 2.1-.1-1.3.4-3.1-4.6 2.3z" style="fill:#d7c1b3;stroke:#d7c1b3;stroke-width:.5556;stroke-linecap:round;stroke-linejoin:round"/><path d="m639.3 27.6-3.8-1.2 2.7-1.3 1.1 2.5zm5.5 0 1.2-2.5 2.7 1.3-3.9 1.2z" style="fill:#233447;stroke:#233447;stroke-width:.5556;stroke-linecap:round;stroke-linejoin:round"/><path d="m634.9 35.1.7-5.7-4.3.2 3.6 5.5zm13.6-5.7.6 5.7 3.6-5.5-4.2-.2zm3.2-6.2-7.6.4.7 4 1.1-2.4 2.7 1.2 3.1-3.2zm-16.3 3.2 2.7-1.2 1.2 2.4.7-4-7.6-.4 3 3.2z" style="fill:#cd6116;stroke:#cd6116;stroke-width:.5556;stroke-linecap:round;stroke-linejoin:round"/><path d="m632.4 23.2 3.2 6.4-.1-3.2-3.1-3.2zm16.3 3.2-.1 3.2 3.2-6.4-3.1 3.2zm-8.7-2.8-.7 4 .9 4.7.2-6.2-.4-2.5zm4.2 0-.4 2.5.2 6.2.9-4.7-.7-4z" style="fill:#e4751f;stroke:#e4751f;stroke-width:.5556;stroke-linecap:round;stroke-linejoin:round"/><path class="st6" d="m644.8 27.6-.9 4.7.7.5 3.9-3.2.2-3.2-3.9 1.2zm-9.3-1.2.1 3.2 3.9 3.2.7-.5-.9-4.7-3.8-1.2z"/><path d="M644.9 37.1v-1.2l-.3-.4h-5.1l-.3.4v1.2l-4.2-2 1.4 1.2 3.1 2.2h5.2l3-2.2 1.5-1.2-4.3 2z" style="fill:#c0ad9e;stroke:#c0ad9e;stroke-width:.5556;stroke-linecap:round;stroke-linejoin:round"/><path d="m644.6 32.8-.7-.5h-3.7l-.7.5-.3 3.1.3-.4h5.1l.3.4-.3-3.1z" style="fill:#161616;stroke:#161616;stroke-width:.5556;stroke-linecap:round;stroke-linejoin:round"/><path d="m658.2 16.5 1.1-5.7-1.7-5.2-13 9.9 5 4.4 7.1 2.1 1.5-1.9-.6-.5 1-1-.8-.7 1.1-.8-.7-.6zm-33.4-5.7 1.2 5.7-.8.6 1.1.8-.8.7 1.1 1-.7.5 1.5 1.9 7.1-2.1 5-4.4-13-9.9-1.7 5.2z" style="fill:#763d16;stroke:#763d16;stroke-width:.5556;stroke-linecap:round;stroke-linejoin:round"/><path class="st6" d="m656.7 22-7.1-2.1 2.1 3.3-3.2 6.4 4.3-.1h6.3l-2.4-7.5zm-22.2-2.1-7.1 2.1-2.3 7.5h6.3l4.2.1-3.2-6.4 2.1-3.3zm9.6 3.6.5-8 2-5.7h-9.1l2 5.7.5 8 .2 2.6v6.2h3.7l.1-6.2.1-2.6z"/><path class="st10" d="m623.2 145.1 11.8 6.8v-5l-7.5-4.3V134l-4.3-2.6v13.7zM657 134v8.6l-7.5 4.3v5l11.8-6.8v-13.7L657 134zm-33.8-10.9v5l4.3 2.5v-5l4.4-2.5-4.3-2.5-4.4 2.5zm19.1 28-4.4-2.5v5l4.4 2.5 4.3-2.5v-5l-4.3 2.5zm10.3-28 4.4 2.5v5l4.3-2.5v-5l-4.4-2.5-4.3 2.5zm-10.3-11-11.9 6.8 4.4 2.5 7.5-4.3 7.4 4.3 4.4-2.5-11.8-6.8zm11.8 20.2v-5l-4.4-2.5-2.1 1.2-5.3 3.1-5.8-3.3-1.7-1-4.4 2.5v5l2.7 1.5 4.8 2.8v8.6l4.4 2.6 4.3-2.6v-8.6l4.4-2.5 3.1-1.8z"/><path class="st10" d="m637.7 123.1.2.2 4.4 2.5 3.8-2.3.8-.4h-.1l-4.5-2.7-4.6 2.7zm-7.3 12.5v5.3l4.6 2.7v-5.3l-3.3-2-1.3-.7zm19.1 8 4.6-2.7v-5.3l-1.7 1-2.9 1.7v5.3z"/><path class="st11" d="M634.9 235.6c-1.6-2.3-6.1-8.5-10.2-13.7-.4-.5-.8-1-.7-1 .1 0 13.9 15.6 14.9 16.7l.3.3v.5c0 .7-.2 1.1-.7 1.6-.6.5-1.3.8-2.3 1-.7.1-.9.2-1.2.5-.3.3-.4.6-.4 1.6-.1 1.4-.3 2-.9 3.4-.6 1.4-.8 1.9-.7 2.6.2.9.6 1.6 1.8 2.4.9.6 1.3 1 1.5 1.5.2.3.2.4.2.9 0 .8-.1 1.1-.7 1.7-.8.9-2.3 1.7-4.2 2.1-.8.2-.8.2-.8 0s-.3-.8-.8-1.6c-.6-.9-.8-1.4-1-2.1-.3-.8-.3-1.3-.3-2.1s.1-1.1.4-1.7c.3-.5.4-.7 1.3-1.9 1.6-2.1 2.2-3.3 2.4-5 .2-1.5.5-2.3 1-2.9.3-.4.4-.5.4-.8 0-.2-1.1-2.4-2.8-5.3-2.6-4.7-2.6-4.7-2.5-4.7 0 0 1.2 1.9 2.7 4.2 1.9 3 3.3 5 3.4 5.2.3.3.7.4 1 .4.3 0 .6-.1.9-.2.4-.2.2-.4-.4-1.2v-.1c-.3-.4-.7-.8-1.1-1.5l-.1-.1c-.1-.1-.2-.4-.4-.7zm-4 16.1c.4.3.5.8.3 1.2-.2.4-.6.5-.9.3-.2-.2-.2-.3 0-.6.2-.2.1-.3-.1-.4-.1-.1-.2-.1-.2-.2 0-.4.6-.6.9-.3zm7.1-21.1c-.4-.1-.5-.1-.3-.1.4-.1 1.3 0 2 .2 1.5.4 2.9 1.3 4.4 3l.4.4.6-.1c2.4-.4 4.8-.1 6.8.9.6.3 1.4.8 1.5.9l.2.6c.2 1 .1 1.8-.2 2.4-.2.3-.2.4-.1.7.1.2.3.4.6.4.5 0 1-.8 1.3-2l.1-.4.2.2c1.1 1.2 1.9 3 2.1 4.2v.3l-.2-.3c-.3-.5-.6-.8-1-1.1-.7-.5-1.5-.7-3.5-.8-1.8-.1-2.9-.3-3.9-.6-1.8-.6-2.6-1.4-4.7-4.1-.9-1.2-1.5-1.9-2.1-2.5-1.4-1.3-2.6-1.9-4.2-2.2z"/><path class="st11" d="M653.8 233.4c0-.8.2-1.4.4-1.9.1-.2.2-.3.2-.3s0 .2-.1.3c-.2.5-.2 1.1-.1 1.9.1 1 .2 1.1 1.2 2.2.5.5 1 1.1 1.2 1.4l.4.5-.4-.3c-.4-.4-1.5-1.3-1.7-1.4-.2-.1-.2-.1-.3 0-.1.1-.1.2-.1.9 0 1-.2 1.6-.5 2.2-.2.3-.2.3 0-.1.1-.3.1-.4.1-1.3 0-1.9-.2-2.4-1.5-3.1-.3-.2-.8-.5-1.2-.6-.3-.2-.6-.3-.6-.3s1.3.4 1.8.5c.8.3.9.3 1 .3.1-.2.1-.4.2-.9zm-16.3-1.5c-.1 1.5.4 3.4 1.3 4.7.7 1 1.8 1.7 2.6 1.8.5.1.7-.1.4-.5-.3-.5-.7-1.2-.8-1.6-.1-.2-.2-.8-.3-1.3-.4-1.8-.8-2.5-1.6-3-.3-.2-1-.4-1.3-.5h-.2l-.1.4zm15.2 14.2c-4.2-1.7-5.7-3.2-5.7-5.8v-.7s.2.1.4.3c.8.7 1.8 1 4.4 1.4 1.6.2 2.4.4 3.3.7 2.6.9 4.2 2.6 4.5 5.1.1.7 0 2-.1 2.7-.2.5-.6 1.5-.7 1.6 0 0-.1-.1-.1-.3 0-.9-.5-1.8-1.3-2.4-.8-.9-1.9-1.5-4.7-2.6zm-3.2-.2c.1.2.2.6.2.9.3 2.1-.7 3.7-2.8 4.4-.2.1-1.1.3-1.9.4-1.7.3-2.4.5-3.2.9-.5.3-1.2.7-1.1.7 0 0 .1 0 .3-.1.9-.4 2-.5 3.6-.6.6 0 1.3-.1 1.6-.1 1.4-.2 2.4-.6 3.2-1.4.4-.4.7-.9.9-1.5.1-.4.2-.5.2-1.2s0-.8-.2-1.2c-.2-.5-.4-1-.7-1.3l-.2-.2.1.3z"/><path class="st11" d="M651.6 250.3c-.6-1.2-.7-2.4-.4-3.5 0-.1.1-.2.1-.2s.2.1.3.2c.2.2.8.5 2.2 1.2 1.7 1 2.7 1.7 3.4 2.5.6.7.9 1.6 1.1 2.6.1.6 0 2-.1 2.6-.5 1.9-1.5 3.3-3.1 4.2l-.4.2s.1-.2.2-.5c.5-1.1.6-2.2.2-3.4-.3-.7-.7-1.6-1.7-3.1-1.2-1.7-1.5-2.2-1.8-2.8zm-10.5 4c-1.8.3-3.7 1.3-5.3 2.6l-.5.4.4.1c2.1.4 2.7.6 4.2 2.2.8.9 1.1 1.1 1.8 1.3 1 .3 2.1-.2 2.4-1.2.2-.4.1-1.1 0-1.5-.4-.8-1.7-1.1-2.3-.5-.5.5-.3 1.3.3 1.4.2 0 .1 0 0-.1-.3-.1-.4-.3-.4-.6 0-.7.7-1 1.4-.7.5.2.7.5.7 1 0 .8-.7 1.4-1.5 1.3-.4-.1-.9-.3-1.2-.6-.7-.8-.4-2.1.5-2.5.8-.4 1.7-.3 2.5.2.9.6 1.3 1.1 2 2.9l.7 1.4c.7 1.1 1.6 1.6 2.6 1.6.6 0 1-.1 1.5-.4.4-.2 1-.6.9-.6 0 0-.2 0-.4.1-1.1.4-2.3.4-2.9-.1-.4-.3-.8-.9-.9-1.7 0-.1-.1-.7-.2-1.3-.2-1.5-.4-2.2-1-3-.5-.8-1.5-1.5-2.7-1.7-.5 0-1.8-.1-2.6 0zm0-12.7c.6.3 1.1 1 .9 1.6-.1.6-1.1 1.1-2.3 1.1-.6 0-.8-.1-1-.4-.1-.2-.2-.8-.1-1.1.2-.6.7-1.1 1.2-1.3.3-.2 1-.1 1.3.1zm-.2.2c-.6-.3-1.4-.1-1.5.5 0 .3.5.6.9.6.3 0 .7-.2.8-.4.2-.2.1-.5-.2-.7z"/><path d="m642 334.1 18.1 10.5v20.9L642 375.9l-18.1-10.5v-20.9l18.1-10.4z" style="fill:none;stroke:#fff"/><path d="M634.5 342.5h15l1.8 7.6h-18.6l1.8-7.6zm4.3 13.1-1.6-4.3h9.7l-1.6 4.3.5 4.8h-7.5l.5-4.8zm4.8 9.8v-1.5l3.4-3.2v-5.1l4.4-2.9 5 3.8-6.8 11.9h-2.7l-3.3-3zm-15.9-8.9 5-3.7 4.4 2.8v5.1l3.4 3.2v1.5l-3.2 3h-2.8l-6.8-11.9z" style="fill-rule:evenodd;clip-rule:evenodd;fill:#fff"/><path class="st14" d="M74 23h32c11 0 20 9 20 20v93M74 355h32c11 0 20-9 20-20v-93m42-54h65M74 136h72c11 0 20 9 20 20v66c0 11-9 20-20 20H74M590 23h-32c-11 0-20 9-20 20v93m52 219h-32c-11 0-20-9-20-20v-93m-42-54h-65m159-52h-72c-11 0-20 9-20 20v66c0 11 9 20 20 20h72"/><path class="st15" d="M294.4 190c0-16.7 10.7-30.7 25.7-35.7l-4-14.8c-21.4 6.7-37 26.8-37 50.5 0 13.8 5.3 26.3 13.9 35.8l10.8-10.8c-5.9-6.7-9.4-15.5-9.4-25z"/><path class="st16" d="m383.6 201.5-49.8-13.4-13.4-49.7c3.7-.9 7.6-1.3 11.6-1.3 29.2 0 52.9 23.7 52.9 52.9-.1 3.9-.5 7.8-1.3 11.5z"/><path class="st17" d="m382.4 205.8-14.8-4c-5 14.9-19.1 25.7-35.7 25.7-9.6 0-18.3-3.6-24.9-9.5l-10.8 10.9c9.4 8.7 22 13.9 35.8 13.9 23.6 0 43.7-15.6 50.4-37z"/><path class="st15" d="m303.8 214.9-10.9 10.8c-8.9-9.7-13.8-22.4-13.8-35.8 0-14.2 5.5-27.5 15.4-37.4 6-6 13.4-10.5 21.5-13l3.4 15.1c-5.2 1.9-10 4.9-14 8.8-6.9 6.9-10.8 16-11 25.7-.2 9.6 3.1 18.7 9.4 25.8z"/><path class="st16" d="m331.9 189.9-11.5-51.6c8.6-1.9 17.6-1.6 26.1.9 8.6 2.5 16.6 7.2 22.9 13.6 6.5 6.5 11.2 14.6 13.6 23.5 2.2 8.2 2.4 16.9.5 25.2l-51.6-11.6z"/><path class="st17" d="M358.3 235.6c-12.3 7.1-26.5 9-40.1 5.4-8.2-2.2-15.8-6.4-22.1-12.1L307 218c6.9 6.1 15.7 9.4 24.9 9.4 10 0 19.4-3.9 26.5-11 3.9-3.9 7-8.7 8.8-14l15.1 3.4c-3.9 12.6-12.4 23.2-24 29.8z"/><path d="M22 0 8.5 13.5l5 5L22 9.9l8.5 8.5 5-5L22 0zM0 22l5 5 5-5-5-5-5 5zm34.1 0 5 5 5-5-5-5-5 5zm-3.6 3.5 5 5L22 44 8.5 30.5l5-5L22 34l8.5-8.5zM22 17l5 5-5 5-5-5 .9-.9.4-.4L22 17z" style="fill-rule:evenodd;clip-rule:evenodd;fill:#f2ba2f"/><path d="M31.8 137.9c-.9 4.6-4.9 8.1-9.8 8.1-5.5 0-10-4.5-10-10s4.5-10 10-10c4.9 0 8.9 3.5 9.8 8.1h10.1C41 124 32.4 116 22 116c-11 0-20 9-20 20s9 20 20 20c10.4 0 19-8 19.9-18.1H31.8z" style="fill:#0052ff"/><path d="M44 249.9v-2.3c0-.2-.2-.4-.4-.3l-10.9 3.2c-.1 0-.1 0-.2.1-1.2 1.3-2.2 2.2-2.4 2.4-.7.6-1.5.9-2.4.9h-3.9v-4.1H27c.1 0 .2 0 .2-.1l.4-.4.6-.6.1-.1.4-.4.5-.5c.2-.3.5-.5.7-.8.2-.2.3-.4.5-.6.2-.2.3-.4.5-.7.1-.1.1-.2.2-.3.1-.1.1-.2.2-.3.1-.2.2-.4.3-.5.3-.5.6-1 .8-1.5.1-.2.2-.5.3-.7v-.1c.1-.3.2-.5.2-.8.1-.6.2-1.2.1-1.9 0-.2 0-.4-.1-.6 0-.1 0-.3-.1-.4-.1-.6-.3-1.2-.6-1.8l-.3-.6c-.2-.4-.5-.9-.8-1.3-.1-.1-.1-.2-.2-.3 0-.1-.1-.1-.1-.2-.2-.3-.4-.5-.6-.8 0-.1-.1-.1-.1-.2-.1-.2-.2-.3-.4-.5-.1-.1-.1-.2-.2-.3-.2-.2-.4-.5-.6-.7-.7-.8-1.4-1.5-2-2.1l-.4-.4c-.5-.5-.9-.9-1.3-1.2l-.3-.3-.2-.2c-.1-.1-.2-.2-.3-.2-.1 0-.1-.1-.1-.1h-.1l-.4-.1V224c0-.6-.2-1.1-.6-1.5s-.9-.6-1.4-.6c-1.1 0-2 .9-2 2.1v2.4l-.2-.1-.6-.2-.5-.1-3.9-1.1c-.2 0-.3.1-.2.3l.6 1.2c0 .1.1.2.1.3 0 .1.1.1.1.2l.3.6.3.6c0 .1.1.2.1.3.2.4.3.8.5 1.2.1.4.3.7.4 1.1.4.9.7 1.9 1 2.9.1.2.1.4.2.7 0 .1 0 .2.1.3v.2c.1.5.2.9.3 1.4.1.3.1.6.1.9 0 .4.1.7.1 1.1v1c0 .8-.1 1.6-.2 2.4v.1c0 .2-.1.4-.2.6-.1.2-.1.4-.2.6 0 .1-.1.1-.1.2-.1.1-.1.3-.2.4-.4.9-.8 1.8-1.3 2.6-.7 1.2-1.4 2.3-1.8 3l-.1.1c0 .1-.1.1-.1.1-.2.2 0 .5.3.5h5.1v4.1h-5.1c-1.4 0-2.7-.8-3.3-2.1-.3-.6-.4-1.3-.4-2 0-.2-.1-.4-.3-.4H.3c-.2 0-.3.1-.3.3v.2c0 6.7 5.3 12.2 11.9 12.2h18.6c3.5 0 5.5-3.2 7.4-6.4.5-.9 1.1-1.8 1.7-2.6 1-1.4 3.5-2.6 4.2-2.9.1 0 .2-.1.2-.3zm-41.2-5.3-.2.2c-.1.2 0 .5.3.5h9.5c.1 0 .2-.1.3-.1l.3-.6c.8-1.4 1.6-2.9 1.8-4.1.6-2.7-.7-7.1-2.3-10.6-.1-.2-.4-.3-.6 0l-9.1 14.7z" style="fill-rule:evenodd;clip-rule:evenodd;fill:#3d81db"/><path class="st21" d="m10.5 357.7 1.2-8.8-10.1-7 9.2 3.1 2.2-3.3 8-4.9 17.5 9.7.9 14.8-7.9 10.7-6.2.9 3.2-5.9v-5.6l-2.3-4.4-2.4-1.6-3.6 3.7v4l-2.8 2.7-3.6.4-1.6.9-2.6-.8-1.1-3.9 2-2.8v-1.9z"/><path d="M26.6 341.8c-1.9-.4-4-.3-4-.3s-.7 3.2-5 4c0 .1 5.7 2 9-3.7zm1.7 29c2.3-1.8 4.1-4.3 4.9-7.2 0-.1.4-.3.6-.4.4-.2.7-.4.8-.7.1-.8.2-1.7.2-2.6 0-.3-.3-.7-.7-1-.3-.2-.5-.5-.5-.7-.4-3.3-1.9-6.4-4.3-8.6l-.3.3c2.4 2.2 3.9 5.2 4.2 8.4 0 .3.3.6.6.9.3.2.5.5.5.7 0 .8-.1 1.7-.2 2.5 0 .1-.4.3-.6.4-.4.2-.7.4-.8.7-.9 3.1-2.9 5.8-5.5 7.5.5-1 2-4.3 2.8-6l-.1-5.4-4.6-4.5-2.6.4-2.9 4.7s1.3 1.7-.5 3.7c-1.9 2-3.3 2.4-3.3 2.4l-1.3-.7c.4-.5 1.2-1.3 1.8-1.8 1.1-.9 2.1-.9 2.1-1.9 0-2-2.1-1.4-2.1-1.4l-.8.7-.3 2.7-1.6 2h-.2l-2.6-.6s1.6-.8 1.9-1.8c.3-.9-.5-3.9-.5-4.1 0 0 .8.7 1.1 1.7.6-1.6 1.3-3.1 1.6-3.3.2-.1 3.2-1.7 3.2-1.7l-1 2.6.7-.4 1.7-4.3s1.7-.8 3-.8c2.3 0 5.7-2.8 4.1-7.9.4.2 8 4 9.3 11.4.9 5.7-2.3 11-7.8 14.1z" style="fill:#94a6c3"/><path class="st23" d="M19.7 342.6c.8-1 .5-2.4.5-2.4l-2.4 3.6c-.1 0 .8 0 1.9-1.2zm-8.2 19.7.3-1.5s-1.2 2.1-1.3 2.4c-.1.3.1.9.5.9.5 0 1.1-.7 1.1-1.2 0-.7-.6-.6-.6-.6z"/><path class="st23" d="M33.1 339.2s1.8.1 3.7.3c-4.2-3.3-8.3-4.3-11.5-4.3-4.5 0-7.6 1.9-7.7 2l1.4-2.3s-5.7-.5-7.7 5.5c-.5-1.3-1-3.1-1-3.1s-2.9 2.6-1.6 6.9c-3.4-1.2-8.2-2.9-8.4-3-.3 0-.3.1-.3.1s-.1.1.1.3c.4.3 8 6 9.7 7.1-.4 1.3-.4 1.9 0 2.5.5.8.5 1.3.5 1.9s-.7 6-.9 6.6c-.1.7-1.7 3-1.6 3.7.1.7 1 3.6 1.9 4 .6.2 2.1.7 3.2.7.4 0 .7-.1.8-.2.6-.5.8-.7 1.2-.7h.8c.6 0 1.3-.1 1.9-.6.8-.8 2.2-1.9 2.6-2.4.5-.7.8-1.6.7-2.6-.1-.9.4-1.6.9-2.4.7-.9 2-2.5 2-2.5 2.5 1.9 4.1 4.8 4.1 8 0 5.7-4.9 10.2-11 10.2-.9 0-1.9-.1-2.8-.3 2.8 1 5.2 1.3 7.1 1.3 4.1 0 6.3-1.5 6.3-1.5s-.8 1-2 2.1c6.8-.9 10.1-6.5 10.1-6.5s-.3 1.8-.6 3.1c9-6.8 7.5-15.3 7.5-15.6.1.1 1 1.2 1.5 1.8 1.3-15.3-10.9-20.1-10.9-20.1zm-13.9 23.9c-.1.2-.8.7-1.2 1.1-.4.4-.9.8-1.3 1.2-.1.1-.4.2-.9.2h-1c.5-.7 2.1-2.4 2.7-2.8.7-.4 1-.9.6-1.6-.4-.8-1.5-.6-1.5-.6s.6-.3 1.2-.3c-.7-.2-1.6 0-2 .4-.4.4-.4 1.8-.5 2.7-.2.9-.8 1.4-1.7 2.3-.5.5-.9.6-1.2.6-.6-.1-1.3-.3-1.9-.5-.4-.5-.9-2-1.1-2.7.1-.4.5-1.1.8-1.6.4-.8.7-1.3.8-1.7.1-.6.6-4.4.8-6 .5.6 1.1 1.6 1 2.3 1.1-1.5.3-2.9-.1-3.5-.3-.6-.8-1.7-.4-3 .4-1.2 1.7-4.7 1.7-4.7s.4.8 1.1.6c.6-.1 5.6-7.6 5.6-7.6s1.3 2.9-.1 5.1c-1.5 2.1-2.9 2.5-2.9 2.5s2 .4 3.8-1c.8 1.8 1.5 3.6 1.5 3.9-.1.3-1.6 3.7-1.7 4-.1.1-.6.2-.9.3-.6.2-1 .3-1.1.4-.3.2-1.4 3.4-2 5-.7.2-1.3.5-1.8 1.3.3-.2 1.1-.3 1.6-.4.5 0 2.1.8 2.5 2.4v.1c.1.6-.1 1.1-.4 1.6zm-3.4.4c.3-.5.3-1.3.3-1.5 0-.3.1-.7.4-.8.3-.1 1 0 1 .5s-.5.6-.9.9c-.2.3-.8.8-.8.9zm14.5-6.9c.4-1.9.4-3.5.3-4.8 1.4 1.9 2.3 4.2 2.5 6.5 0 .3.3.6.6.9.3.2.5.5.5.7 0 .8-.1 1.7-.2 2.5 0 .1-.4.3-.6.4-.4.2-.7.4-.8.7-.8 2.8-2.5 5.3-4.8 7 3.4-3.5 5.1-9.3 2.5-13.9zM28 370.9c2.4-1.8 4.2-4.4 5-7.2 0-.1.4-.3.6-.4.4-.2.7-.4.8-.7.1-.8.2-1.7.2-2.6 0-.3-.3-.7-.7-1-.2-.2-.5-.5-.5-.7-.3-2.7-1.3-5.2-3-7.2-.7-4.4-3.6-5.7-3.7-5.7.1.1 2 2.8.7 6s-4.8 2.7-5.1 2.8c-.3 0-1.4 1.5-2.8 4.1-.2-.1-.9-.3-1.8-.1.7-1.8 1.6-4.4 1.8-4.6.1-.1.6-.2 1-.3.7-.2 1-.3 1.1-.4.1-.1.4-.9.8-1.8.3 0 1.2-.1 1.2-.1.1-.1.8-1.9.8-2.1 0-.2-1.4-3.7-2-5.1.3-.3.5-.7.8-1.1 7.4.8 13.3 7.1 13.3 14.8-.1 5.8-3.5 11-8.5 13.4z"/><path class="st23" d="M18.3 351.2c.7-.8.3-2.3-.9-2.5.3-.8.8-2.3.8-2.3s-3.7 5.8-4 5.9-.7-1.2-.7-1.2c-.7 2.7 1.2 3 1.4 2.2 1-.2 2.7-1.3 3.4-2.1z"/><path d="m15.2 352.7 1.9-3.2s1.1.5.5 1.4c-.7 1-2.4 1.8-2.4 1.8z" style="fill:#ffd923"/><path d="M38.5 367.6c-.5.7-1.2 1.5-1.9 2.2 4.7-9 .2-17.3 0-17.6.3.3.7.7.9 1 3.7 4.1 4.1 10.1 1 14.4zm4.4-11.6c-1.6-4.4-4-8.1-9.1-11.5-4.9-3.3-10.2-3-10.5-3h-.1c.2-.1.4-.1.5-.1 1.1-.4 2.6-.7 4-.8 3.8-.5 7.7.8 10.4 3.6l.1.1c3 3.1 4.6 7.1 4.7 11.7zm-10.3-18c-5.4-1-8.9-.5-11.4.4-.1-.3-.3-.9-.5-1.3-.8.9-1.6 2-2.1 2.7-1.4.9-2 1.9-2 1.9.8-2.7 3.1-4.8 6-5.3.8-.1 1.7-.2 2.6-.2 2.5 0 5 .6 7.4 1.8zm-20 7c-4.2-.1-2.8-5.1-2.8-5.4.1.1.3 3.9 2.8 5.4zm4.2-8.9c-3.3 2-2.6 6.7-2.6 6.7-3.1-4.8 2.3-6.6 2.6-6.7z" style="fill:#d82122"/><path class="st21" d="M11.4 346.3c.2.2.4.5.2 1-.1.3-.4.2-.7.1-.4-.2-3.1-1.7-5.4-3.3 2.7.9 5.4 1.9 5.9 2.2-.1 0 0 0 0 0z"/><g id="Left" transform="translate(74 23)"><g id="Group-2"><path id="Rectangle" class="st14" d="M0 0h32c11 0 20 9 20 20v93h0"/><path id="Rectangle_00000133519349515812009250000010226791882230113701_" class="st26" d="M8 0h24c11 0 20 9 20 20v85h0"/></g><g id="Group-2-Copy" transform="matrix(1 0 0 -1 0 332)"><path id="Rectangle_00000006668933846824023110000004197490030521611904_" class="st14" d="M0 0h32c11 0 20 9 20 20v93h0"/><path id="Rectangle_00000167371605570090520300000005063338624797705632_" class="st26" d="M8 0h24c11 0 20 9 20 20v85h0"/></g><g id="Group-4" transform="translate(94 164.5)"><path id="Path_00000139271797374697315930000003079224722847610516_" class="st14" d="M0 .5h65"/><path id="Path_00000044869038387831819200000012705193096548088480_" class="st26" d="M11 .5h50"/></g><g id="Group-3" transform="translate(0 113)"><path id="Rectangle_00000135688579558904505370000006123415200560040856_" class="st14" d="M0 0h72c11 0 20 9 20 20v66c0 11-9 20-20 20H0h0"/><path id="Rectangle_00000152249603094607339730000012752180943949459612_" class="st26" d="M8 0h64c11 0 20 9 20 20v66c0 11-9 20-20 20H8h0"/></g></g><g id="Right" transform="matrix(-1 0 0 1 590 23)"><g id="Group-2_00000163054483759524782360000017563815837328065698_"><path id="Rectangle_00000089558359797737346860000003718929203566724267_" class="st14" d="M0 0h32c11 0 20 9 20 20v93h0"/><path id="Rectangle_00000037667079640150153160000016923946670055093417_" class="st26" d="M8 0h24c11 0 20 9 20 20v85h0"/></g><g id="Group-2-Copy_00000000938874637908101840000004787267676725887163_" transform="matrix(1 0 0 -1 0 332)"><path id="Rectangle_00000182530611373809618870000008850423944118185097_" class="st14" d="M0 0h32c11 0 20 9 20 20v93h0"/><path id="Rectangle_00000058590534519503344310000010417769737428116147_" class="st26" d="M8 0h24c11 0 20 9 20 20v85h0"/></g><g id="Group-4_00000011752090375091580280000000928751016941234360_" transform="translate(94 164.5)"><path id="Path_00000163038927175892302220000006254331852393990281_" class="st14" d="M0 .5h65"/><path id="Path_00000112619858878036365720000007475690114709894332_" class="st26" d="M11 .5h50"/></g><g id="Group-3_00000001629382824415409840000001092876445671569552_" transform="translate(0 113)"><path id="Rectangle_00000021807283578081563350000003867045682051041166_" class="st14" d="M0 0h72c11 0 20 9 20 20v66c0 11-9 20-20 20H0h0"/><path id="Rectangle_00000057841762099650394890000017210472643665183664_" class="st26" d="M8 0h64c11 0 20 9 20 20v66c0 11-9 20-20 20H8h0"/></g></g></svg>